G04*
G04 #@! TF.GenerationSoftware,Altium Limited,Altium Designer,21.0.8 (223)*
G04*
G04 Layer_Color=65535*
%FSAX24Y24*%
%MOIN*%
G70*
G04*
G04 #@! TF.SameCoordinates,60160E94-E268-4AC3-8077-459848BE01EC*
G04*
G04*
G04 #@! TF.FilePolarity,Positive*
G04*
G01*
G75*
%ADD10C,0.0070*%
%ADD11C,0.0150*%
%ADD12C,0.0079*%
%ADD13C,0.0120*%
%ADD14C,0.0118*%
%ADD15C,0.0100*%
%ADD16C,0.0600*%
%ADD17C,0.0394*%
%ADD18C,0.0079*%
%ADD19R,0.1500X0.0300*%
G36*
X040240Y027085D02*
X039450D01*
Y027315D01*
X040240D01*
Y027085D01*
D02*
G37*
G36*
X033600Y044950D02*
X033950Y044600D01*
Y044321D01*
X033949Y044304D01*
X033943Y044271D01*
X033930Y044240D01*
X033911Y044212D01*
X033900Y044200D01*
X033900D01*
X033835Y044135D01*
X033827Y044127D01*
X033807Y044114D01*
X033785Y044105D01*
X033762Y044101D01*
X033750Y044100D01*
D01*
X033700Y044050D01*
X033688Y044039D01*
X033660Y044020D01*
X033629Y044007D01*
X033596Y044001D01*
X033579Y044000D01*
D01*
X033071D01*
X033054Y044001D01*
X033021Y044007D01*
X032990Y044020D01*
X032962Y044039D01*
X032950Y044050D01*
D01*
X032835Y044165D01*
X032827Y044173D01*
X032814Y044193D01*
X032805Y044215D01*
X032801Y044238D01*
X032800Y044250D01*
X032789Y044262D01*
X032770Y044290D01*
X032757Y044321D01*
X032751Y044354D01*
X032750Y044371D01*
D01*
Y044509D01*
X032752Y044542D01*
X032765Y044608D01*
X032790Y044670D01*
X032827Y044725D01*
X032850Y044750D01*
X032850D01*
X032965Y044865D01*
X032973Y044873D01*
X032993Y044886D01*
X033015Y044895D01*
X033038Y044899D01*
X033050Y044900D01*
D01*
Y044950D01*
X031650D01*
X031850Y044400D01*
X032150Y044000D01*
X032550Y043700D01*
X033150Y043500D01*
X033550D01*
X034050Y043650D01*
X034500Y043950D01*
X034800Y044300D01*
X035000Y044750D01*
X035050Y044950D01*
X033600D01*
D02*
G37*
G36*
X045350Y044640D02*
X045700Y044955D01*
X045000D01*
X045350Y044640D01*
D02*
G37*
G36*
X052900Y044000D02*
X052550Y044350D01*
Y044629D01*
X052551Y044646D01*
X052557Y044679D01*
X052570Y044710D01*
X052589Y044738D01*
X052600Y044750D01*
Y044750D01*
X052665Y044815D01*
X052673Y044823D01*
X052693Y044836D01*
X052715Y044845D01*
X052738Y044849D01*
X052750Y044850D01*
D01*
X052800Y044900D01*
X052812Y044911D01*
X052840Y044930D01*
X052871Y044943D01*
X052904Y044949D01*
X052921Y044950D01*
D01*
X053429D01*
X053446Y044949D01*
X053479Y044943D01*
X053510Y044930D01*
X053538Y044911D01*
X053550Y044900D01*
X053550Y044900D01*
X053665Y044785D01*
X053673Y044777D01*
X053686Y044757D01*
X053695Y044735D01*
X053699Y044712D01*
X053700Y044700D01*
X053711Y044688D01*
X053730Y044660D01*
X053743Y044629D01*
X053749Y044596D01*
X053750Y044579D01*
D01*
Y044441D01*
X053748Y044408D01*
X053735Y044342D01*
X053710Y044280D01*
X053672Y044225D01*
X053650Y044200D01*
Y044200D01*
X053535Y044085D01*
X053527Y044077D01*
X053507Y044064D01*
X053485Y044055D01*
X053462Y044051D01*
X053450Y044050D01*
D01*
Y044000D01*
X054850D01*
X054650Y044550D01*
X054350Y044950D01*
X053950Y045250D01*
X053350Y045450D01*
X052950D01*
X052450Y045300D01*
X052000Y045000D01*
X051700Y044650D01*
X051500Y044200D01*
X051450Y044000D01*
X052900D01*
D02*
G37*
D10*
X048890Y042300D02*
G03*
X048890Y041500I000000J-000400D01*
G01*
X049900D02*
G03*
X049900Y042300I000000J000400D01*
G01*
X039510Y041004D02*
G03*
X040510Y041000I000500J-000017D01*
G01*
X038950Y026141D02*
G03*
X040750Y026150I000900J000006D01*
G01*
X040750Y028250D02*
G03*
X038951Y028250I-000899J000030D01*
G01*
X039100Y026153D02*
G03*
X040600Y026160I000750J000005D01*
G01*
Y028290D02*
G03*
X039100Y028283I-000750J-000005D01*
G01*
X048481Y045301D02*
G03*
X047856Y043653I000419J-001101D01*
G01*
X049944Y043663D02*
G03*
X049319Y045311I-001044J000547D01*
G01*
X034750Y029000D02*
G03*
X033950Y029000I-000400J000000D01*
G01*
Y027990D02*
G03*
X034750Y027990I000400J000000D01*
G01*
X035750Y030200D02*
G03*
X034950Y030200I-000400J000000D01*
G01*
Y029190D02*
G03*
X035750Y029190I000400J000000D01*
G01*
X040700Y030450D02*
G03*
X041500Y030450I000400J000000D01*
G01*
Y031460D02*
G03*
X040700Y031460I-000400J000000D01*
G01*
X038400Y030450D02*
G03*
X039200Y030450I000400J000000D01*
G01*
Y031460D02*
G03*
X038400Y031460I-000400J000000D01*
G01*
X039600Y030450D02*
G03*
X040400Y030450I000400J000000D01*
G01*
Y031460D02*
G03*
X039600Y031460I-000400J000000D01*
G01*
X054850Y043750D02*
G03*
X054850Y043750I-001700J000000D01*
G01*
X035050Y045200D02*
G03*
X035050Y045200I-001700J000000D01*
G01*
X048900Y042300D02*
X049900D01*
X048900Y041500D02*
X049900D01*
X038700Y040730D02*
Y040740D01*
X038460Y040490D02*
X038700Y040730D01*
X038450Y040490D02*
X038460D01*
X038450D02*
X038690Y040250D01*
X038710D01*
X038700Y040260D02*
X038710Y040250D01*
X038700Y040260D02*
Y040740D01*
X043500Y021000D02*
Y041000D01*
X036500Y021000D02*
X043500D01*
X036500D02*
Y041000D01*
X040520D02*
X043500D01*
X036500D02*
X039510D01*
X038000Y022000D02*
Y040000D01*
Y022000D02*
X042000D01*
Y040000D01*
X038000D02*
X042000D01*
X030140Y046840D02*
X030450D01*
X030770D01*
X029700Y046400D02*
X031200D01*
X030450Y046840D02*
Y047190D01*
X029700Y046840D02*
X031200D01*
X030450Y043890D02*
Y044250D01*
X029700D02*
X031200D01*
X029700D02*
Y046840D01*
X031200Y044250D02*
Y046840D01*
X025600Y048350D02*
X028900D01*
X025600Y042900D02*
X028900D01*
Y048350D01*
X025600Y042900D02*
Y048350D01*
Y047650D02*
X028900D01*
X039840Y027410D02*
Y027720D01*
X039490Y027410D02*
X040230D01*
X039840Y026700D02*
Y027000D01*
X039480D02*
X040230D01*
X040750Y026150D02*
Y028250D01*
X038950Y026141D02*
Y028250D01*
X040600Y026160D02*
Y028260D01*
X039100Y026170D02*
Y028270D01*
X047990Y044330D02*
X048760D01*
Y044590D01*
X049030D01*
Y044340D02*
Y044590D01*
Y044340D02*
X049820D01*
Y044050D02*
Y044340D01*
X049020Y044050D02*
X049820D01*
X049020Y043760D02*
Y044050D01*
X048750Y043760D02*
X049020D01*
X048750D02*
Y044060D01*
X047980D02*
X048750D01*
X047980D02*
Y044330D01*
X048220Y043490D02*
X049570D01*
X049315Y045660D02*
X049900Y045570D01*
X050200Y045270D01*
Y043520D02*
Y045270D01*
X048210Y042900D02*
X049580D01*
X047590Y043510D02*
Y045260D01*
X047900Y045570D01*
X048440Y045660D01*
X049315D01*
X049700Y042760D02*
X050210D01*
X047610D02*
X048120D01*
X039901Y018770D02*
X040662D01*
X039901Y016920D02*
X040662D01*
X039901D02*
Y018770D01*
X040282Y016580D02*
Y016920D01*
X040662D02*
Y018770D01*
X040282D02*
Y019120D01*
X038802Y018770D02*
X039562D01*
X038802Y016920D02*
X039562D01*
X038802D02*
Y018770D01*
X039181Y016580D02*
Y016920D01*
X039562D02*
Y018770D01*
X039181D02*
Y019120D01*
X022880Y025370D02*
Y026130D01*
X024730Y025370D02*
Y026130D01*
X022880Y025370D02*
X024730D01*
Y025750D02*
X025070D01*
X022880Y026130D02*
X024730D01*
X022530Y025750D02*
X022880D01*
X033950Y031050D02*
Y040100D01*
X035150D01*
Y031050D02*
Y040100D01*
X033950Y031050D02*
X035150D01*
X033950Y031950D02*
X035150D01*
X042670Y046370D02*
X043430D01*
X042670Y044520D02*
X043430D01*
X042670D02*
Y046370D01*
X043050Y044180D02*
Y044520D01*
X043430D02*
Y046370D01*
X043050D02*
Y046720D01*
X022100Y014050D02*
X031150D01*
X022100D02*
Y015250D01*
X031150D01*
Y014050D02*
Y015250D01*
X030250Y014050D02*
Y015250D01*
X028540Y035710D02*
Y035810D01*
X027546Y035710D02*
Y035810D01*
X027526Y027881D02*
X028500D01*
X026492Y027792D02*
X029474D01*
Y035820D01*
X027546Y035710D02*
X028540D01*
X027526Y027792D02*
Y027881D01*
X028500Y027802D02*
Y027881D01*
Y027802D02*
X028510Y027792D01*
X029440Y035810D02*
X029464Y035786D01*
X029200Y032802D02*
X029470D01*
X029200Y030794D02*
Y032802D01*
Y030794D02*
X029460D01*
X026492Y027792D02*
Y035820D01*
X026490Y035810D02*
X029440D01*
X026492Y027792D02*
Y035820D01*
X026490Y035810D02*
X029440D01*
X030930Y018580D02*
X031590D01*
X031250D02*
X031540Y018290D01*
X030960D02*
X031250Y018580D01*
X030737Y018433D02*
X030850Y018320D01*
X030770Y018600D02*
X030940Y018430D01*
X030630Y017400D02*
Y019530D01*
X031760D01*
Y017400D02*
Y019530D01*
X030630Y017400D02*
X031760D01*
X029630Y018580D02*
X030290D01*
X029950D02*
X030240Y018290D01*
X029660D02*
X029950Y018580D01*
X029437Y018433D02*
X029550Y018320D01*
X029470Y018600D02*
X029640Y018430D01*
X029330Y017400D02*
Y019530D01*
X030460D01*
Y017400D02*
Y019530D01*
X029330Y017400D02*
X030460D01*
X028330Y018580D02*
X028990D01*
X028650D02*
X028940Y018290D01*
X028360D02*
X028650Y018580D01*
X028137Y018433D02*
X028250Y018320D01*
X028170Y018600D02*
X028340Y018430D01*
X028030Y017400D02*
Y019530D01*
X029160D01*
Y017400D02*
Y019530D01*
X028030Y017400D02*
X029160D01*
X027030Y018580D02*
X027690D01*
X027350D02*
X027640Y018290D01*
X027060D02*
X027350Y018580D01*
X026837Y018433D02*
X026950Y018320D01*
X026870Y018600D02*
X027040Y018430D01*
X026730Y017400D02*
Y019530D01*
X027860D01*
Y017400D02*
Y019530D01*
X026730Y017400D02*
X027860D01*
X025730Y018580D02*
X026390D01*
X026050D02*
X026340Y018290D01*
X025760D02*
X026050Y018580D01*
X025537Y018433D02*
X025650Y018320D01*
X025570Y018600D02*
X025740Y018430D01*
X025430Y017400D02*
Y019530D01*
X026560D01*
Y017400D02*
Y019530D01*
X025430Y017400D02*
X026560D01*
X024430Y018580D02*
X025090D01*
X024750D02*
X025040Y018290D01*
X024460D02*
X024750Y018580D01*
X024237Y018433D02*
X024350Y018320D01*
X024270Y018600D02*
X024440Y018430D01*
X024130Y017400D02*
Y019530D01*
X025260D01*
Y017400D02*
Y019530D01*
X024130Y017400D02*
X025260D01*
X023130Y018580D02*
X023790D01*
X023450D02*
X023740Y018290D01*
X023160D02*
X023450Y018580D01*
X022937Y018433D02*
X023050Y018320D01*
X022970Y018600D02*
X023140Y018430D01*
X022830Y017400D02*
Y019530D01*
X023960D01*
Y017400D02*
Y019530D01*
X022830Y017400D02*
X023960D01*
X021830Y018580D02*
X022490D01*
X022150D02*
X022440Y018290D01*
X021860D02*
X022150Y018580D01*
X021637Y018433D02*
X021750Y018320D01*
X021670Y018600D02*
X021840Y018430D01*
X021530Y017400D02*
Y019530D01*
X022660D01*
Y017400D02*
Y019530D01*
X021530Y017400D02*
X022660D01*
X034750Y028000D02*
Y029000D01*
X033950Y028000D02*
Y029000D01*
X035750Y029200D02*
Y030200D01*
X034950Y029200D02*
Y030200D01*
X040700Y030450D02*
Y031450D01*
X041500Y030450D02*
Y031450D01*
X038400Y030450D02*
Y031450D01*
X039200Y030450D02*
Y031450D01*
X039600Y030450D02*
Y031450D01*
X040400Y030450D02*
Y031450D01*
D11*
X038100Y040510D02*
G03*
X038100Y040510I-000080J000000D01*
G01*
D12*
X045800Y030900D02*
G03*
X046300Y030900I000250J000000D01*
G01*
X056300Y044050D02*
G03*
X056800Y044050I000250J000000D01*
G01*
X037889Y014454D02*
G03*
X037889Y014946I000000J000246D01*
G01*
X045650Y041150D02*
G03*
X046150Y041150I000250J000000D01*
G01*
X032700Y014400D02*
G03*
X032700Y014900I000000J000250D01*
G01*
X032900Y027200D02*
G03*
X033400Y027200I000250J000000D01*
G01*
X032000Y039600D02*
G03*
X032500Y039600I000250J000000D01*
G01*
X057150Y030900D02*
Y031400D01*
Y033400D02*
Y033900D01*
X056850Y031400D02*
X057150D01*
X056850D02*
Y033400D01*
X057450D01*
Y031400D02*
Y033400D01*
X057150Y031400D02*
X057450D01*
X056100Y030900D02*
Y031400D01*
Y033400D02*
Y033900D01*
X055800Y031400D02*
X056100D01*
X055800D02*
Y033400D01*
X056400D01*
Y031400D02*
Y033400D01*
X056100Y031400D02*
X056400D01*
X055050Y030900D02*
Y031400D01*
Y033400D02*
Y033900D01*
X054750Y031400D02*
X055050D01*
X054750D02*
Y033400D01*
X055350D01*
Y031400D02*
Y033400D01*
X055050Y031400D02*
X055350D01*
X053950Y030950D02*
Y031450D01*
Y033450D02*
Y033950D01*
X053650Y031450D02*
X053950D01*
X053650D02*
Y033450D01*
X054250D01*
Y031450D02*
Y033450D01*
X053950Y031450D02*
X054250D01*
X057100Y020750D02*
Y021250D01*
Y018250D02*
Y018750D01*
Y020750D02*
X057400D01*
Y018750D02*
Y020750D01*
X056800Y018750D02*
X057400D01*
X056800D02*
Y020750D01*
X057100D01*
X056050D02*
Y021250D01*
Y018250D02*
Y018750D01*
Y020750D02*
X056350D01*
Y018750D02*
Y020750D01*
X055750Y018750D02*
X056350D01*
X055750D02*
Y020750D01*
X056050D01*
X055050D02*
Y021250D01*
Y018250D02*
Y018750D01*
Y020750D02*
X055350D01*
Y018750D02*
Y020750D01*
X054750Y018750D02*
X055350D01*
X054750D02*
Y020750D01*
X055050D01*
X053950D02*
Y021250D01*
Y018250D02*
Y018750D01*
Y020750D02*
X054250D01*
Y018750D02*
Y020750D01*
X053650Y018750D02*
X054250D01*
X053650D02*
Y020750D01*
X053950D01*
X046733Y022900D02*
Y030900D01*
X045367Y022900D02*
X046733D01*
X045367D02*
Y030900D01*
X046300D01*
X045800D02*
X046733D01*
X057371Y042050D02*
Y044050D01*
X055729Y042050D02*
X057371D01*
X055729D02*
Y044050D01*
X056800D01*
X056300D02*
X057371D01*
X047550Y017650D02*
X047850D01*
X047550Y015650D02*
Y017650D01*
Y015650D02*
X048150D01*
Y017650D01*
X047850D02*
X048150D01*
X047850Y015150D02*
Y015650D01*
Y017650D02*
Y018150D01*
X048550Y033250D02*
X049550D01*
X048550Y018000D02*
Y033250D01*
Y017250D02*
Y018000D01*
Y017250D02*
X049550D01*
Y033250D01*
X037889Y014454D02*
Y015344D01*
Y014056D02*
Y014946D01*
Y014056D02*
X043795D01*
Y015344D01*
X037889D02*
X043795D01*
X045650Y041150D02*
X046583D01*
X045217D02*
X046150D01*
X045217Y033150D02*
Y041150D01*
Y033150D02*
X046583D01*
Y041150D01*
X032700Y015471D02*
X034700D01*
Y013829D02*
Y015471D01*
X032700Y013829D02*
X034700D01*
X032700D02*
Y014900D01*
Y014400D02*
Y015471D01*
X032900Y027200D02*
X033833D01*
X032467D02*
X033400D01*
X032467Y019200D02*
Y027200D01*
Y019200D02*
X033833D01*
Y027200D01*
X032000Y039600D02*
X032933D01*
X031567D02*
X032500D01*
X031567Y031600D02*
Y039600D01*
Y031600D02*
X032933D01*
Y039600D01*
D13*
X038414Y046785D02*
G03*
X039088Y046784I000336J-000435D01*
G01*
X039086Y046786D02*
X039250Y046950D01*
Y047350D01*
X038250Y046950D02*
Y047350D01*
Y046950D02*
X038410Y046790D01*
X039250Y047350D02*
X040050D01*
Y046350D02*
Y047350D01*
X037450D02*
X038250D01*
X037450Y046350D02*
Y047350D01*
X036800Y045300D02*
X040700D01*
Y043650D02*
Y045300D01*
X036800Y043650D02*
X040700D01*
X036800D02*
Y045300D01*
X041500Y043100D02*
Y045450D01*
X036000D02*
X041500D01*
X036000Y043100D02*
Y045450D01*
X035750Y043100D02*
X036000D01*
X035750D02*
Y047350D01*
X036000D01*
Y046350D02*
Y047350D01*
Y046350D02*
X036450D01*
Y047350D01*
X037050D01*
Y046350D02*
Y047350D01*
Y046350D02*
X037450D01*
X041500Y043100D02*
X041750D01*
Y047350D01*
X041500D02*
X041750D01*
X041500Y046350D02*
Y047350D01*
X041050Y046350D02*
X041500D01*
X041050D02*
Y047350D01*
X040450D02*
X041050D01*
X040450Y046350D02*
Y047350D01*
X040050Y046350D02*
X040450D01*
D14*
X045942Y043814D02*
G03*
X044758Y043814I-000592J000986D01*
G01*
X045805Y044675D02*
X045990Y044490D01*
Y044620D01*
X046140Y044470D01*
X046145D01*
X045020Y044700D02*
X045640D01*
X044758Y043814D02*
X045942D01*
X046225Y044710D02*
Y044715D01*
X046080Y044860D02*
X046225Y044715D01*
X046080Y044740D02*
Y044860D01*
X045875Y044945D02*
X046080Y044740D01*
D15*
X029240Y024900D02*
G03*
X029240Y024900I-000990J000000D01*
G01*
X052550Y044500D02*
G03*
X053000Y044050I000450J000000D01*
G01*
X053250D02*
G03*
X053750Y044450I000050J000450D01*
G01*
D02*
G03*
X053350Y044950I-000450J000050D01*
G01*
X053000D02*
G03*
X052550Y044500I000000J-000450D01*
G01*
X033950Y044450D02*
G03*
X033500Y044900I-000450J000000D01*
G01*
X033250D02*
G03*
X032750Y044500I-000050J-000450D01*
G01*
D02*
G03*
X033150Y044000I000450J-000050D01*
G01*
X033500D02*
G03*
X033950Y044450I000000J000450D01*
G01*
X024830Y024550D02*
X024990D01*
Y022200D02*
Y024550D01*
X021740D02*
X024830D01*
X021740Y022200D02*
X024990D01*
X021740D02*
Y024550D01*
X021840Y028810D02*
Y031160D01*
Y028810D02*
X025090D01*
X021840Y031160D02*
X024930D01*
X025090Y028810D02*
Y031160D01*
X024930D02*
X025090D01*
X021780Y032470D02*
Y034820D01*
Y032470D02*
X025030D01*
X021780Y034820D02*
X024870D01*
X025030Y032470D02*
Y034820D01*
X024870D02*
X025030D01*
X021830Y036070D02*
Y038420D01*
Y036070D02*
X025080D01*
X021830Y038420D02*
X024920D01*
X025080Y036070D02*
Y038420D01*
X024920D02*
X025080D01*
X025110Y039730D02*
Y042080D01*
X021860D02*
X025110D01*
X022020Y039730D02*
X025110D01*
X021860D02*
Y042080D01*
Y039730D02*
X022020D01*
X053150Y042100D02*
Y042550D01*
X052900Y042330D02*
X053400D01*
X052850Y044050D02*
X053350D01*
X053000Y044950D02*
X053350D01*
X052900Y044000D02*
Y044050D01*
X051500Y044000D02*
X054800D01*
X033350Y046400D02*
Y046850D01*
X033100Y046620D02*
X033600D01*
X033150Y044900D02*
X033650D01*
X033150Y044000D02*
X033500D01*
X033600Y044900D02*
Y044950D01*
X031700D02*
X035000D01*
X049050Y040900D02*
X048950Y041000D01*
X048750D01*
X048650Y040900D01*
Y040500D01*
X048750Y040400D01*
X048950D01*
X049050Y040500D01*
X049250Y040900D02*
X049350Y041000D01*
X049550D01*
X049650Y040900D01*
Y040800D01*
X049550Y040700D01*
X049450D01*
X049550D01*
X049650Y040600D01*
Y040500D01*
X049550Y040400D01*
X049350D01*
X049250Y040500D01*
X035850Y040667D02*
Y040800D01*
Y040733D01*
X036250D01*
Y040667D01*
Y040800D01*
X035917Y041267D02*
X035850Y041200D01*
Y041067D01*
X035917Y041000D01*
X036183D01*
X036250Y041067D01*
Y041200D01*
X036183Y041267D01*
X036250Y041400D02*
Y041533D01*
Y041467D01*
X035850D01*
X035917Y041400D01*
X031150Y042900D02*
Y042300D01*
X031450D01*
X031550Y042400D01*
Y042800D01*
X031450Y042900D01*
X031150D01*
X031750Y042300D02*
X031950D01*
X031850D01*
Y042900D01*
X031750Y042800D01*
X024250Y046000D02*
Y045800D01*
Y045900D01*
X024750D01*
X024850Y045800D01*
Y045700D01*
X024750Y045600D01*
X024250Y046200D02*
X024850D01*
Y046500D01*
X024750Y046600D01*
X024350D01*
X024250Y046500D01*
Y046200D01*
X024350Y047200D02*
X024250Y047100D01*
Y046900D01*
X024350Y046800D01*
X024750D01*
X024850Y046900D01*
Y047100D01*
X024750Y047200D01*
X044550Y019700D02*
X044417D01*
X044483D01*
Y019367D01*
X044417Y019300D01*
X044350D01*
X044283Y019367D01*
X044683Y019300D02*
X044817D01*
X044750D01*
Y019700D01*
X044683Y019633D01*
X045583Y017050D02*
X045450D01*
X045517D01*
Y016717D01*
X045450Y016650D01*
X045383D01*
X045317Y016717D01*
X045983Y016650D02*
X045717D01*
X045983Y016917D01*
Y016983D01*
X045917Y017050D01*
X045783D01*
X045717Y016983D01*
X031583Y027450D02*
X031450D01*
X031517D01*
Y027117D01*
X031450Y027050D01*
X031383D01*
X031317Y027117D01*
X031983Y027450D02*
X031717D01*
Y027250D01*
X031850Y027317D01*
X031917D01*
X031983Y027250D01*
Y027117D01*
X031917Y027050D01*
X031783D01*
X031717Y027117D01*
X039733Y024850D02*
Y024783D01*
X039867Y024650D01*
X040000Y024783D01*
Y024850D01*
X039867Y024650D02*
Y024450D01*
X040133D02*
X040267D01*
X040200D01*
Y024850D01*
X040133Y024783D01*
X057300Y034867D02*
X056900D01*
Y035067D01*
X056967Y035133D01*
X057100D01*
X057167Y035067D01*
Y034867D01*
Y035000D02*
X057300Y035133D01*
X056900Y035267D02*
Y035533D01*
X056967D01*
X057233Y035267D01*
X057300D01*
X056250Y034867D02*
X055850D01*
Y035067D01*
X055917Y035133D01*
X056050D01*
X056117Y035067D01*
Y034867D01*
Y035000D02*
X056250Y035133D01*
X055850Y035533D02*
X055917Y035400D01*
X056050Y035267D01*
X056183D01*
X056250Y035333D01*
Y035467D01*
X056183Y035533D01*
X056117D01*
X056050Y035467D01*
Y035267D01*
X055200Y034867D02*
X054800D01*
Y035067D01*
X054867Y035133D01*
X055000D01*
X055067Y035067D01*
Y034867D01*
Y035000D02*
X055200Y035133D01*
Y035267D02*
Y035400D01*
Y035333D01*
X054800D01*
X054867Y035267D01*
X055200Y035600D02*
Y035733D01*
Y035667D01*
X054800D01*
X054867Y035600D01*
X054000Y034800D02*
X053600D01*
Y035000D01*
X053667Y035067D01*
X053800D01*
X053867Y035000D01*
Y034800D01*
Y034933D02*
X054000Y035067D01*
Y035200D02*
Y035333D01*
Y035267D01*
X053600D01*
X053667Y035200D01*
X054000Y035800D02*
Y035533D01*
X053733Y035800D01*
X053667D01*
X053600Y035733D01*
Y035600D01*
X053667Y035533D01*
X052150Y027100D02*
X052750D01*
Y027400D01*
X052650Y027500D01*
X052250D01*
X052150Y027400D01*
Y027100D01*
X052250Y028100D02*
X052150Y028000D01*
Y027800D01*
X052250Y027700D01*
X052350D01*
X052450Y027800D01*
Y028000D01*
X052550Y028100D01*
X052650D01*
X052750Y028000D01*
Y027800D01*
X052650Y027700D01*
X052750Y028300D02*
Y028500D01*
Y028400D01*
X052150D01*
X052250Y028300D01*
X057350Y016500D02*
X056950D01*
Y016700D01*
X057017Y016767D01*
X057150D01*
X057217Y016700D01*
Y016500D01*
Y016633D02*
X057350Y016767D01*
Y016900D02*
Y017033D01*
Y016967D01*
X056950D01*
X057017Y016900D01*
Y017233D02*
X056950Y017300D01*
Y017433D01*
X057017Y017500D01*
X057083D01*
X057150Y017433D01*
Y017367D01*
Y017433D01*
X057217Y017500D01*
X057283D01*
X057350Y017433D01*
Y017300D01*
X057283Y017233D01*
X056250Y016517D02*
X055850D01*
Y016717D01*
X055917Y016783D01*
X056050D01*
X056117Y016717D01*
Y016517D01*
Y016650D02*
X056250Y016783D01*
X055917Y016917D02*
X055850Y016983D01*
Y017117D01*
X055917Y017183D01*
X055983D01*
X056050Y017117D01*
X056117Y017183D01*
X056183D01*
X056250Y017117D01*
Y016983D01*
X056183Y016917D01*
X056117D01*
X056050Y016983D01*
X055983Y016917D01*
X055917D01*
X056050Y016983D02*
Y017117D01*
X055300Y016517D02*
X054900D01*
Y016717D01*
X054967Y016783D01*
X055100D01*
X055167Y016717D01*
Y016517D01*
Y016650D02*
X055300Y016783D01*
X055233Y016917D02*
X055300Y016983D01*
Y017117D01*
X055233Y017183D01*
X054967D01*
X054900Y017117D01*
Y016983D01*
X054967Y016917D01*
X055033D01*
X055100Y016983D01*
Y017183D01*
X054200Y016500D02*
X053800D01*
Y016700D01*
X053867Y016767D01*
X054000D01*
X054067Y016700D01*
Y016500D01*
Y016633D02*
X054200Y016767D01*
Y016900D02*
Y017033D01*
Y016967D01*
X053800D01*
X053867Y016900D01*
Y017233D02*
X053800Y017300D01*
Y017433D01*
X053867Y017500D01*
X054133D01*
X054200Y017433D01*
Y017300D01*
X054133Y017233D01*
X053867D01*
X022750Y021850D02*
X022650Y021950D01*
X022450D01*
X022350Y021850D01*
Y021750D01*
X022450Y021650D01*
X022650D01*
X022750Y021550D01*
Y021450D01*
X022650Y021350D01*
X022450D01*
X022350Y021450D01*
X022950Y021950D02*
Y021350D01*
X023150Y021550D01*
X023350Y021350D01*
Y021950D01*
X023950D02*
X023550D01*
Y021650D01*
X023750Y021750D01*
X023850D01*
X023950Y021650D01*
Y021450D01*
X023850Y021350D01*
X023650D01*
X023550Y021450D01*
X037950Y036700D02*
Y036150D01*
Y036425D01*
X038317D01*
Y036700D01*
Y036150D01*
X038500Y036700D02*
Y036242D01*
X038591Y036150D01*
X038775D01*
X038866Y036242D01*
Y036700D01*
X039416Y036608D02*
X039325Y036700D01*
X039141D01*
X039050Y036608D01*
Y036517D01*
X039141Y036425D01*
X039325D01*
X039416Y036333D01*
Y036242D01*
X039325Y036150D01*
X039141D01*
X039050Y036242D01*
X039599Y036700D02*
X039966D01*
X039783D01*
Y036150D01*
X040149Y036425D02*
X040516D01*
X040699Y036700D02*
Y036150D01*
Y036333D01*
X041066Y036700D01*
X040791Y036425D01*
X041066Y036150D01*
X041615Y036700D02*
X041432Y036608D01*
X041249Y036425D01*
Y036242D01*
X041341Y036150D01*
X041524D01*
X041615Y036242D01*
Y036333D01*
X041524Y036425D01*
X041249D01*
X042165Y036700D02*
X041799D01*
Y036425D01*
X041982Y036517D01*
X042074D01*
X042165Y036425D01*
Y036242D01*
X042074Y036150D01*
X041890D01*
X041799Y036242D01*
X039300Y037750D02*
X039200Y037850D01*
X039000D01*
X038900Y037750D01*
Y037650D01*
X039000Y037550D01*
X039200D01*
X039300Y037450D01*
Y037350D01*
X039200Y037250D01*
X039000D01*
X038900Y037350D01*
X039900Y037850D02*
X039500D01*
Y037250D01*
X039900D01*
X039500Y037550D02*
X039700D01*
X040100Y037850D02*
X040499D01*
X040300D01*
Y037250D01*
X037700Y042550D02*
Y041950D01*
Y042250D01*
X038100D01*
Y042550D01*
Y041950D01*
X038400D02*
X038600D01*
X038700Y042050D01*
Y042250D01*
X038600Y042350D01*
X038400D01*
X038300Y042250D01*
Y042050D01*
X038400Y041950D01*
X039000Y042350D02*
X039200D01*
X039299Y042250D01*
Y041950D01*
X039000D01*
X038900Y042050D01*
X039000Y042150D01*
X039299D01*
X039499Y041950D02*
Y042350D01*
X039799D01*
X039899Y042250D01*
Y041950D01*
X040099Y042550D02*
Y041950D01*
X040399D01*
X040499Y042050D01*
Y042150D01*
X040399Y042250D01*
X040099D01*
X040399D01*
X040499Y042350D01*
Y042450D01*
X040399Y042550D01*
X040099D01*
X040699D02*
Y041950D01*
Y042150D01*
X041099Y042550D01*
X040799Y042250D01*
X041099Y041950D01*
X041299D02*
Y042350D01*
X041499Y042550D01*
X041699Y042350D01*
Y041950D01*
Y042250D01*
X041299D01*
X026200Y041400D02*
X026300Y041300D01*
X026500D01*
X026600Y041400D01*
Y041800D01*
X026500Y041900D01*
X026300D01*
X026200Y041800D01*
Y041700D01*
X026300Y041600D01*
X026600D01*
X026800D02*
X027200D01*
X027400Y041300D02*
X027600D01*
X027500D01*
Y041900D01*
X027400Y041800D01*
X028299Y041300D02*
X027899D01*
X028299Y041700D01*
Y041800D01*
X028199Y041900D01*
X027999D01*
X027899Y041800D01*
X028499Y041900D02*
Y041500D01*
X028699Y041300D01*
X028899Y041500D01*
Y041900D01*
X028795Y028707D02*
Y028907D01*
Y028807D01*
X028195D01*
X028295Y028707D01*
X027600Y028850D02*
Y028450D01*
X027200Y028850D01*
X027100D01*
X027000Y028750D01*
Y028550D01*
X027100Y028450D01*
X028640Y034410D02*
X028740Y034510D01*
Y034710D01*
X028640Y034810D01*
X028240D01*
X028140Y034710D01*
Y034510D01*
X028240Y034410D01*
X028340D01*
X028440Y034510D01*
Y034810D01*
X027790Y034360D02*
Y034560D01*
Y034460D01*
X027190D01*
X027290Y034360D01*
Y034860D02*
X027190Y034960D01*
Y035160D01*
X027290Y035260D01*
X027690D01*
X027790Y035160D01*
Y034960D01*
X027690Y034860D01*
X027290D01*
X028816Y025450D02*
Y025135D01*
X028974Y025293D02*
X028659D01*
X056190Y044990D02*
X055990D01*
X056090D01*
Y044490D01*
X055990Y044390D01*
X055890D01*
X055790Y044490D01*
X056390Y044390D02*
Y044990D01*
X056690D01*
X056790Y044890D01*
Y044690D01*
X056690Y044590D01*
X056390D01*
X057389Y044990D02*
X057190Y044890D01*
X056990Y044690D01*
Y044490D01*
X057090Y044390D01*
X057290D01*
X057389Y044490D01*
Y044590D01*
X057290Y044690D01*
X056990D01*
X033160Y016410D02*
X032960D01*
X033060D01*
Y015910D01*
X032960Y015810D01*
X032860D01*
X032760Y015910D01*
X033360Y015810D02*
Y016410D01*
X033660D01*
X033760Y016310D01*
Y016110D01*
X033660Y016010D01*
X033360D01*
X033960Y015810D02*
X034160D01*
X034060D01*
Y016410D01*
X033960Y016310D01*
X047130Y047820D02*
Y047420D01*
X047330Y047220D01*
X047530Y047420D01*
Y047820D01*
X047730Y047220D02*
Y047820D01*
X048030D01*
X048130Y047720D01*
Y047520D01*
X048030Y047420D01*
X047730D01*
X047930D02*
X048130Y047220D01*
X048330D02*
X048530D01*
X048430D01*
Y047820D01*
X048330Y047720D01*
X035790Y048480D02*
Y047980D01*
X035890Y047880D01*
X036090D01*
X036190Y047980D01*
Y048480D01*
X036390Y047880D02*
X036590D01*
X036490D01*
Y048480D01*
X036390Y048380D01*
X022290Y032050D02*
X022190Y032150D01*
X021990D01*
X021890Y032050D01*
Y031950D01*
X021990Y031850D01*
X022190D01*
X022290Y031750D01*
Y031650D01*
X022190Y031550D01*
X021990D01*
X021890Y031650D01*
X022490Y032150D02*
Y031550D01*
X022690Y031750D01*
X022890Y031550D01*
Y032150D01*
X023390Y031550D02*
Y032150D01*
X023090Y031850D01*
X023489D01*
X022230Y035710D02*
X022130Y035810D01*
X021930D01*
X021830Y035710D01*
Y035610D01*
X021930Y035510D01*
X022130D01*
X022230Y035410D01*
Y035310D01*
X022130Y035210D01*
X021930D01*
X021830Y035310D01*
X022430Y035810D02*
Y035210D01*
X022630Y035410D01*
X022830Y035210D01*
Y035810D01*
X023030Y035710D02*
X023130Y035810D01*
X023330D01*
X023429Y035710D01*
Y035610D01*
X023330Y035510D01*
X023230D01*
X023330D01*
X023429Y035410D01*
Y035310D01*
X023330Y035210D01*
X023130D01*
X023030Y035310D01*
X022280Y039310D02*
X022180Y039410D01*
X021980D01*
X021880Y039310D01*
Y039210D01*
X021980Y039110D01*
X022180D01*
X022280Y039010D01*
Y038910D01*
X022180Y038810D01*
X021980D01*
X021880Y038910D01*
X022480Y039410D02*
Y038810D01*
X022680Y039010D01*
X022880Y038810D01*
Y039410D01*
X023479Y038810D02*
X023080D01*
X023479Y039210D01*
Y039310D01*
X023380Y039410D01*
X023180D01*
X023080Y039310D01*
X022300Y042990D02*
X022200Y043090D01*
X022000D01*
X021900Y042990D01*
Y042890D01*
X022000Y042790D01*
X022200D01*
X022300Y042690D01*
Y042590D01*
X022200Y042490D01*
X022000D01*
X021900Y042590D01*
X022500Y043090D02*
Y042490D01*
X022700Y042690D01*
X022900Y042490D01*
Y043090D01*
X023100Y042490D02*
X023300D01*
X023200D01*
Y043090D01*
X023100Y042990D01*
X039910Y020300D02*
Y020900D01*
X040210D01*
X040310Y020800D01*
Y020600D01*
X040210Y020500D01*
X039910D01*
X040110D02*
X040310Y020300D01*
X040510D02*
X040710D01*
X040610D01*
Y020900D01*
X040510Y020800D01*
X041410Y020900D02*
X041010D01*
Y020600D01*
X041210Y020700D01*
X041310D01*
X041410Y020600D01*
Y020400D01*
X041310Y020300D01*
X041110D01*
X041010Y020400D01*
X038810Y020300D02*
Y020900D01*
X039110D01*
X039210Y020800D01*
Y020600D01*
X039110Y020500D01*
X038810D01*
X039010D02*
X039210Y020300D01*
X039410D02*
X039610D01*
X039510D01*
Y020900D01*
X039410Y020800D01*
X040210Y020300D02*
Y020900D01*
X039910Y020600D01*
X040310D01*
X021750Y026520D02*
Y027120D01*
X022050D01*
X022150Y027020D01*
Y026820D01*
X022050Y026720D01*
X021750D01*
X021950D02*
X022150Y026520D01*
X022750Y027120D02*
X022350D01*
Y026820D01*
X022550Y026920D01*
X022650D01*
X022750Y026820D01*
Y026620D01*
X022650Y026520D01*
X022450D01*
X022350Y026620D01*
X034020Y040440D02*
Y041040D01*
X034320D01*
X034420Y040940D01*
Y040740D01*
X034320Y040640D01*
X034020D01*
X034220D02*
X034420Y040440D01*
X034920D02*
Y041040D01*
X034620Y040740D01*
X035020D01*
X047610Y019040D02*
Y019640D01*
X047910D01*
X048010Y019540D01*
Y019340D01*
X047910Y019240D01*
X047610D01*
X047810D02*
X048010Y019040D01*
X048210Y019540D02*
X048310Y019640D01*
X048510D01*
X048610Y019540D01*
Y019440D01*
X048510Y019340D01*
X048410D01*
X048510D01*
X048610Y019240D01*
Y019140D01*
X048510Y019040D01*
X048310D01*
X048210Y019140D01*
X042680Y047900D02*
Y048500D01*
X042980D01*
X043080Y048400D01*
Y048200D01*
X042980Y048100D01*
X042680D01*
X042880D02*
X043080Y047900D01*
X043680D02*
X043280D01*
X043680Y048300D01*
Y048400D01*
X043580Y048500D01*
X043380D01*
X043280Y048400D01*
X022160Y015580D02*
Y016180D01*
X022460D01*
X022560Y016080D01*
Y015880D01*
X022460Y015780D01*
X022160D01*
X022360D02*
X022560Y015580D01*
X022760D02*
X022960D01*
X022860D01*
Y016180D01*
X022760Y016080D01*
X048610Y033590D02*
Y034190D01*
X048910D01*
X049010Y034090D01*
Y033890D01*
X048910Y033790D01*
X048610D01*
X049610Y033590D02*
X049210D01*
X049610Y033990D01*
Y034090D01*
X049510Y034190D01*
X049310D01*
X049210Y034090D01*
X026290Y036160D02*
Y036760D01*
X026590D01*
X026690Y036660D01*
Y036460D01*
X026590Y036360D01*
X026290D01*
X026890Y036160D02*
X027090D01*
X026990D01*
Y036760D01*
X026890Y036660D01*
X030700Y020460D02*
Y019860D01*
X031100D01*
X031300Y019960D02*
X031400Y019860D01*
X031600D01*
X031700Y019960D01*
Y020360D01*
X031600Y020460D01*
X031400D01*
X031300Y020360D01*
Y020260D01*
X031400Y020160D01*
X031700D01*
X029400Y020460D02*
Y019860D01*
X029800D01*
X030000Y020360D02*
X030100Y020460D01*
X030300D01*
X030400Y020360D01*
Y020260D01*
X030300Y020160D01*
X030400Y020060D01*
Y019960D01*
X030300Y019860D01*
X030100D01*
X030000Y019960D01*
Y020060D01*
X030100Y020160D01*
X030000Y020260D01*
Y020360D01*
X030100Y020160D02*
X030300D01*
X028100Y020460D02*
Y019860D01*
X028500D01*
X028700Y020460D02*
X029100D01*
Y020360D01*
X028700Y019960D01*
Y019860D01*
X044240Y046710D02*
Y046310D01*
X044507D01*
X044906Y046710D02*
X044773Y046643D01*
X044640Y046510D01*
Y046377D01*
X044707Y046310D01*
X044840D01*
X044906Y046377D01*
Y046443D01*
X044840Y046510D01*
X044640D01*
X026800Y020460D02*
Y019860D01*
X027200D01*
X027800Y020460D02*
X027400D01*
Y020160D01*
X027600Y020260D01*
X027700D01*
X027800Y020160D01*
Y019960D01*
X027700Y019860D01*
X027500D01*
X027400Y019960D01*
X025500Y020460D02*
Y019860D01*
X025900D01*
X026400D02*
Y020460D01*
X026100Y020160D01*
X026500D01*
X024200Y020460D02*
Y019860D01*
X024600D01*
X024800Y020360D02*
X024900Y020460D01*
X025100D01*
X025200Y020360D01*
Y020260D01*
X025100Y020160D01*
X025000D01*
X025100D01*
X025200Y020060D01*
Y019960D01*
X025100Y019860D01*
X024900D01*
X024800Y019960D01*
X022900Y020460D02*
Y019860D01*
X023300D01*
X023900D02*
X023500D01*
X023900Y020260D01*
Y020360D01*
X023800Y020460D01*
X023600D01*
X023500Y020360D01*
X021600Y020460D02*
Y019860D01*
X022000D01*
X022200D02*
X022400D01*
X022300D01*
Y020460D01*
X022200Y020360D01*
X038350Y016280D02*
X038150D01*
X038250D01*
Y015780D01*
X038150Y015680D01*
X038050D01*
X037950Y015780D01*
X038550Y015680D02*
Y016280D01*
X038850D01*
X038950Y016180D01*
Y015980D01*
X038850Y015880D01*
X038550D01*
X039150Y016280D02*
X039549D01*
Y016180D01*
X039150Y015780D01*
Y015680D01*
X032797Y027940D02*
X032663D01*
X032730D01*
Y027607D01*
X032663Y027540D01*
X032597D01*
X032530Y027607D01*
X032930Y027540D02*
Y027940D01*
X033130D01*
X033196Y027873D01*
Y027740D01*
X033130Y027673D01*
X032930D01*
X033596Y027940D02*
X033330D01*
Y027740D01*
X033463Y027807D01*
X033530D01*
X033596Y027740D01*
Y027607D01*
X033530Y027540D01*
X033396D01*
X033330Y027607D01*
X045830Y031840D02*
X045630D01*
X045730D01*
Y031340D01*
X045630Y031240D01*
X045530D01*
X045430Y031340D01*
X046030Y031240D02*
Y031840D01*
X046330D01*
X046430Y031740D01*
Y031540D01*
X046330Y031440D01*
X046030D01*
X046930Y031240D02*
Y031840D01*
X046630Y031540D01*
X047029D01*
X045680Y042090D02*
X045480D01*
X045580D01*
Y041590D01*
X045480Y041490D01*
X045380D01*
X045280Y041590D01*
X045880Y041490D02*
Y042090D01*
X046180D01*
X046280Y041990D01*
Y041790D01*
X046180Y041690D01*
X045880D01*
X046480Y041990D02*
X046580Y042090D01*
X046780D01*
X046879Y041990D01*
Y041890D01*
X046780Y041790D01*
X046680D01*
X046780D01*
X046879Y041690D01*
Y041590D01*
X046780Y041490D01*
X046580D01*
X046480Y041590D01*
X032030Y040540D02*
X031830D01*
X031930D01*
Y040040D01*
X031830Y039940D01*
X031730D01*
X031630Y040040D01*
X032230Y039940D02*
Y040540D01*
X032530D01*
X032630Y040440D01*
Y040240D01*
X032530Y040140D01*
X032230D01*
X033229Y039940D02*
X032830D01*
X033229Y040340D01*
Y040440D01*
X033130Y040540D01*
X032930D01*
X032830Y040440D01*
X031683Y028800D02*
X031550D01*
X031617D01*
Y028467D01*
X031550Y028400D01*
X031483D01*
X031417Y028467D01*
X032083Y028800D02*
X031950Y028733D01*
X031817Y028600D01*
Y028467D01*
X031883Y028400D01*
X032017D01*
X032083Y028467D01*
Y028533D01*
X032017Y028600D01*
X031817D01*
X030660Y033090D02*
X030460D01*
X030560D01*
Y032590D01*
X030460Y032490D01*
X030360D01*
X030260Y032590D01*
X031160Y032490D02*
Y033090D01*
X030860Y032790D01*
X031260D01*
X030710Y035290D02*
X030510D01*
X030610D01*
Y034790D01*
X030510Y034690D01*
X030410D01*
X030310Y034790D01*
X030910Y035190D02*
X031010Y035290D01*
X031210D01*
X031310Y035190D01*
Y035090D01*
X031210Y034990D01*
X031110D01*
X031210D01*
X031310Y034890D01*
Y034790D01*
X031210Y034690D01*
X031010D01*
X030910Y034790D01*
X034420Y030400D02*
X034320Y030500D01*
X034120D01*
X034020Y030400D01*
Y030000D01*
X034120Y029900D01*
X034320D01*
X034420Y030000D01*
X034620D02*
X034720Y029900D01*
X034920D01*
X035020Y030000D01*
Y030400D01*
X034920Y030500D01*
X034720D01*
X034620Y030400D01*
Y030300D01*
X034720Y030200D01*
X035020D01*
X035420Y031600D02*
X035320Y031700D01*
X035120D01*
X035020Y031600D01*
Y031200D01*
X035120Y031100D01*
X035320D01*
X035420Y031200D01*
X035620Y031600D02*
X035720Y031700D01*
X035920D01*
X036020Y031600D01*
Y031500D01*
X035920Y031400D01*
X036020Y031300D01*
Y031200D01*
X035920Y031100D01*
X035720D01*
X035620Y031200D01*
Y031300D01*
X035720Y031400D01*
X035620Y031500D01*
Y031600D01*
X035720Y031400D02*
X035920D01*
X041027Y032783D02*
X040960Y032850D01*
X040827D01*
X040760Y032783D01*
Y032517D01*
X040827Y032450D01*
X040960D01*
X041027Y032517D01*
X041160Y032850D02*
X041426D01*
Y032783D01*
X041160Y032517D01*
Y032450D01*
X027710Y026740D02*
X027610Y026840D01*
X027410D01*
X027310Y026740D01*
Y026340D01*
X027410Y026240D01*
X027610D01*
X027710Y026340D01*
X028310Y026840D02*
X028110Y026740D01*
X027910Y026540D01*
Y026340D01*
X028010Y026240D01*
X028210D01*
X028310Y026340D01*
Y026440D01*
X028210Y026540D01*
X027910D01*
X038727Y032783D02*
X038660Y032850D01*
X038527D01*
X038460Y032783D01*
Y032517D01*
X038527Y032450D01*
X038660D01*
X038727Y032517D01*
X039126Y032850D02*
X038860D01*
Y032650D01*
X038993Y032717D01*
X039060D01*
X039126Y032650D01*
Y032517D01*
X039060Y032450D01*
X038927D01*
X038860Y032517D01*
X039927Y032783D02*
X039860Y032850D01*
X039727D01*
X039660Y032783D01*
Y032517D01*
X039727Y032450D01*
X039860D01*
X039927Y032517D01*
X040260Y032450D02*
Y032850D01*
X040060Y032650D01*
X040326D01*
X051920Y046280D02*
X051820Y046380D01*
X051620D01*
X051520Y046280D01*
Y045880D01*
X051620Y045780D01*
X051820D01*
X051920Y045880D01*
X052520Y045780D02*
X052120D01*
X052520Y046180D01*
Y046280D01*
X052420Y046380D01*
X052220D01*
X052120Y046280D01*
X032120Y047740D02*
X032020Y047840D01*
X031820D01*
X031720Y047740D01*
Y047340D01*
X031820Y047240D01*
X032020D01*
X032120Y047340D01*
X032320Y047240D02*
X032520D01*
X032420D01*
Y047840D01*
X032320Y047740D01*
D16*
X057310Y023900D02*
D03*
D17*
X053810Y026050D02*
X056460D01*
X053760Y028250D02*
X056460D01*
Y023750D02*
Y028250D01*
X053760Y023750D02*
X056460D01*
X053760D02*
Y028250D01*
D18*
X052960Y029500D02*
X057960D01*
Y022500D02*
Y029500D01*
X052960Y022500D02*
Y029500D01*
Y022500D02*
X057960D01*
D19*
X030450Y046700D02*
D03*
M02*
