G04*
G04 #@! TF.GenerationSoftware,Altium Limited,Altium Designer,21.0.8 (223)*
G04*
G04 Layer_Color=255*
%FSAX24Y24*%
%MOIN*%
G70*
G04*
G04 #@! TF.SameCoordinates,60160E94-E268-4AC3-8077-459848BE01EC*
G04*
G04*
G04 #@! TF.FilePolarity,Positive*
G04*
G01*
G75*
%ADD16C,0.0600*%
%ADD52C,0.0700*%
%ADD53O,0.0900X0.0600*%
%ADD54R,0.0900X0.0600*%
%ADD55C,0.1000*%
%ADD56R,0.1000X0.1000*%
%ADD57R,0.1600X0.1000*%
%ADD58R,0.1000X0.1600*%
%ADD59C,0.0750*%
%ADD60C,0.0591*%
%ADD61R,0.0591X0.0591*%
%ADD62C,0.0709*%
%ADD63R,0.0700X0.0700*%
G04:AMPARAMS|DCode=64|XSize=70mil|YSize=90mil|CornerRadius=0mil|HoleSize=0mil|Usage=FLASHONLY|Rotation=0.000|XOffset=0mil|YOffset=0mil|HoleType=Round|Shape=Octagon|*
%AMOCTAGOND64*
4,1,8,-0.0175,0.0450,0.0175,0.0450,0.0350,0.0275,0.0350,-0.0275,0.0175,-0.0450,-0.0175,-0.0450,-0.0350,-0.0275,-0.0350,0.0275,-0.0175,0.0450,0.0*
%
%ADD64OCTAGOND64*%

%ADD65O,0.1000X0.0600*%
%ADD66R,0.1000X0.0600*%
%ADD67O,0.0600X0.1000*%
%ADD68R,0.0600X0.1000*%
%ADD69R,0.0591X0.0591*%
%ADD70O,0.0787X0.0591*%
%ADD71R,0.0787X0.0591*%
%ADD72O,0.1000X0.0650*%
%ADD73R,0.1000X0.0650*%
%ADD74C,0.0512*%
%ADD75R,0.0700X0.0700*%
%ADD76R,0.0591X0.0512*%
%ADD77O,0.0591X0.0512*%
%ADD78R,0.1000X0.0700*%
%ADD79O,0.1000X0.0700*%
D16*
X039850Y027200D02*
D03*
D52*
X048900Y041900D02*
D03*
X049900D02*
D03*
X046050Y028400D02*
D03*
Y023400D02*
D03*
Y024400D02*
D03*
Y025400D02*
D03*
Y026400D02*
D03*
Y027400D02*
D03*
Y029400D02*
D03*
X056550Y042550D02*
D03*
X040282Y016100D02*
D03*
Y019600D02*
D03*
X039181Y016100D02*
D03*
Y019600D02*
D03*
X025550Y025750D02*
D03*
X022050D02*
D03*
X043050Y043700D02*
D03*
Y047200D02*
D03*
X039366Y014700D02*
D03*
X040350D02*
D03*
X041334D02*
D03*
X042319D02*
D03*
X043303D02*
D03*
X045900Y039650D02*
D03*
Y037650D02*
D03*
Y036650D02*
D03*
Y035650D02*
D03*
Y034650D02*
D03*
Y033650D02*
D03*
Y038650D02*
D03*
X034350Y029000D02*
D03*
Y028000D02*
D03*
X035350Y030200D02*
D03*
Y029200D02*
D03*
X041100Y030450D02*
D03*
Y031450D02*
D03*
X038800Y030450D02*
D03*
Y031450D02*
D03*
X040000Y030450D02*
D03*
Y031450D02*
D03*
X034200Y014650D02*
D03*
X033150Y025700D02*
D03*
Y023700D02*
D03*
Y022700D02*
D03*
Y021700D02*
D03*
Y020700D02*
D03*
Y019700D02*
D03*
Y024700D02*
D03*
X032250Y038100D02*
D03*
Y036100D02*
D03*
Y035100D02*
D03*
Y034100D02*
D03*
Y033100D02*
D03*
Y032100D02*
D03*
Y037100D02*
D03*
D53*
X043000Y021500D02*
D03*
Y022500D02*
D03*
Y023500D02*
D03*
Y024500D02*
D03*
Y025500D02*
D03*
Y026500D02*
D03*
Y027500D02*
D03*
Y028500D02*
D03*
Y029500D02*
D03*
Y030500D02*
D03*
Y031500D02*
D03*
Y032500D02*
D03*
Y033500D02*
D03*
Y034500D02*
D03*
Y035500D02*
D03*
Y036500D02*
D03*
Y037500D02*
D03*
Y038500D02*
D03*
Y039500D02*
D03*
Y040500D02*
D03*
X037000Y021500D02*
D03*
Y022500D02*
D03*
Y023500D02*
D03*
Y024500D02*
D03*
Y025500D02*
D03*
Y026500D02*
D03*
Y027500D02*
D03*
Y028500D02*
D03*
Y029500D02*
D03*
Y030500D02*
D03*
Y031500D02*
D03*
Y032500D02*
D03*
Y033500D02*
D03*
Y034500D02*
D03*
Y035500D02*
D03*
Y036500D02*
D03*
Y037500D02*
D03*
Y038500D02*
D03*
Y039500D02*
D03*
D54*
Y040500D02*
D03*
D55*
X030450Y043300D02*
D03*
X045600Y019550D02*
D03*
Y017850D02*
D03*
X030750Y026850D02*
D03*
Y028550D02*
D03*
X038750Y046350D02*
D03*
X030700Y031650D02*
D03*
X030750Y033850D02*
D03*
D56*
X030450Y047800D02*
D03*
D57*
X027400Y042850D02*
D03*
Y045350D02*
D03*
D58*
X025400Y043850D02*
D03*
D59*
X039850Y026200D02*
D03*
Y028200D02*
D03*
X049900Y043200D02*
D03*
X048900Y045200D02*
D03*
X047900Y043200D02*
D03*
D60*
X057150Y034150D02*
D03*
Y030650D02*
D03*
X056100Y034150D02*
D03*
Y030650D02*
D03*
X055050Y034150D02*
D03*
Y030650D02*
D03*
X053950Y034200D02*
D03*
Y030700D02*
D03*
X057100Y018000D02*
D03*
Y021500D02*
D03*
X056050Y018000D02*
D03*
Y021500D02*
D03*
X055050Y018000D02*
D03*
Y021500D02*
D03*
X053950Y018000D02*
D03*
Y021500D02*
D03*
X047850Y018400D02*
D03*
Y014900D02*
D03*
X049050Y032750D02*
D03*
Y031750D02*
D03*
Y030750D02*
D03*
Y029750D02*
D03*
Y028750D02*
D03*
Y027750D02*
D03*
Y026750D02*
D03*
Y025750D02*
D03*
Y024750D02*
D03*
Y023750D02*
D03*
Y022750D02*
D03*
Y021750D02*
D03*
Y020750D02*
D03*
Y019750D02*
D03*
Y018750D02*
D03*
D61*
X053460Y029000D02*
D03*
X054460D02*
D03*
X055460D02*
D03*
X056460D02*
D03*
X057460D02*
D03*
Y023000D02*
D03*
X056460D02*
D03*
X055460D02*
D03*
X054460D02*
D03*
X053460D02*
D03*
D62*
X024660Y022480D02*
D03*
X024650Y024250D02*
D03*
X022100Y024240D02*
D03*
Y022480D02*
D03*
X022200Y029090D02*
D03*
Y030850D02*
D03*
X024750Y030860D02*
D03*
X024760Y029090D02*
D03*
X022140Y032750D02*
D03*
Y034510D02*
D03*
X024690Y034520D02*
D03*
X024700Y032750D02*
D03*
X022190Y036350D02*
D03*
Y038110D02*
D03*
X024740Y038120D02*
D03*
X024750Y036350D02*
D03*
Y041800D02*
D03*
Y040040D02*
D03*
X022200Y040030D02*
D03*
X022190Y041800D02*
D03*
D63*
X046050Y030400D02*
D03*
X056550Y043550D02*
D03*
X045900Y040650D02*
D03*
X033150Y026700D02*
D03*
X032250Y039100D02*
D03*
D64*
X037750Y044350D02*
D03*
X038750D02*
D03*
X039750D02*
D03*
D65*
X034600Y038550D02*
D03*
Y036550D02*
D03*
Y034550D02*
D03*
Y033550D02*
D03*
Y032550D02*
D03*
Y035550D02*
D03*
Y037550D02*
D03*
Y039550D02*
D03*
D66*
Y031550D02*
D03*
D67*
X023650Y014700D02*
D03*
X025650D02*
D03*
X027650D02*
D03*
X028650D02*
D03*
X029650D02*
D03*
X026650D02*
D03*
X024650D02*
D03*
X022650D02*
D03*
D68*
X030650D02*
D03*
D69*
X049050Y017750D02*
D03*
D70*
X028500Y033800D02*
D03*
Y032800D02*
D03*
Y031800D02*
D03*
Y030800D02*
D03*
X027500Y029800D02*
D03*
Y030800D02*
D03*
Y031800D02*
D03*
Y032800D02*
D03*
Y033800D02*
D03*
D71*
X028500Y029800D02*
D03*
D72*
X031250Y018950D02*
D03*
X029950D02*
D03*
X028650D02*
D03*
X027350D02*
D03*
X026050D02*
D03*
X024750D02*
D03*
X023450D02*
D03*
X022150D02*
D03*
D73*
X031250Y017950D02*
D03*
X029950D02*
D03*
X028650D02*
D03*
X027350D02*
D03*
X026050D02*
D03*
X024750D02*
D03*
X023450D02*
D03*
X022150D02*
D03*
D74*
X045350Y045300D02*
D03*
Y044300D02*
D03*
D75*
X038382Y014700D02*
D03*
X033200Y014650D02*
D03*
D76*
X028250Y025400D02*
D03*
D77*
Y024400D02*
D03*
D78*
X053150Y043000D02*
D03*
X033350Y045950D02*
D03*
D79*
X053150Y044500D02*
D03*
X033350Y044450D02*
D03*
M02*
