G04*
G04 #@! TF.GenerationSoftware,Altium Limited,Altium Designer,21.0.8 (223)*
G04*
G04 Layer_Color=2752767*
%FSAX24Y24*%
%MOIN*%
G70*
G04*
G04 #@! TF.SameCoordinates,60160E94-E268-4AC3-8077-459848BE01EC*
G04*
G04*
G04 #@! TF.FilePolarity,Positive*
G04*
G01*
G75*
%ADD83C,0.0020*%
%ADD84C,0.0027*%
%ADD85C,0.0013*%
D83*
X048820Y041820D02*
Y041980D01*
X048980D01*
Y041820D01*
X048820D01*
X049820D02*
Y041980D01*
X049980D01*
Y041820D01*
X049820D01*
X042920Y021420D02*
Y021580D01*
X043080D01*
Y021420D01*
X042920D01*
Y022420D02*
Y022580D01*
X043080D01*
Y022420D01*
X042920D01*
Y023420D02*
Y023580D01*
X043080D01*
Y023420D01*
X042920D01*
Y024420D02*
Y024580D01*
X043080D01*
Y024420D01*
X042920D01*
Y025420D02*
Y025580D01*
X043080D01*
Y025420D01*
X042920D01*
Y026420D02*
Y026580D01*
X043080D01*
Y026420D01*
X042920D01*
Y027420D02*
Y027580D01*
X043080D01*
Y027420D01*
X042920D01*
Y028420D02*
Y028580D01*
X043080D01*
Y028420D01*
X042920D01*
Y029420D02*
Y029580D01*
X043080D01*
Y029420D01*
X042920D01*
Y030420D02*
Y030580D01*
X043080D01*
Y030420D01*
X042920D01*
Y031420D02*
Y031580D01*
X043080D01*
Y031420D01*
X042920D01*
Y032420D02*
Y032580D01*
X043080D01*
Y032420D01*
X042920D01*
Y033420D02*
Y033580D01*
X043080D01*
Y033420D01*
X042920D01*
Y034420D02*
Y034580D01*
X043080D01*
Y034420D01*
X042920D01*
Y035420D02*
Y035580D01*
X043080D01*
Y035420D01*
X042920D01*
Y036420D02*
Y036580D01*
X043080D01*
Y036420D01*
X042920D01*
Y037420D02*
Y037580D01*
X043080D01*
Y037420D01*
X042920D01*
Y038420D02*
Y038580D01*
X043080D01*
Y038420D01*
X042920D01*
Y039420D02*
Y039580D01*
X043080D01*
Y039420D01*
X042920D01*
Y040420D02*
Y040580D01*
X043080D01*
Y040420D01*
X042920D01*
X036920Y021420D02*
Y021580D01*
X037080D01*
Y021420D01*
X036920D01*
Y022420D02*
Y022580D01*
X037080D01*
Y022420D01*
X036920D01*
Y023420D02*
Y023580D01*
X037080D01*
Y023420D01*
X036920D01*
Y024420D02*
Y024580D01*
X037080D01*
Y024420D01*
X036920D01*
Y025420D02*
Y025580D01*
X037080D01*
Y025420D01*
X036920D01*
Y026420D02*
Y026580D01*
X037080D01*
Y026420D01*
X036920D01*
Y027420D02*
Y027580D01*
X037080D01*
Y027420D01*
X036920D01*
Y028420D02*
Y028580D01*
X037080D01*
Y028420D01*
X036920D01*
Y029420D02*
Y029580D01*
X037080D01*
Y029420D01*
X036920D01*
Y030420D02*
Y030580D01*
X037080D01*
Y030420D01*
X036920D01*
Y031420D02*
Y031580D01*
X037080D01*
Y031420D01*
X036920D01*
Y032420D02*
Y032580D01*
X037080D01*
Y032420D01*
X036920D01*
Y033420D02*
Y033580D01*
X037080D01*
Y033420D01*
X036920D01*
Y034420D02*
Y034580D01*
X037080D01*
Y034420D01*
X036920D01*
Y035420D02*
Y035580D01*
X037080D01*
Y035420D01*
X036920D01*
Y036420D02*
Y036580D01*
X037080D01*
Y036420D01*
X036920D01*
Y037420D02*
Y037580D01*
X037080D01*
Y037420D01*
X036920D01*
Y038420D02*
Y038580D01*
X037080D01*
Y038420D01*
X036920D01*
Y039420D02*
Y039580D01*
X037080D01*
Y039420D01*
X036920D01*
Y040420D02*
Y040580D01*
X037080D01*
Y040420D01*
X036920D01*
X027400Y042770D02*
X027320Y042930D01*
X027480D01*
X027400Y042770D01*
Y045270D02*
X027320Y045430D01*
X027480D01*
X027400Y045270D01*
X025400Y043770D02*
X025320Y043930D01*
X025480D01*
X025400Y043770D01*
X045600Y019470D02*
X045640Y019510D01*
X045680D01*
X045640Y019550D01*
X045680Y019590D01*
X045640D01*
X045600Y019630D01*
X045560Y019590D01*
X045520D01*
X045560Y019550D01*
X045520Y019510D01*
X045560D01*
X045600Y019470D01*
Y017770D02*
X045640Y017810D01*
X045680D01*
X045640Y017850D01*
X045680Y017890D01*
X045640D01*
X045600Y017930D01*
X045560Y017890D01*
X045520D01*
X045560Y017850D01*
X045520Y017810D01*
X045560D01*
X045600Y017770D01*
X030750Y026770D02*
X030790Y026810D01*
X030830D01*
X030790Y026850D01*
X030830Y026890D01*
X030790D01*
X030750Y026930D01*
X030710Y026890D01*
X030670D01*
X030710Y026850D01*
X030670Y026810D01*
X030710D01*
X030750Y026770D01*
X039850Y026120D02*
X039890Y026160D01*
X039930D01*
X039890Y026200D01*
X039930Y026240D01*
X039890D01*
X039850Y026280D01*
X039810Y026240D01*
X039770D01*
X039810Y026200D01*
X039770Y026160D01*
X039810D01*
X039850Y026120D01*
Y028120D02*
X039890Y028160D01*
X039930D01*
X039890Y028200D01*
X039930Y028240D01*
X039890D01*
X039850Y028280D01*
X039810Y028240D01*
X039770D01*
X039810Y028200D01*
X039770Y028160D01*
X039810D01*
X039850Y028120D01*
Y027120D02*
X039890Y027160D01*
X039930D01*
X039890Y027200D01*
X039930Y027240D01*
X039890D01*
X039850Y027280D01*
X039810Y027240D01*
X039770D01*
X039810Y027200D01*
X039770Y027160D01*
X039810D01*
X039850Y027120D01*
X057070Y034070D02*
X057110Y034150D01*
X057070Y034230D01*
X057150Y034190D01*
X057230Y034230D01*
X057190Y034150D01*
X057230Y034070D01*
X057150Y034110D01*
X057070Y034070D01*
Y030570D02*
X057110Y030650D01*
X057070Y030730D01*
X057150Y030690D01*
X057230Y030730D01*
X057190Y030650D01*
X057230Y030570D01*
X057150Y030610D01*
X057070Y030570D01*
X056020Y034070D02*
X056060Y034150D01*
X056020Y034230D01*
X056100Y034190D01*
X056180Y034230D01*
X056140Y034150D01*
X056180Y034070D01*
X056100Y034110D01*
X056020Y034070D01*
Y030570D02*
X056060Y030650D01*
X056020Y030730D01*
X056100Y030690D01*
X056180Y030730D01*
X056140Y030650D01*
X056180Y030570D01*
X056100Y030610D01*
X056020Y030570D01*
X054970Y034070D02*
X055010Y034150D01*
X054970Y034230D01*
X055050Y034190D01*
X055130Y034230D01*
X055090Y034150D01*
X055130Y034070D01*
X055050Y034110D01*
X054970Y034070D01*
Y030570D02*
X055010Y030650D01*
X054970Y030730D01*
X055050Y030690D01*
X055130Y030730D01*
X055090Y030650D01*
X055130Y030570D01*
X055050Y030610D01*
X054970Y030570D01*
X053870Y034120D02*
X053910Y034200D01*
X053870Y034280D01*
X053950Y034240D01*
X054030Y034280D01*
X053990Y034200D01*
X054030Y034120D01*
X053950Y034160D01*
X053870Y034120D01*
Y030620D02*
X053910Y030700D01*
X053870Y030780D01*
X053950Y030740D01*
X054030Y030780D01*
X053990Y030700D01*
X054030Y030620D01*
X053950Y030660D01*
X053870Y030620D01*
X053460Y028920D02*
X053500Y028960D01*
X053540D01*
X053500Y029000D01*
X053540Y029040D01*
X053500D01*
X053460Y029080D01*
X053420Y029040D01*
X053380D01*
X053420Y029000D01*
X053380Y028960D01*
X053420D01*
X053460Y028920D01*
X054460D02*
X054500Y028960D01*
X054540D01*
X054500Y029000D01*
X054540Y029040D01*
X054500D01*
X054460Y029080D01*
X054420Y029040D01*
X054380D01*
X054420Y029000D01*
X054380Y028960D01*
X054420D01*
X054460Y028920D01*
X055460D02*
X055500Y028960D01*
X055540D01*
X055500Y029000D01*
X055540Y029040D01*
X055500D01*
X055460Y029080D01*
X055420Y029040D01*
X055380D01*
X055420Y029000D01*
X055380Y028960D01*
X055420D01*
X055460Y028920D01*
X056460D02*
X056500Y028960D01*
X056540D01*
X056500Y029000D01*
X056540Y029040D01*
X056500D01*
X056460Y029080D01*
X056420Y029040D01*
X056380D01*
X056420Y029000D01*
X056380Y028960D01*
X056420D01*
X056460Y028920D01*
X057460D02*
X057500Y028960D01*
X057540D01*
X057500Y029000D01*
X057540Y029040D01*
X057500D01*
X057460Y029080D01*
X057420Y029040D01*
X057380D01*
X057420Y029000D01*
X057380Y028960D01*
X057420D01*
X057460Y028920D01*
Y022920D02*
X057500Y022960D01*
X057540D01*
X057500Y023000D01*
X057540Y023040D01*
X057500D01*
X057460Y023080D01*
X057420Y023040D01*
X057380D01*
X057420Y023000D01*
X057380Y022960D01*
X057420D01*
X057460Y022920D01*
X056460D02*
X056500Y022960D01*
X056540D01*
X056500Y023000D01*
X056540Y023040D01*
X056500D01*
X056460Y023080D01*
X056420Y023040D01*
X056380D01*
X056420Y023000D01*
X056380Y022960D01*
X056420D01*
X056460Y022920D01*
X055460D02*
X055500Y022960D01*
X055540D01*
X055500Y023000D01*
X055540Y023040D01*
X055500D01*
X055460Y023080D01*
X055420Y023040D01*
X055380D01*
X055420Y023000D01*
X055380Y022960D01*
X055420D01*
X055460Y022920D01*
X054460D02*
X054500Y022960D01*
X054540D01*
X054500Y023000D01*
X054540Y023040D01*
X054500D01*
X054460Y023080D01*
X054420Y023040D01*
X054380D01*
X054420Y023000D01*
X054380Y022960D01*
X054420D01*
X054460Y022920D01*
X053460D02*
X053500Y022960D01*
X053540D01*
X053500Y023000D01*
X053540Y023040D01*
X053500D01*
X053460Y023080D01*
X053420Y023040D01*
X053380D01*
X053420Y023000D01*
X053380Y022960D01*
X053420D01*
X053460Y022920D01*
X057020Y017920D02*
X057060Y018000D01*
X057020Y018080D01*
X057100Y018040D01*
X057180Y018080D01*
X057140Y018000D01*
X057180Y017920D01*
X057100Y017960D01*
X057020Y017920D01*
Y021420D02*
X057060Y021500D01*
X057020Y021580D01*
X057100Y021540D01*
X057180Y021580D01*
X057140Y021500D01*
X057180Y021420D01*
X057100Y021460D01*
X057020Y021420D01*
X055970Y017920D02*
X056010Y018000D01*
X055970Y018080D01*
X056050Y018040D01*
X056130Y018080D01*
X056090Y018000D01*
X056130Y017920D01*
X056050Y017960D01*
X055970Y017920D01*
Y021420D02*
X056010Y021500D01*
X055970Y021580D01*
X056050Y021540D01*
X056130Y021580D01*
X056090Y021500D01*
X056130Y021420D01*
X056050Y021460D01*
X055970Y021420D01*
X054970Y017920D02*
X055010Y018000D01*
X054970Y018080D01*
X055050Y018040D01*
X055130Y018080D01*
X055090Y018000D01*
X055130Y017920D01*
X055050Y017960D01*
X054970Y017920D01*
Y021420D02*
X055010Y021500D01*
X054970Y021580D01*
X055050Y021540D01*
X055130Y021580D01*
X055090Y021500D01*
X055130Y021420D01*
X055050Y021460D01*
X054970Y021420D01*
X053870Y017920D02*
X053910Y018000D01*
X053870Y018080D01*
X053950Y018040D01*
X054030Y018080D01*
X053990Y018000D01*
X054030Y017920D01*
X053950Y017960D01*
X053870Y017920D01*
Y021420D02*
X053910Y021500D01*
X053870Y021580D01*
X053950Y021540D01*
X054030Y021580D01*
X053990Y021500D01*
X054030Y021420D01*
X053950Y021460D01*
X053870Y021420D01*
X024660Y022400D02*
X024700Y022440D01*
X024740D01*
X024700Y022480D01*
X024740Y022520D01*
X024700D01*
X024660Y022560D01*
X024620Y022520D01*
X024580D01*
X024620Y022480D01*
X024580Y022440D01*
X024620D01*
X024660Y022400D01*
X024650Y024170D02*
X024690Y024210D01*
X024730D01*
X024690Y024250D01*
X024730Y024290D01*
X024690D01*
X024650Y024330D01*
X024610Y024290D01*
X024570D01*
X024610Y024250D01*
X024570Y024210D01*
X024610D01*
X024650Y024170D01*
X022100Y024160D02*
X022140Y024200D01*
X022180D01*
X022140Y024240D01*
X022180Y024280D01*
X022140D01*
X022100Y024320D01*
X022060Y024280D01*
X022020D01*
X022060Y024240D01*
X022020Y024200D01*
X022060D01*
X022100Y024160D01*
Y022400D02*
X022140Y022440D01*
X022180D01*
X022140Y022480D01*
X022180Y022520D01*
X022140D01*
X022100Y022560D01*
X022060Y022520D01*
X022020D01*
X022060Y022480D01*
X022020Y022440D01*
X022060D01*
X022100Y022400D01*
X046010Y028360D02*
Y028320D01*
X046090D01*
Y028360D01*
X046130D01*
Y028440D01*
X046090D01*
Y028480D01*
X046010D01*
Y028440D01*
X045970D01*
Y028360D01*
X046010D01*
Y023360D02*
Y023320D01*
X046090D01*
Y023360D01*
X046130D01*
Y023440D01*
X046090D01*
Y023480D01*
X046010D01*
Y023440D01*
X045970D01*
Y023360D01*
X046010D01*
Y024360D02*
Y024320D01*
X046090D01*
Y024360D01*
X046130D01*
Y024440D01*
X046090D01*
Y024480D01*
X046010D01*
Y024440D01*
X045970D01*
Y024360D01*
X046010D01*
Y025360D02*
Y025320D01*
X046090D01*
Y025360D01*
X046130D01*
Y025440D01*
X046090D01*
Y025480D01*
X046010D01*
Y025440D01*
X045970D01*
Y025360D01*
X046010D01*
Y026360D02*
Y026320D01*
X046090D01*
Y026360D01*
X046130D01*
Y026440D01*
X046090D01*
Y026480D01*
X046010D01*
Y026440D01*
X045970D01*
Y026360D01*
X046010D01*
Y027360D02*
Y027320D01*
X046090D01*
Y027360D01*
X046130D01*
Y027440D01*
X046090D01*
Y027480D01*
X046010D01*
Y027440D01*
X045970D01*
Y027360D01*
X046010D01*
Y029360D02*
Y029320D01*
X046090D01*
Y029360D01*
X046130D01*
Y029440D01*
X046090D01*
Y029480D01*
X046010D01*
Y029440D01*
X045970D01*
Y029360D01*
X046010D01*
Y030360D02*
Y030320D01*
X046090D01*
Y030360D01*
X046130D01*
Y030440D01*
X046090D01*
Y030480D01*
X046010D01*
Y030440D01*
X045970D01*
Y030360D01*
X046010D01*
X030750Y028470D02*
X030790Y028510D01*
X030830D01*
X030790Y028550D01*
X030830Y028590D01*
X030790D01*
X030750Y028630D01*
X030710Y028590D01*
X030670D01*
X030710Y028550D01*
X030670Y028510D01*
X030710D01*
X030750Y028470D01*
X056510Y042510D02*
Y042470D01*
X056590D01*
Y042510D01*
X056630D01*
Y042590D01*
X056590D01*
Y042630D01*
X056510D01*
Y042590D01*
X056470D01*
Y042510D01*
X056510D01*
Y043510D02*
Y043470D01*
X056590D01*
Y043510D01*
X056630D01*
Y043590D01*
X056590D01*
Y043630D01*
X056510D01*
Y043590D01*
X056470D01*
Y043510D01*
X056510D01*
X049820Y043120D02*
X049860D01*
X049900Y043160D01*
X049940Y043120D01*
X049980D01*
Y043160D01*
X049940Y043200D01*
X049980Y043240D01*
Y043280D01*
X049940D01*
X049900Y043240D01*
X049860Y043280D01*
X049820D01*
Y043240D01*
X049860Y043200D01*
X049820Y043160D01*
Y043120D01*
X048820Y045120D02*
X048860D01*
X048900Y045160D01*
X048940Y045120D01*
X048980D01*
Y045160D01*
X048940Y045200D01*
X048980Y045240D01*
Y045280D01*
X048940D01*
X048900Y045240D01*
X048860Y045280D01*
X048820D01*
Y045240D01*
X048860Y045200D01*
X048820Y045160D01*
Y045120D01*
X047820Y043120D02*
X047860D01*
X047900Y043160D01*
X047940Y043120D01*
X047980D01*
Y043160D01*
X047940Y043200D01*
X047980Y043240D01*
Y043280D01*
X047940D01*
X047900Y043240D01*
X047860Y043280D01*
X047820D01*
Y043240D01*
X047860Y043200D01*
X047820Y043160D01*
Y043120D01*
X038670Y046350D02*
X038750Y046430D01*
X038830Y046350D01*
X038750Y046270D01*
X038670Y046350D01*
X037670Y044270D02*
Y044430D01*
X037830D01*
Y044270D01*
X037670D01*
X037710Y044310D02*
Y044390D01*
X037790D01*
Y044310D01*
X037710D01*
X038670Y044270D02*
Y044430D01*
X038830D01*
Y044270D01*
X038670D01*
X038710Y044310D02*
Y044390D01*
X038790D01*
Y044310D01*
X038710D01*
X039670Y044270D02*
Y044430D01*
X039830D01*
Y044270D01*
X039670D01*
X039710Y044310D02*
Y044390D01*
X039790D01*
Y044310D01*
X039710D01*
X022200Y029010D02*
X022240Y029050D01*
X022280D01*
X022240Y029090D01*
X022280Y029130D01*
X022240D01*
X022200Y029170D01*
X022160Y029130D01*
X022120D01*
X022160Y029090D01*
X022120Y029050D01*
X022160D01*
X022200Y029010D01*
Y030770D02*
X022240Y030810D01*
X022280D01*
X022240Y030850D01*
X022280Y030890D01*
X022240D01*
X022200Y030930D01*
X022160Y030890D01*
X022120D01*
X022160Y030850D01*
X022120Y030810D01*
X022160D01*
X022200Y030770D01*
X024750Y030780D02*
X024790Y030820D01*
X024830D01*
X024790Y030860D01*
X024830Y030900D01*
X024790D01*
X024750Y030940D01*
X024710Y030900D01*
X024670D01*
X024710Y030860D01*
X024670Y030820D01*
X024710D01*
X024750Y030780D01*
X024760Y029010D02*
X024800Y029050D01*
X024840D01*
X024800Y029090D01*
X024840Y029130D01*
X024800D01*
X024760Y029170D01*
X024720Y029130D01*
X024680D01*
X024720Y029090D01*
X024680Y029050D01*
X024720D01*
X024760Y029010D01*
X022140Y032670D02*
X022180Y032710D01*
X022220D01*
X022180Y032750D01*
X022220Y032790D01*
X022180D01*
X022140Y032830D01*
X022100Y032790D01*
X022060D01*
X022100Y032750D01*
X022060Y032710D01*
X022100D01*
X022140Y032670D01*
Y034430D02*
X022180Y034470D01*
X022220D01*
X022180Y034510D01*
X022220Y034550D01*
X022180D01*
X022140Y034590D01*
X022100Y034550D01*
X022060D01*
X022100Y034510D01*
X022060Y034470D01*
X022100D01*
X022140Y034430D01*
X024690Y034440D02*
X024730Y034480D01*
X024770D01*
X024730Y034520D01*
X024770Y034560D01*
X024730D01*
X024690Y034600D01*
X024650Y034560D01*
X024610D01*
X024650Y034520D01*
X024610Y034480D01*
X024650D01*
X024690Y034440D01*
X024700Y032670D02*
X024740Y032710D01*
X024780D01*
X024740Y032750D01*
X024780Y032790D01*
X024740D01*
X024700Y032830D01*
X024660Y032790D01*
X024620D01*
X024660Y032750D01*
X024620Y032710D01*
X024660D01*
X024700Y032670D01*
X022190Y036270D02*
X022230Y036310D01*
X022270D01*
X022230Y036350D01*
X022270Y036390D01*
X022230D01*
X022190Y036430D01*
X022150Y036390D01*
X022110D01*
X022150Y036350D01*
X022110Y036310D01*
X022150D01*
X022190Y036270D01*
Y038030D02*
X022230Y038070D01*
X022270D01*
X022230Y038110D01*
X022270Y038150D01*
X022230D01*
X022190Y038190D01*
X022150Y038150D01*
X022110D01*
X022150Y038110D01*
X022110Y038070D01*
X022150D01*
X022190Y038030D01*
X024740Y038040D02*
X024780Y038080D01*
X024820D01*
X024780Y038120D01*
X024820Y038160D01*
X024780D01*
X024740Y038200D01*
X024700Y038160D01*
X024660D01*
X024700Y038120D01*
X024660Y038080D01*
X024700D01*
X024740Y038040D01*
X024750Y036270D02*
X024790Y036310D01*
X024830D01*
X024790Y036350D01*
X024830Y036390D01*
X024790D01*
X024750Y036430D01*
X024710Y036390D01*
X024670D01*
X024710Y036350D01*
X024670Y036310D01*
X024710D01*
X024750Y036270D01*
Y041720D02*
X024790Y041760D01*
X024830D01*
X024790Y041800D01*
X024830Y041840D01*
X024790D01*
X024750Y041880D01*
X024710Y041840D01*
X024670D01*
X024710Y041800D01*
X024670Y041760D01*
X024710D01*
X024750Y041720D01*
Y039960D02*
X024790Y040000D01*
X024830D01*
X024790Y040040D01*
X024830Y040080D01*
X024790D01*
X024750Y040120D01*
X024710Y040080D01*
X024670D01*
X024710Y040040D01*
X024670Y040000D01*
X024710D01*
X024750Y039960D01*
X022200Y039950D02*
X022240Y039990D01*
X022280D01*
X022240Y040030D01*
X022280Y040070D01*
X022240D01*
X022200Y040110D01*
X022160Y040070D01*
X022120D01*
X022160Y040030D01*
X022120Y039990D01*
X022160D01*
X022200Y039950D01*
X022190Y041720D02*
X022230Y041760D01*
X022270D01*
X022230Y041800D01*
X022270Y041840D01*
X022230D01*
X022190Y041880D01*
X022150Y041840D01*
X022110D01*
X022150Y041800D01*
X022110Y041760D01*
X022150D01*
X022190Y041720D01*
X040202Y016020D02*
Y016180D01*
X040361D01*
Y016020D01*
X040202D01*
Y019520D02*
Y019680D01*
X040361D01*
Y019520D01*
X040202D01*
X039102Y016020D02*
Y016180D01*
X039262D01*
Y016020D01*
X039102D01*
Y019520D02*
Y019680D01*
X039262D01*
Y019520D01*
X039102D01*
X025470Y025670D02*
Y025830D01*
X025630D01*
Y025670D01*
X025470D01*
X021970D02*
Y025830D01*
X022130D01*
Y025670D01*
X021970D01*
X047770Y018320D02*
X047810Y018400D01*
X047770Y018480D01*
X047850Y018440D01*
X047930Y018480D01*
X047890Y018400D01*
X047930Y018320D01*
X047850Y018360D01*
X047770Y018320D01*
Y014820D02*
X047810Y014900D01*
X047770Y014980D01*
X047850Y014940D01*
X047930Y014980D01*
X047890Y014900D01*
X047930Y014820D01*
X047850Y014860D01*
X047770Y014820D01*
X042970Y043620D02*
Y043780D01*
X043130D01*
Y043620D01*
X042970D01*
Y047120D02*
Y047280D01*
X043130D01*
Y047120D01*
X042970D01*
X049050Y032670D02*
X048970Y032830D01*
X049130D01*
X049050Y032670D01*
Y032710D02*
X049010Y032790D01*
X049090D01*
X049050Y032710D01*
Y031670D02*
X048970Y031830D01*
X049130D01*
X049050Y031670D01*
Y031710D02*
X049010Y031790D01*
X049090D01*
X049050Y031710D01*
Y030670D02*
X048970Y030830D01*
X049130D01*
X049050Y030670D01*
Y030710D02*
X049010Y030790D01*
X049090D01*
X049050Y030710D01*
Y029670D02*
X048970Y029830D01*
X049130D01*
X049050Y029670D01*
Y029710D02*
X049010Y029790D01*
X049090D01*
X049050Y029710D01*
Y028670D02*
X048970Y028830D01*
X049130D01*
X049050Y028670D01*
Y028710D02*
X049010Y028790D01*
X049090D01*
X049050Y028710D01*
Y027670D02*
X048970Y027830D01*
X049130D01*
X049050Y027670D01*
Y027710D02*
X049010Y027790D01*
X049090D01*
X049050Y027710D01*
Y026670D02*
X048970Y026830D01*
X049130D01*
X049050Y026670D01*
Y026710D02*
X049010Y026790D01*
X049090D01*
X049050Y026710D01*
Y025670D02*
X048970Y025830D01*
X049130D01*
X049050Y025670D01*
Y025710D02*
X049010Y025790D01*
X049090D01*
X049050Y025710D01*
Y024670D02*
X048970Y024830D01*
X049130D01*
X049050Y024670D01*
Y024710D02*
X049010Y024790D01*
X049090D01*
X049050Y024710D01*
Y023670D02*
X048970Y023830D01*
X049130D01*
X049050Y023670D01*
Y023710D02*
X049010Y023790D01*
X049090D01*
X049050Y023710D01*
Y022670D02*
X048970Y022830D01*
X049130D01*
X049050Y022670D01*
Y022710D02*
X049010Y022790D01*
X049090D01*
X049050Y022710D01*
Y021670D02*
X048970Y021830D01*
X049130D01*
X049050Y021670D01*
Y021710D02*
X049010Y021790D01*
X049090D01*
X049050Y021710D01*
Y020670D02*
X048970Y020830D01*
X049130D01*
X049050Y020670D01*
Y020710D02*
X049010Y020790D01*
X049090D01*
X049050Y020710D01*
Y019670D02*
X048970Y019830D01*
X049130D01*
X049050Y019670D01*
Y019710D02*
X049010Y019790D01*
X049090D01*
X049050Y019710D01*
Y018670D02*
X048970Y018830D01*
X049130D01*
X049050Y018670D01*
Y018710D02*
X049010Y018790D01*
X049090D01*
X049050Y018710D01*
Y017670D02*
X048970Y017830D01*
X049130D01*
X049050Y017670D01*
Y017710D02*
X049010Y017790D01*
X049090D01*
X049050Y017710D01*
X028500Y033720D02*
X028540Y033760D01*
X028580D01*
X028540Y033800D01*
X028580Y033840D01*
X028540D01*
X028500Y033880D01*
X028460Y033840D01*
X028420D01*
X028460Y033800D01*
X028420Y033760D01*
X028460D01*
X028500Y033720D01*
Y032720D02*
X028540Y032760D01*
X028580D01*
X028540Y032800D01*
X028580Y032840D01*
X028540D01*
X028500Y032880D01*
X028460Y032840D01*
X028420D01*
X028460Y032800D01*
X028420Y032760D01*
X028460D01*
X028500Y032720D01*
Y031720D02*
X028540Y031760D01*
X028580D01*
X028540Y031800D01*
X028580Y031840D01*
X028540D01*
X028500Y031880D01*
X028460Y031840D01*
X028420D01*
X028460Y031800D01*
X028420Y031760D01*
X028460D01*
X028500Y031720D01*
Y030720D02*
X028540Y030760D01*
X028580D01*
X028540Y030800D01*
X028580Y030840D01*
X028540D01*
X028500Y030880D01*
X028460Y030840D01*
X028420D01*
X028460Y030800D01*
X028420Y030760D01*
X028460D01*
X028500Y030720D01*
Y029720D02*
X028540Y029760D01*
X028580D01*
X028540Y029800D01*
X028580Y029840D01*
X028540D01*
X028500Y029880D01*
X028460Y029840D01*
X028420D01*
X028460Y029800D01*
X028420Y029760D01*
X028460D01*
X028500Y029720D01*
X027500D02*
X027540Y029760D01*
X027580D01*
X027540Y029800D01*
X027580Y029840D01*
X027540D01*
X027500Y029880D01*
X027460Y029840D01*
X027420D01*
X027460Y029800D01*
X027420Y029760D01*
X027460D01*
X027500Y029720D01*
Y030720D02*
X027540Y030760D01*
X027580D01*
X027540Y030800D01*
X027580Y030840D01*
X027540D01*
X027500Y030880D01*
X027460Y030840D01*
X027420D01*
X027460Y030800D01*
X027420Y030760D01*
X027460D01*
X027500Y030720D01*
Y031720D02*
X027540Y031760D01*
X027580D01*
X027540Y031800D01*
X027580Y031840D01*
X027540D01*
X027500Y031880D01*
X027460Y031840D01*
X027420D01*
X027460Y031800D01*
X027420Y031760D01*
X027460D01*
X027500Y031720D01*
Y032720D02*
X027540Y032760D01*
X027580D01*
X027540Y032800D01*
X027580Y032840D01*
X027540D01*
X027500Y032880D01*
X027460Y032840D01*
X027420D01*
X027460Y032800D01*
X027420Y032760D01*
X027460D01*
X027500Y032720D01*
Y033720D02*
X027540Y033760D01*
X027580D01*
X027540Y033800D01*
X027580Y033840D01*
X027540D01*
X027500Y033880D01*
X027460Y033840D01*
X027420D01*
X027460Y033800D01*
X027420Y033760D01*
X027460D01*
X027500Y033720D01*
X045350Y045220D02*
X045390Y045260D01*
X045430D01*
X045390Y045300D01*
X045430Y045340D01*
X045390D01*
X045350Y045380D01*
X045310Y045340D01*
X045270D01*
X045310Y045300D01*
X045270Y045260D01*
X045310D01*
X045350Y045220D01*
Y045260D02*
X045370Y045280D01*
X045390D01*
X045370Y045300D01*
X045390Y045320D01*
X045370D01*
X045350Y045340D01*
X045330Y045320D01*
X045310D01*
X045330Y045300D01*
X045310Y045280D01*
X045330D01*
X045350Y045260D01*
Y044220D02*
X045390Y044260D01*
X045430D01*
X045390Y044300D01*
X045430Y044340D01*
X045390D01*
X045350Y044380D01*
X045310Y044340D01*
X045270D01*
X045310Y044300D01*
X045270Y044260D01*
X045310D01*
X045350Y044220D01*
Y044260D02*
X045370Y044280D01*
X045390D01*
X045370Y044300D01*
X045390Y044320D01*
X045370D01*
X045350Y044340D01*
X045330Y044320D01*
X045310D01*
X045330Y044300D01*
X045310Y044280D01*
X045330D01*
X045350Y044260D01*
X038342Y014660D02*
Y014620D01*
X038421D01*
Y014660D01*
X038461D01*
Y014740D01*
X038421D01*
Y014780D01*
X038342D01*
Y014740D01*
X038301D01*
Y014660D01*
X038342D01*
X039326D02*
Y014620D01*
X039406D01*
Y014660D01*
X039446D01*
Y014740D01*
X039406D01*
Y014780D01*
X039326D01*
Y014740D01*
X039286D01*
Y014660D01*
X039326D01*
X040310D02*
Y014620D01*
X040390D01*
Y014660D01*
X040430D01*
Y014740D01*
X040390D01*
Y014780D01*
X040310D01*
Y014740D01*
X040270D01*
Y014660D01*
X040310D01*
X041294D02*
Y014620D01*
X041374D01*
Y014660D01*
X041414D01*
Y014740D01*
X041374D01*
Y014780D01*
X041294D01*
Y014740D01*
X041254D01*
Y014660D01*
X041294D01*
X042278D02*
Y014620D01*
X042358D01*
Y014660D01*
X042399D01*
Y014740D01*
X042358D01*
Y014780D01*
X042278D01*
Y014740D01*
X042238D01*
Y014660D01*
X042278D01*
X043263D02*
Y014620D01*
X043343D01*
Y014660D01*
X043383D01*
Y014740D01*
X043343D01*
Y014780D01*
X043263D01*
Y014740D01*
X043223D01*
Y014660D01*
X043263D01*
X045860Y040610D02*
Y040570D01*
X045940D01*
Y040610D01*
X045980D01*
Y040690D01*
X045940D01*
Y040730D01*
X045860D01*
Y040690D01*
X045820D01*
Y040610D01*
X045860D01*
Y039610D02*
Y039570D01*
X045940D01*
Y039610D01*
X045980D01*
Y039690D01*
X045940D01*
Y039730D01*
X045860D01*
Y039690D01*
X045820D01*
Y039610D01*
X045860D01*
Y037610D02*
Y037570D01*
X045940D01*
Y037610D01*
X045980D01*
Y037690D01*
X045940D01*
Y037730D01*
X045860D01*
Y037690D01*
X045820D01*
Y037610D01*
X045860D01*
Y036610D02*
Y036570D01*
X045940D01*
Y036610D01*
X045980D01*
Y036690D01*
X045940D01*
Y036730D01*
X045860D01*
Y036690D01*
X045820D01*
Y036610D01*
X045860D01*
Y035610D02*
Y035570D01*
X045940D01*
Y035610D01*
X045980D01*
Y035690D01*
X045940D01*
Y035730D01*
X045860D01*
Y035690D01*
X045820D01*
Y035610D01*
X045860D01*
Y034610D02*
Y034570D01*
X045940D01*
Y034610D01*
X045980D01*
Y034690D01*
X045940D01*
Y034730D01*
X045860D01*
Y034690D01*
X045820D01*
Y034610D01*
X045860D01*
Y033610D02*
Y033570D01*
X045940D01*
Y033610D01*
X045980D01*
Y033690D01*
X045940D01*
Y033730D01*
X045860D01*
Y033690D01*
X045820D01*
Y033610D01*
X045860D01*
Y038610D02*
Y038570D01*
X045940D01*
Y038610D01*
X045980D01*
Y038690D01*
X045940D01*
Y038730D01*
X045860D01*
Y038690D01*
X045820D01*
Y038610D01*
X045860D01*
X030700Y031570D02*
X030740Y031610D01*
X030780D01*
X030740Y031650D01*
X030780Y031690D01*
X030740D01*
X030700Y031730D01*
X030660Y031690D01*
X030620D01*
X030660Y031650D01*
X030620Y031610D01*
X030660D01*
X030700Y031570D01*
X030750Y033770D02*
X030790Y033810D01*
X030830D01*
X030790Y033850D01*
X030830Y033890D01*
X030790D01*
X030750Y033930D01*
X030710Y033890D01*
X030670D01*
X030710Y033850D01*
X030670Y033810D01*
X030710D01*
X030750Y033770D01*
X034270Y028920D02*
Y029080D01*
X034430D01*
Y028920D01*
X034270D01*
Y027920D02*
Y028080D01*
X034430D01*
Y027920D01*
X034270D01*
X035270Y030120D02*
Y030280D01*
X035430D01*
Y030120D01*
X035270D01*
Y029120D02*
Y029280D01*
X035430D01*
Y029120D01*
X035270D01*
X041020Y030370D02*
Y030530D01*
X041180D01*
Y030370D01*
X041020D01*
Y031370D02*
Y031530D01*
X041180D01*
Y031370D01*
X041020D01*
X028250Y025320D02*
X028290Y025360D01*
X028330D01*
X028290Y025400D01*
X028330Y025440D01*
X028290D01*
X028250Y025480D01*
X028210Y025440D01*
X028170D01*
X028210Y025400D01*
X028170Y025360D01*
X028210D01*
X028250Y025320D01*
Y025360D02*
X028270Y025380D01*
X028290D01*
X028270Y025400D01*
X028290Y025420D01*
X028270D01*
X028250Y025440D01*
X028230Y025420D01*
X028210D01*
X028230Y025400D01*
X028210Y025380D01*
X028230D01*
X028250Y025360D01*
Y024320D02*
X028290Y024360D01*
X028330D01*
X028290Y024400D01*
X028330Y024440D01*
X028290D01*
X028250Y024480D01*
X028210Y024440D01*
X028170D01*
X028210Y024400D01*
X028170Y024360D01*
X028210D01*
X028250Y024320D01*
Y024360D02*
X028270Y024380D01*
X028290D01*
X028270Y024400D01*
X028290Y024420D01*
X028270D01*
X028250Y024440D01*
X028230Y024420D01*
X028210D01*
X028230Y024400D01*
X028210Y024380D01*
X028230D01*
X028250Y024360D01*
X038720Y030370D02*
Y030530D01*
X038880D01*
Y030370D01*
X038720D01*
Y031370D02*
Y031530D01*
X038880D01*
Y031370D01*
X038720D01*
X039920Y030370D02*
Y030530D01*
X040080D01*
Y030370D01*
X039920D01*
Y031370D02*
Y031530D01*
X040080D01*
Y031370D01*
X039920D01*
X034160Y014610D02*
Y014570D01*
X034240D01*
Y014610D01*
X034280D01*
Y014690D01*
X034240D01*
Y014730D01*
X034160D01*
Y014690D01*
X034120D01*
Y014610D01*
X034160D01*
X033160D02*
Y014570D01*
X033240D01*
Y014610D01*
X033280D01*
Y014690D01*
X033240D01*
Y014730D01*
X033160D01*
Y014690D01*
X033120D01*
Y014610D01*
X033160D01*
X033110Y026660D02*
Y026620D01*
X033190D01*
Y026660D01*
X033230D01*
Y026740D01*
X033190D01*
Y026780D01*
X033110D01*
Y026740D01*
X033070D01*
Y026660D01*
X033110D01*
Y025660D02*
Y025620D01*
X033190D01*
Y025660D01*
X033230D01*
Y025740D01*
X033190D01*
Y025780D01*
X033110D01*
Y025740D01*
X033070D01*
Y025660D01*
X033110D01*
Y023660D02*
Y023620D01*
X033190D01*
Y023660D01*
X033230D01*
Y023740D01*
X033190D01*
Y023780D01*
X033110D01*
Y023740D01*
X033070D01*
Y023660D01*
X033110D01*
Y022660D02*
Y022620D01*
X033190D01*
Y022660D01*
X033230D01*
Y022740D01*
X033190D01*
Y022780D01*
X033110D01*
Y022740D01*
X033070D01*
Y022660D01*
X033110D01*
Y021660D02*
Y021620D01*
X033190D01*
Y021660D01*
X033230D01*
Y021740D01*
X033190D01*
Y021780D01*
X033110D01*
Y021740D01*
X033070D01*
Y021660D01*
X033110D01*
Y020660D02*
Y020620D01*
X033190D01*
Y020660D01*
X033230D01*
Y020740D01*
X033190D01*
Y020780D01*
X033110D01*
Y020740D01*
X033070D01*
Y020660D01*
X033110D01*
Y019660D02*
Y019620D01*
X033190D01*
Y019660D01*
X033230D01*
Y019740D01*
X033190D01*
Y019780D01*
X033110D01*
Y019740D01*
X033070D01*
Y019660D01*
X033110D01*
Y024660D02*
Y024620D01*
X033190D01*
Y024660D01*
X033230D01*
Y024740D01*
X033190D01*
Y024780D01*
X033110D01*
Y024740D01*
X033070D01*
Y024660D01*
X033110D01*
X032210Y039060D02*
Y039020D01*
X032290D01*
Y039060D01*
X032330D01*
Y039140D01*
X032290D01*
Y039180D01*
X032210D01*
Y039140D01*
X032170D01*
Y039060D01*
X032210D01*
Y038060D02*
Y038020D01*
X032290D01*
Y038060D01*
X032330D01*
Y038140D01*
X032290D01*
Y038180D01*
X032210D01*
Y038140D01*
X032170D01*
Y038060D01*
X032210D01*
Y036060D02*
Y036020D01*
X032290D01*
Y036060D01*
X032330D01*
Y036140D01*
X032290D01*
Y036180D01*
X032210D01*
Y036140D01*
X032170D01*
Y036060D01*
X032210D01*
Y035060D02*
Y035020D01*
X032290D01*
Y035060D01*
X032330D01*
Y035140D01*
X032290D01*
Y035180D01*
X032210D01*
Y035140D01*
X032170D01*
Y035060D01*
X032210D01*
Y034060D02*
Y034020D01*
X032290D01*
Y034060D01*
X032330D01*
Y034140D01*
X032290D01*
Y034180D01*
X032210D01*
Y034140D01*
X032170D01*
Y034060D01*
X032210D01*
Y033060D02*
Y033020D01*
X032290D01*
Y033060D01*
X032330D01*
Y033140D01*
X032290D01*
Y033180D01*
X032210D01*
Y033140D01*
X032170D01*
Y033060D01*
X032210D01*
Y032060D02*
Y032020D01*
X032290D01*
Y032060D01*
X032330D01*
Y032140D01*
X032290D01*
Y032180D01*
X032210D01*
Y032140D01*
X032170D01*
Y032060D01*
X032210D01*
Y037060D02*
Y037020D01*
X032290D01*
Y037060D01*
X032330D01*
Y037140D01*
X032290D01*
Y037180D01*
X032210D01*
Y037140D01*
X032170D01*
Y037060D01*
X032210D01*
X033320Y031320D02*
X033360Y031400D01*
X033320Y031480D01*
X033400Y031440D01*
X033480Y031480D01*
X033440Y031400D01*
X033480Y031320D01*
X033400Y031360D01*
X033320Y031320D01*
X033360Y031360D02*
X033380Y031400D01*
X033360Y031440D01*
X033400Y031420D01*
X033440Y031440D01*
X033420Y031400D01*
X033440Y031360D01*
X033400Y031380D01*
X033360Y031360D01*
X035770Y031470D02*
X035810Y031550D01*
X035770Y031630D01*
X035850Y031590D01*
X035930Y031630D01*
X035890Y031550D01*
X035930Y031470D01*
X035850Y031510D01*
X035770Y031470D01*
X035810Y031510D02*
X035830Y031550D01*
X035810Y031590D01*
X035850Y031570D01*
X035890Y031590D01*
X035870Y031550D01*
X035890Y031510D01*
X035850Y031530D01*
X035810Y031510D01*
D84*
X030530Y043300D02*
G03*
X030530Y043300I-000080J000000D01*
G01*
Y047800D02*
G03*
X030530Y047800I-000080J000000D01*
G01*
X034680Y038550D02*
G03*
X034680Y038550I-000080J000000D01*
G01*
Y036550D02*
G03*
X034680Y036550I-000080J000000D01*
G01*
Y034550D02*
G03*
X034680Y034550I-000080J000000D01*
G01*
Y033550D02*
G03*
X034680Y033550I-000080J000000D01*
G01*
Y032550D02*
G03*
X034680Y032550I-000080J000000D01*
G01*
Y031550D02*
G03*
X034680Y031550I-000080J000000D01*
G01*
Y035550D02*
G03*
X034680Y035550I-000080J000000D01*
G01*
Y037550D02*
G03*
X034680Y037550I-000080J000000D01*
G01*
Y039550D02*
G03*
X034680Y039550I-000080J000000D01*
G01*
X023730Y014700D02*
G03*
X023730Y014700I-000080J000000D01*
G01*
X025730D02*
G03*
X025730Y014700I-000080J000000D01*
G01*
X027730D02*
G03*
X027730Y014700I-000080J000000D01*
G01*
X028730D02*
G03*
X028730Y014700I-000080J000000D01*
G01*
X029730D02*
G03*
X029730Y014700I-000080J000000D01*
G01*
X030730D02*
G03*
X030730Y014700I-000080J000000D01*
G01*
X026730D02*
G03*
X026730Y014700I-000080J000000D01*
G01*
X024730D02*
G03*
X024730Y014700I-000080J000000D01*
G01*
X022730D02*
G03*
X022730Y014700I-000080J000000D01*
G01*
X031330Y018950D02*
G03*
X031330Y018950I-000080J000000D01*
G01*
Y017950D02*
G03*
X031330Y017950I-000080J000000D01*
G01*
X030030Y018950D02*
G03*
X030030Y018950I-000080J000000D01*
G01*
Y017950D02*
G03*
X030030Y017950I-000080J000000D01*
G01*
X028730Y018950D02*
G03*
X028730Y018950I-000080J000000D01*
G01*
Y017950D02*
G03*
X028730Y017950I-000080J000000D01*
G01*
X027430Y018950D02*
G03*
X027430Y018950I-000080J000000D01*
G01*
Y017950D02*
G03*
X027430Y017950I-000080J000000D01*
G01*
X026130Y018950D02*
G03*
X026130Y018950I-000080J000000D01*
G01*
Y017950D02*
G03*
X026130Y017950I-000080J000000D01*
G01*
X024830Y018950D02*
G03*
X024830Y018950I-000080J000000D01*
G01*
Y017950D02*
G03*
X024830Y017950I-000080J000000D01*
G01*
X023530Y018950D02*
G03*
X023530Y018950I-000080J000000D01*
G01*
Y017950D02*
G03*
X023530Y017950I-000080J000000D01*
G01*
X022230Y018950D02*
G03*
X022230Y018950I-000080J000000D01*
G01*
Y017950D02*
G03*
X022230Y017950I-000080J000000D01*
G01*
X053230Y043000D02*
G03*
X053230Y043000I-000080J000000D01*
G01*
Y044500D02*
G03*
X053230Y044500I-000080J000000D01*
G01*
X033430Y045950D02*
G03*
X033430Y045950I-000080J000000D01*
G01*
Y044450D02*
G03*
X033430Y044450I-000080J000000D01*
G01*
D85*
X034640Y038550D02*
G03*
X034640Y038550I-000040J000000D01*
G01*
Y036550D02*
G03*
X034640Y036550I-000040J000000D01*
G01*
Y034550D02*
G03*
X034640Y034550I-000040J000000D01*
G01*
Y033550D02*
G03*
X034640Y033550I-000040J000000D01*
G01*
Y032550D02*
G03*
X034640Y032550I-000040J000000D01*
G01*
Y031550D02*
G03*
X034640Y031550I-000040J000000D01*
G01*
Y035550D02*
G03*
X034640Y035550I-000040J000000D01*
G01*
Y037550D02*
G03*
X034640Y037550I-000040J000000D01*
G01*
Y039550D02*
G03*
X034640Y039550I-000040J000000D01*
G01*
X023690Y014700D02*
G03*
X023690Y014700I-000040J000000D01*
G01*
X025690D02*
G03*
X025690Y014700I-000040J000000D01*
G01*
X027690D02*
G03*
X027690Y014700I-000040J000000D01*
G01*
X028690D02*
G03*
X028690Y014700I-000040J000000D01*
G01*
X029690D02*
G03*
X029690Y014700I-000040J000000D01*
G01*
X030690D02*
G03*
X030690Y014700I-000040J000000D01*
G01*
X026690D02*
G03*
X026690Y014700I-000040J000000D01*
G01*
X024690D02*
G03*
X024690Y014700I-000040J000000D01*
G01*
X022690D02*
G03*
X022690Y014700I-000040J000000D01*
G01*
X031290Y018950D02*
G03*
X031290Y018950I-000040J000000D01*
G01*
Y017950D02*
G03*
X031290Y017950I-000040J000000D01*
G01*
X029990Y018950D02*
G03*
X029990Y018950I-000040J000000D01*
G01*
Y017950D02*
G03*
X029990Y017950I-000040J000000D01*
G01*
X028690Y018950D02*
G03*
X028690Y018950I-000040J000000D01*
G01*
Y017950D02*
G03*
X028690Y017950I-000040J000000D01*
G01*
X027390Y018950D02*
G03*
X027390Y018950I-000040J000000D01*
G01*
Y017950D02*
G03*
X027390Y017950I-000040J000000D01*
G01*
X026090Y018950D02*
G03*
X026090Y018950I-000040J000000D01*
G01*
Y017950D02*
G03*
X026090Y017950I-000040J000000D01*
G01*
X024790Y018950D02*
G03*
X024790Y018950I-000040J000000D01*
G01*
Y017950D02*
G03*
X024790Y017950I-000040J000000D01*
G01*
X023490Y018950D02*
G03*
X023490Y018950I-000040J000000D01*
G01*
Y017950D02*
G03*
X023490Y017950I-000040J000000D01*
G01*
X022190Y018950D02*
G03*
X022190Y018950I-000040J000000D01*
G01*
Y017950D02*
G03*
X022190Y017950I-000040J000000D01*
G01*
X053190Y043000D02*
G03*
X053190Y043000I-000040J000000D01*
G01*
Y044500D02*
G03*
X053190Y044500I-000040J000000D01*
G01*
X033390Y045950D02*
G03*
X033390Y045950I-000040J000000D01*
G01*
Y044450D02*
G03*
X033390Y044450I-000040J000000D01*
G01*
M02*
