G04*
G04 #@! TF.GenerationSoftware,Altium Limited,Altium Designer,21.0.8 (223)*
G04*
G04 Layer_Color=128*
%FSAX24Y24*%
%MOIN*%
G70*
G04*
G04 #@! TF.SameCoordinates,60160E94-E268-4AC3-8077-459848BE01EC*
G04*
G04*
G04 #@! TF.FilePolarity,Positive*
G04*
G01*
G75*
%ADD83C,0.0020*%
D83*
X048745Y041900D02*
X049055D01*
X048900Y041745D02*
Y042055D01*
X049745Y041900D02*
X050055D01*
X049900Y041745D02*
Y042055D01*
X042845Y021500D02*
X043155D01*
X043000Y021345D02*
Y021655D01*
X042845Y022500D02*
X043155D01*
X043000Y022345D02*
Y022655D01*
X042845Y023500D02*
X043155D01*
X043000Y023345D02*
Y023655D01*
X042845Y024500D02*
X043155D01*
X043000Y024345D02*
Y024655D01*
X042845Y025500D02*
X043155D01*
X043000Y025345D02*
Y025655D01*
X042845Y026500D02*
X043155D01*
X043000Y026345D02*
Y026655D01*
X042845Y027500D02*
X043155D01*
X043000Y027345D02*
Y027655D01*
X042845Y028500D02*
X043155D01*
X043000Y028345D02*
Y028655D01*
X042845Y029500D02*
X043155D01*
X043000Y029345D02*
Y029655D01*
X042845Y030500D02*
X043155D01*
X043000Y030345D02*
Y030655D01*
X042845Y031500D02*
X043155D01*
X043000Y031345D02*
Y031655D01*
X042845Y032500D02*
X043155D01*
X043000Y032345D02*
Y032655D01*
X042845Y033500D02*
X043155D01*
X043000Y033345D02*
Y033655D01*
X042845Y034500D02*
X043155D01*
X043000Y034345D02*
Y034655D01*
X042845Y035500D02*
X043155D01*
X043000Y035345D02*
Y035655D01*
X042845Y036500D02*
X043155D01*
X043000Y036345D02*
Y036655D01*
X042845Y037500D02*
X043155D01*
X043000Y037345D02*
Y037655D01*
X042845Y038500D02*
X043155D01*
X043000Y038345D02*
Y038655D01*
X042845Y039500D02*
X043155D01*
X043000Y039345D02*
Y039655D01*
X042845Y040500D02*
X043155D01*
X043000Y040345D02*
Y040655D01*
X036845Y021500D02*
X037155D01*
X037000Y021345D02*
Y021655D01*
X036845Y022500D02*
X037155D01*
X037000Y022345D02*
Y022655D01*
X036845Y023500D02*
X037155D01*
X037000Y023345D02*
Y023655D01*
X036845Y024500D02*
X037155D01*
X037000Y024345D02*
Y024655D01*
X036845Y025500D02*
X037155D01*
X037000Y025345D02*
Y025655D01*
X036845Y026500D02*
X037155D01*
X037000Y026345D02*
Y026655D01*
X036845Y027500D02*
X037155D01*
X037000Y027345D02*
Y027655D01*
X036845Y028500D02*
X037155D01*
X037000Y028345D02*
Y028655D01*
X036845Y029500D02*
X037155D01*
X037000Y029345D02*
Y029655D01*
X036845Y030500D02*
X037155D01*
X037000Y030345D02*
Y030655D01*
X036845Y031500D02*
X037155D01*
X037000Y031345D02*
Y031655D01*
X036845Y032500D02*
X037155D01*
X037000Y032345D02*
Y032655D01*
X036845Y033500D02*
X037155D01*
X037000Y033345D02*
Y033655D01*
X036845Y034500D02*
X037155D01*
X037000Y034345D02*
Y034655D01*
X036845Y035500D02*
X037155D01*
X037000Y035345D02*
Y035655D01*
X036845Y036500D02*
X037155D01*
X037000Y036345D02*
Y036655D01*
X036845Y037500D02*
X037155D01*
X037000Y037345D02*
Y037655D01*
X036845Y038500D02*
X037155D01*
X037000Y038345D02*
Y038655D01*
X036845Y039500D02*
X037155D01*
X037000Y039345D02*
Y039655D01*
X036845Y040500D02*
X037155D01*
X037000Y040345D02*
Y040655D01*
X030225Y043300D02*
X030675D01*
X030450Y043075D02*
Y043525D01*
X030225Y047800D02*
X030675D01*
X030450Y047575D02*
Y048025D01*
X027105Y042850D02*
X027695D01*
X027400Y042555D02*
Y043145D01*
X027105Y045350D02*
X027695D01*
X027400Y045055D02*
Y045645D01*
X025105Y043850D02*
X025695D01*
X025400Y043555D02*
Y044145D01*
X045403Y019550D02*
X045797D01*
X045600Y019353D02*
Y019747D01*
X045403Y017850D02*
X045797D01*
X045600Y017653D02*
Y018047D01*
X030553Y026850D02*
X030947D01*
X030750Y026653D02*
Y027047D01*
X039653Y026200D02*
X040047D01*
X039850Y026003D02*
Y026397D01*
X039653Y028200D02*
X040047D01*
X039850Y028003D02*
Y028397D01*
X039653Y027200D02*
X040047D01*
X039850Y027003D02*
Y027397D01*
X057052Y034150D02*
X057248D01*
X057150Y034052D02*
Y034248D01*
X057052Y030650D02*
X057248D01*
X057150Y030552D02*
Y030748D01*
X056002Y034150D02*
X056198D01*
X056100Y034052D02*
Y034248D01*
X056002Y030650D02*
X056198D01*
X056100Y030552D02*
Y030748D01*
X054952Y034150D02*
X055148D01*
X055050Y034052D02*
Y034248D01*
X054952Y030650D02*
X055148D01*
X055050Y030552D02*
Y030748D01*
X053852Y034200D02*
X054048D01*
X053950Y034102D02*
Y034298D01*
X053852Y030700D02*
X054048D01*
X053950Y030602D02*
Y030798D01*
X053263Y029000D02*
X053657D01*
X053460Y028803D02*
Y029197D01*
X054263Y029000D02*
X054657D01*
X054460Y028803D02*
Y029197D01*
X055263Y029000D02*
X055657D01*
X055460Y028803D02*
Y029197D01*
X056263Y029000D02*
X056657D01*
X056460Y028803D02*
Y029197D01*
X057263Y029000D02*
X057657D01*
X057460Y028803D02*
Y029197D01*
X057263Y023000D02*
X057657D01*
X057460Y022803D02*
Y023197D01*
X056263Y023000D02*
X056657D01*
X056460Y022803D02*
Y023197D01*
X055263Y023000D02*
X055657D01*
X055460Y022803D02*
Y023197D01*
X054263Y023000D02*
X054657D01*
X054460Y022803D02*
Y023197D01*
X053263Y023000D02*
X053657D01*
X053460Y022803D02*
Y023197D01*
X057002Y018000D02*
X057198D01*
X057100Y017902D02*
Y018098D01*
X057002Y021500D02*
X057198D01*
X057100Y021402D02*
Y021598D01*
X055952Y018000D02*
X056148D01*
X056050Y017902D02*
Y018098D01*
X055952Y021500D02*
X056148D01*
X056050Y021402D02*
Y021598D01*
X054952Y018000D02*
X055148D01*
X055050Y017902D02*
Y018098D01*
X054952Y021500D02*
X055148D01*
X055050Y021402D02*
Y021598D01*
X053852Y018000D02*
X054048D01*
X053950Y017902D02*
Y018098D01*
X053852Y021500D02*
X054048D01*
X053950Y021402D02*
Y021598D01*
X024463Y022480D02*
X024857D01*
X024660Y022283D02*
Y022677D01*
X024453Y024250D02*
X024847D01*
X024650Y024053D02*
Y024447D01*
X021903Y024240D02*
X022297D01*
X022100Y024043D02*
Y024437D01*
X021903Y022480D02*
X022297D01*
X022100Y022283D02*
Y022677D01*
X045853Y028400D02*
X046247D01*
X046050Y028203D02*
Y028597D01*
X045853Y023400D02*
X046247D01*
X046050Y023203D02*
Y023597D01*
X045853Y024400D02*
X046247D01*
X046050Y024203D02*
Y024597D01*
X045853Y025400D02*
X046247D01*
X046050Y025203D02*
Y025597D01*
X045853Y026400D02*
X046247D01*
X046050Y026203D02*
Y026597D01*
X045853Y027400D02*
X046247D01*
X046050Y027203D02*
Y027597D01*
X045853Y029400D02*
X046247D01*
X046050Y029203D02*
Y029597D01*
X045853Y030400D02*
X046247D01*
X046050Y030203D02*
Y030597D01*
X030553Y028550D02*
X030947D01*
X030750Y028353D02*
Y028747D01*
X056353Y042550D02*
X056747D01*
X056550Y042353D02*
Y042747D01*
X056353Y043550D02*
X056747D01*
X056550Y043353D02*
Y043747D01*
X049725Y043200D02*
X050075D01*
X049900Y043025D02*
Y043375D01*
X048725Y045200D02*
X049075D01*
X048900Y045025D02*
Y045375D01*
X047725Y043200D02*
X048075D01*
X047900Y043025D02*
Y043375D01*
X038375Y046350D02*
X039125D01*
X038750Y045975D02*
Y046725D01*
X037550Y044350D02*
X037950D01*
X037750Y044150D02*
Y044550D01*
X038550Y044350D02*
X038950D01*
X038750Y044150D02*
Y044550D01*
X039550Y044350D02*
X039950D01*
X039750Y044150D02*
Y044550D01*
X022003Y029090D02*
X022397D01*
X022200Y028893D02*
Y029287D01*
X022003Y030850D02*
X022397D01*
X022200Y030653D02*
Y031047D01*
X024553Y030860D02*
X024947D01*
X024750Y030663D02*
Y031057D01*
X024563Y029090D02*
X024957D01*
X024760Y028893D02*
Y029287D01*
X021943Y032750D02*
X022337D01*
X022140Y032553D02*
Y032947D01*
X021943Y034510D02*
X022337D01*
X022140Y034313D02*
Y034707D01*
X024493Y034520D02*
X024887D01*
X024690Y034323D02*
Y034717D01*
X024503Y032750D02*
X024897D01*
X024700Y032553D02*
Y032947D01*
X021993Y036350D02*
X022387D01*
X022190Y036153D02*
Y036547D01*
X021993Y038110D02*
X022387D01*
X022190Y037913D02*
Y038307D01*
X024543Y038120D02*
X024937D01*
X024740Y037923D02*
Y038317D01*
X024553Y036350D02*
X024947D01*
X024750Y036153D02*
Y036547D01*
X024553Y041800D02*
X024947D01*
X024750Y041603D02*
Y041997D01*
X024553Y040040D02*
X024947D01*
X024750Y039843D02*
Y040237D01*
X022003Y040030D02*
X022397D01*
X022200Y039833D02*
Y040227D01*
X021993Y041800D02*
X022387D01*
X022190Y041603D02*
Y041997D01*
X040127Y016100D02*
X040437D01*
X040282Y015945D02*
Y016255D01*
X040127Y019600D02*
X040437D01*
X040282Y019445D02*
Y019755D01*
X039027Y016100D02*
X039337D01*
X039181Y015945D02*
Y016255D01*
X039027Y019600D02*
X039337D01*
X039181Y019445D02*
Y019755D01*
X025395Y025750D02*
X025705D01*
X025550Y025595D02*
Y025905D01*
X021895Y025750D02*
X022205D01*
X022050Y025595D02*
Y025905D01*
X034440Y038550D02*
X034760D01*
X034600Y038390D02*
Y038710D01*
X034440Y036550D02*
X034760D01*
X034600Y036390D02*
Y036710D01*
X034440Y034550D02*
X034760D01*
X034600Y034390D02*
Y034710D01*
X034440Y033550D02*
X034760D01*
X034600Y033390D02*
Y033710D01*
X034440Y032550D02*
X034760D01*
X034600Y032390D02*
Y032710D01*
X034440Y031550D02*
X034760D01*
X034600Y031390D02*
Y031710D01*
X034440Y035550D02*
X034760D01*
X034600Y035390D02*
Y035710D01*
X034440Y037550D02*
X034760D01*
X034600Y037390D02*
Y037710D01*
X034440Y039550D02*
X034760D01*
X034600Y039390D02*
Y039710D01*
X047752Y018400D02*
X047948D01*
X047850Y018302D02*
Y018498D01*
X047752Y014900D02*
X047948D01*
X047850Y014802D02*
Y014998D01*
X042895Y043700D02*
X043205D01*
X043050Y043545D02*
Y043855D01*
X042895Y047200D02*
X043205D01*
X043050Y047045D02*
Y047355D01*
X023490Y014700D02*
X023810D01*
X023650Y014540D02*
Y014860D01*
X025490Y014700D02*
X025810D01*
X025650Y014540D02*
Y014860D01*
X027490Y014700D02*
X027810D01*
X027650Y014540D02*
Y014860D01*
X028490Y014700D02*
X028810D01*
X028650Y014540D02*
Y014860D01*
X029490Y014700D02*
X029810D01*
X029650Y014540D02*
Y014860D01*
X030490Y014700D02*
X030810D01*
X030650Y014540D02*
Y014860D01*
X026490Y014700D02*
X026810D01*
X026650Y014540D02*
Y014860D01*
X024490Y014700D02*
X024810D01*
X024650Y014540D02*
Y014860D01*
X022490Y014700D02*
X022810D01*
X022650Y014540D02*
Y014860D01*
X048873Y032750D02*
X049227D01*
X049050Y032573D02*
Y032927D01*
X048873Y031750D02*
X049227D01*
X049050Y031573D02*
Y031927D01*
X048873Y030750D02*
X049227D01*
X049050Y030573D02*
Y030927D01*
X048873Y029750D02*
X049227D01*
X049050Y029573D02*
Y029927D01*
X048873Y028750D02*
X049227D01*
X049050Y028573D02*
Y028927D01*
X048873Y027750D02*
X049227D01*
X049050Y027573D02*
Y027927D01*
X048873Y026750D02*
X049227D01*
X049050Y026573D02*
Y026927D01*
X048873Y025750D02*
X049227D01*
X049050Y025573D02*
Y025927D01*
X048873Y024750D02*
X049227D01*
X049050Y024573D02*
Y024927D01*
X048873Y023750D02*
X049227D01*
X049050Y023573D02*
Y023927D01*
X048873Y022750D02*
X049227D01*
X049050Y022573D02*
Y022927D01*
X048873Y021750D02*
X049227D01*
X049050Y021573D02*
Y021927D01*
X048873Y020750D02*
X049227D01*
X049050Y020573D02*
Y020927D01*
X048873Y019750D02*
X049227D01*
X049050Y019573D02*
Y019927D01*
X048873Y018750D02*
X049227D01*
X049050Y018573D02*
Y018927D01*
X048873Y017750D02*
X049227D01*
X049050Y017573D02*
Y017927D01*
X028303Y033800D02*
X028697D01*
X028500Y033603D02*
Y033997D01*
X028303Y032800D02*
X028697D01*
X028500Y032603D02*
Y032997D01*
X028303Y031800D02*
X028697D01*
X028500Y031603D02*
Y031997D01*
X028303Y030800D02*
X028697D01*
X028500Y030603D02*
Y030997D01*
X028303Y029800D02*
X028697D01*
X028500Y029603D02*
Y029997D01*
X027303Y029800D02*
X027697D01*
X027500Y029603D02*
Y029997D01*
X027303Y030800D02*
X027697D01*
X027500Y030603D02*
Y030997D01*
X027303Y031800D02*
X027697D01*
X027500Y031603D02*
Y031997D01*
X027303Y032800D02*
X027697D01*
X027500Y032603D02*
Y032997D01*
X027303Y033800D02*
X027697D01*
X027500Y033603D02*
Y033997D01*
X031090Y018950D02*
X031410D01*
X031250Y018790D02*
Y019110D01*
X031090Y017950D02*
X031410D01*
X031250Y017790D02*
Y018110D01*
X029790Y018950D02*
X030110D01*
X029950Y018790D02*
Y019110D01*
X029790Y017950D02*
X030110D01*
X029950Y017790D02*
Y018110D01*
X028490Y018950D02*
X028810D01*
X028650Y018790D02*
Y019110D01*
X028490Y017950D02*
X028810D01*
X028650Y017790D02*
Y018110D01*
X045193Y045300D02*
X045507D01*
X045350Y045143D02*
Y045457D01*
X045193Y044300D02*
X045507D01*
X045350Y044143D02*
Y044457D01*
X027190Y018950D02*
X027510D01*
X027350Y018790D02*
Y019110D01*
X027190Y017950D02*
X027510D01*
X027350Y017790D02*
Y018110D01*
X025890Y018950D02*
X026210D01*
X026050Y018790D02*
Y019110D01*
X025890Y017950D02*
X026210D01*
X026050Y017790D02*
Y018110D01*
X024590Y018950D02*
X024910D01*
X024750Y018790D02*
Y019110D01*
X024590Y017950D02*
X024910D01*
X024750Y017790D02*
Y018110D01*
X023290Y018950D02*
X023610D01*
X023450Y018790D02*
Y019110D01*
X023290Y017950D02*
X023610D01*
X023450Y017790D02*
Y018110D01*
X021990Y018950D02*
X022310D01*
X022150Y018790D02*
Y019110D01*
X021990Y017950D02*
X022310D01*
X022150Y017790D02*
Y018110D01*
X038185Y014700D02*
X038578D01*
X038382Y014503D02*
Y014897D01*
X039169Y014700D02*
X039563D01*
X039366Y014503D02*
Y014897D01*
X040153Y014700D02*
X040547D01*
X040350Y014503D02*
Y014897D01*
X041137Y014700D02*
X041531D01*
X041334Y014503D02*
Y014897D01*
X042122Y014700D02*
X042515D01*
X042319Y014503D02*
Y014897D01*
X043106Y014700D02*
X043500D01*
X043303Y014503D02*
Y014897D01*
X045703Y040650D02*
X046097D01*
X045900Y040453D02*
Y040847D01*
X045703Y039650D02*
X046097D01*
X045900Y039453D02*
Y039847D01*
X045703Y037650D02*
X046097D01*
X045900Y037453D02*
Y037847D01*
X045703Y036650D02*
X046097D01*
X045900Y036453D02*
Y036847D01*
X045703Y035650D02*
X046097D01*
X045900Y035453D02*
Y035847D01*
X045703Y034650D02*
X046097D01*
X045900Y034453D02*
Y034847D01*
X045703Y033650D02*
X046097D01*
X045900Y033453D02*
Y033847D01*
X045703Y038650D02*
X046097D01*
X045900Y038453D02*
Y038847D01*
X030503Y031650D02*
X030897D01*
X030700Y031453D02*
Y031847D01*
X030553Y033850D02*
X030947D01*
X030750Y033653D02*
Y034047D01*
X034195Y029000D02*
X034505D01*
X034350Y028845D02*
Y029155D01*
X034195Y028000D02*
X034505D01*
X034350Y027845D02*
Y028155D01*
X035195Y030200D02*
X035505D01*
X035350Y030045D02*
Y030355D01*
X035195Y029200D02*
X035505D01*
X035350Y029045D02*
Y029355D01*
X040945Y030450D02*
X041255D01*
X041100Y030295D02*
Y030605D01*
X040945Y031450D02*
X041255D01*
X041100Y031295D02*
Y031605D01*
X028093Y025400D02*
X028407D01*
X028250Y025243D02*
Y025557D01*
X028093Y024400D02*
X028407D01*
X028250Y024243D02*
Y024557D01*
X038645Y030450D02*
X038955D01*
X038800Y030295D02*
Y030605D01*
X038645Y031450D02*
X038955D01*
X038800Y031295D02*
Y031605D01*
X039845Y030450D02*
X040155D01*
X040000Y030295D02*
Y030605D01*
X039845Y031450D02*
X040155D01*
X040000Y031295D02*
Y031605D01*
X052990Y043000D02*
X053310D01*
X053150Y042840D02*
Y043160D01*
X052990Y044500D02*
X053310D01*
X053150Y044340D02*
Y044660D01*
X033190Y045950D02*
X033510D01*
X033350Y045790D02*
Y046110D01*
X033190Y044450D02*
X033510D01*
X033350Y044290D02*
Y044610D01*
X034003Y014650D02*
X034397D01*
X034200Y014453D02*
Y014847D01*
X033003Y014650D02*
X033397D01*
X033200Y014453D02*
Y014847D01*
X032953Y026700D02*
X033347D01*
X033150Y026503D02*
Y026897D01*
X032953Y025700D02*
X033347D01*
X033150Y025503D02*
Y025897D01*
X032953Y023700D02*
X033347D01*
X033150Y023503D02*
Y023897D01*
X032953Y022700D02*
X033347D01*
X033150Y022503D02*
Y022897D01*
X032953Y021700D02*
X033347D01*
X033150Y021503D02*
Y021897D01*
X032953Y020700D02*
X033347D01*
X033150Y020503D02*
Y020897D01*
X032953Y019700D02*
X033347D01*
X033150Y019503D02*
Y019897D01*
X032953Y024700D02*
X033347D01*
X033150Y024503D02*
Y024897D01*
X032053Y039100D02*
X032447D01*
X032250Y038903D02*
Y039297D01*
X032053Y038100D02*
X032447D01*
X032250Y037903D02*
Y038297D01*
X032053Y036100D02*
X032447D01*
X032250Y035903D02*
Y036297D01*
X032053Y035100D02*
X032447D01*
X032250Y034903D02*
Y035297D01*
X032053Y034100D02*
X032447D01*
X032250Y033903D02*
Y034297D01*
X032053Y033100D02*
X032447D01*
X032250Y032903D02*
Y033297D01*
X032053Y032100D02*
X032447D01*
X032250Y031903D02*
Y032297D01*
X032053Y037100D02*
X032447D01*
X032250Y036903D02*
Y037297D01*
X033260Y031400D02*
X033540D01*
X033400Y031260D02*
Y031540D01*
X035710Y031550D02*
X035990D01*
X035850Y031410D02*
Y031690D01*
M02*
