G04*
G04 #@! TF.GenerationSoftware,Altium Limited,Altium Designer,21.0.8 (223)*
G04*
G04 Layer_Physical_Order=1*
G04 Layer_Color=255*
%FSAX24Y24*%
%MOIN*%
G70*
G04*
G04 #@! TF.SameCoordinates,60160E94-E268-4AC3-8077-459848BE01EC*
G04*
G04*
G04 #@! TF.FilePolarity,Positive*
G04*
G01*
G75*
%ADD16C,0.0600*%
%ADD50C,0.0250*%
%ADD51C,0.0200*%
%ADD52C,0.0700*%
%ADD53O,0.0900X0.0600*%
%ADD54R,0.0900X0.0600*%
%ADD55C,0.1000*%
%ADD56R,0.1000X0.1000*%
%ADD57R,0.1600X0.1000*%
%ADD58R,0.1000X0.1600*%
%ADD59C,0.0750*%
%ADD60C,0.0591*%
%ADD61R,0.0591X0.0591*%
%ADD62C,0.0709*%
%ADD63R,0.0700X0.0700*%
G04:AMPARAMS|DCode=64|XSize=70mil|YSize=90mil|CornerRadius=0mil|HoleSize=0mil|Usage=FLASHONLY|Rotation=0.000|XOffset=0mil|YOffset=0mil|HoleType=Round|Shape=Octagon|*
%AMOCTAGOND64*
4,1,8,-0.0175,0.0450,0.0175,0.0450,0.0350,0.0275,0.0350,-0.0275,0.0175,-0.0450,-0.0175,-0.0450,-0.0350,-0.0275,-0.0350,0.0275,-0.0175,0.0450,0.0*
%
%ADD64OCTAGOND64*%

%ADD65O,0.1000X0.0600*%
%ADD66R,0.1000X0.0600*%
%ADD67O,0.0600X0.1000*%
%ADD68R,0.0600X0.1000*%
%ADD69R,0.0591X0.0591*%
%ADD70O,0.0787X0.0591*%
%ADD71R,0.0787X0.0591*%
%ADD72O,0.1000X0.0650*%
%ADD73R,0.1000X0.0650*%
%ADD74C,0.0512*%
%ADD75R,0.0700X0.0700*%
%ADD76R,0.0591X0.0512*%
%ADD77O,0.0591X0.0512*%
%ADD78R,0.1000X0.0700*%
%ADD79O,0.1000X0.0700*%
%ADD80C,0.0500*%
G36*
X058747Y012953D02*
X020203D01*
Y049697D01*
X058747D01*
Y012953D01*
D02*
G37*
%LPC*%
G36*
X031150Y048500D02*
X029750D01*
Y047100D01*
X031150D01*
Y048500D01*
D02*
G37*
G36*
X043122Y047750D02*
X042978D01*
X042838Y047713D01*
X042712Y047640D01*
X042610Y047538D01*
X042537Y047412D01*
X042500Y047272D01*
Y047128D01*
X042537Y046988D01*
X042610Y046862D01*
X042712Y046760D01*
X042838Y046687D01*
X042978Y046650D01*
X043122D01*
X043262Y046687D01*
X043388Y046760D01*
X043490Y046862D01*
X043563Y046988D01*
X043600Y047128D01*
Y047272D01*
X043563Y047412D01*
X043490Y047538D01*
X043388Y047640D01*
X043262Y047713D01*
X043122Y047750D01*
D02*
G37*
G36*
X038809Y046950D02*
X038800D01*
Y046400D01*
X039350D01*
Y046409D01*
X039327Y046525D01*
X039282Y046634D01*
X039216Y046732D01*
X039132Y046816D01*
X039034Y046882D01*
X038925Y046927D01*
X038809Y046950D01*
D02*
G37*
G36*
X038700D02*
X038691D01*
X038575Y046927D01*
X038466Y046882D01*
X038368Y046816D01*
X038284Y046732D01*
X038218Y046634D01*
X038173Y046525D01*
X038150Y046409D01*
Y046400D01*
X038700D01*
Y046950D01*
D02*
G37*
G36*
X039350Y046300D02*
X038800D01*
Y045750D01*
X038809D01*
X038925Y045773D01*
X039034Y045818D01*
X039132Y045884D01*
X039216Y045968D01*
X039282Y046066D01*
X039327Y046175D01*
X039350Y046291D01*
Y046300D01*
D02*
G37*
G36*
X038700D02*
X038150D01*
Y046291D01*
X038173Y046175D01*
X038218Y046066D01*
X038284Y045968D01*
X038368Y045884D01*
X038466Y045818D01*
X038575Y045773D01*
X038691Y045750D01*
X038700D01*
Y046300D01*
D02*
G37*
G36*
X028300Y045950D02*
X027450D01*
Y045400D01*
X028300D01*
Y045950D01*
D02*
G37*
G36*
X034050Y046500D02*
X032650D01*
Y045400D01*
X034050D01*
Y046500D01*
D02*
G37*
G36*
X027350Y045950D02*
X026500D01*
Y045400D01*
X027350D01*
Y045950D01*
D02*
G37*
G36*
X045410Y045756D02*
X045290D01*
X045174Y045725D01*
X045070Y045665D01*
X044985Y045580D01*
X044925Y045476D01*
X044894Y045360D01*
Y045240D01*
X044925Y045124D01*
X044985Y045020D01*
X045070Y044935D01*
X045174Y044875D01*
X045290Y044844D01*
X045410D01*
X045526Y044875D01*
X045630Y044935D01*
X045715Y045020D01*
X045775Y045124D01*
X045806Y045240D01*
Y045360D01*
X045775Y045476D01*
X045715Y045580D01*
X045630Y045665D01*
X045526Y045725D01*
X045410Y045756D01*
D02*
G37*
G36*
X028300Y045300D02*
X027450D01*
Y044750D01*
X028300D01*
Y045300D01*
D02*
G37*
G36*
X027350D02*
X026500D01*
Y044750D01*
X027350D01*
Y045300D01*
D02*
G37*
G36*
X040025Y045000D02*
X039475D01*
X039200Y044725D01*
X039165Y044710D01*
X038975Y044900D01*
X038800D01*
Y044350D01*
Y043800D01*
X038975D01*
X039165Y043990D01*
X039200Y043975D01*
X039475Y043700D01*
X040025D01*
X040300Y043975D01*
Y044725D01*
X040025Y045000D01*
D02*
G37*
G36*
X048976Y045775D02*
X048824D01*
X048678Y045736D01*
X048547Y045660D01*
X048440Y045553D01*
X048364Y045422D01*
X048325Y045276D01*
Y045124D01*
X048364Y044978D01*
X048440Y044847D01*
X048547Y044740D01*
X048678Y044664D01*
X048824Y044625D01*
X048976D01*
X049122Y044664D01*
X049253Y044740D01*
X049360Y044847D01*
X049436Y044978D01*
X049475Y045124D01*
Y045276D01*
X049436Y045422D01*
X049360Y045553D01*
X049253Y045660D01*
X049122Y045736D01*
X048976Y045775D01*
D02*
G37*
G36*
X053300Y044954D02*
X053200D01*
Y044550D01*
X053747D01*
X053738Y044617D01*
X053693Y044727D01*
X053621Y044821D01*
X053527Y044893D01*
X053417Y044938D01*
X053300Y044954D01*
D02*
G37*
G36*
X053100D02*
X053000D01*
X052883Y044938D01*
X052773Y044893D01*
X052679Y044821D01*
X052607Y044727D01*
X052562Y044617D01*
X052553Y044550D01*
X053100D01*
Y044954D01*
D02*
G37*
G36*
X033500Y044904D02*
X033400D01*
Y044500D01*
X033947D01*
X033938Y044567D01*
X033893Y044677D01*
X033821Y044771D01*
X033727Y044843D01*
X033617Y044888D01*
X033500Y044904D01*
D02*
G37*
G36*
X033300D02*
X033200D01*
X033083Y044888D01*
X032973Y044843D01*
X032879Y044771D01*
X032807Y044677D01*
X032762Y044567D01*
X032753Y044500D01*
X033300D01*
Y044904D01*
D02*
G37*
G36*
X045400Y044655D02*
Y044350D01*
X045705D01*
X045682Y044437D01*
X045635Y044519D01*
X045569Y044585D01*
X045487Y044632D01*
X045400Y044655D01*
D02*
G37*
G36*
X045300D02*
X045213Y044632D01*
X045131Y044585D01*
X045065Y044519D01*
X045018Y044437D01*
X044995Y044350D01*
X045300D01*
Y044655D01*
D02*
G37*
G36*
X053747Y044450D02*
X053200D01*
Y044046D01*
X053300D01*
X053417Y044062D01*
X053527Y044107D01*
X053621Y044179D01*
X053693Y044273D01*
X053738Y044383D01*
X053747Y044450D01*
D02*
G37*
G36*
X053100D02*
X052553D01*
X052562Y044383D01*
X052607Y044273D01*
X052679Y044179D01*
X052773Y044107D01*
X052883Y044062D01*
X053000Y044046D01*
X053100D01*
Y044450D01*
D02*
G37*
G36*
X033947Y044400D02*
X033400D01*
Y043996D01*
X033500D01*
X033617Y044012D01*
X033727Y044057D01*
X033821Y044129D01*
X033893Y044223D01*
X033938Y044333D01*
X033947Y044400D01*
D02*
G37*
G36*
X033300D02*
X032753D01*
X032762Y044333D01*
X032807Y044223D01*
X032879Y044129D01*
X032973Y044057D01*
X033083Y044012D01*
X033200Y043996D01*
X033300D01*
Y044400D01*
D02*
G37*
G36*
X045705Y044250D02*
X045400D01*
Y043945D01*
X045487Y043968D01*
X045569Y044015D01*
X045635Y044081D01*
X045682Y044163D01*
X045705Y044250D01*
D02*
G37*
G36*
X045300D02*
X044995D01*
X045018Y044163D01*
X045065Y044081D01*
X045131Y044015D01*
X045213Y043968D01*
X045300Y043945D01*
Y044250D01*
D02*
G37*
G36*
X026000Y044750D02*
X025450D01*
Y043900D01*
X026000D01*
Y044750D01*
D02*
G37*
G36*
X025350D02*
X024800D01*
Y043900D01*
X025350D01*
Y044750D01*
D02*
G37*
G36*
X038025Y045000D02*
X037475D01*
X037200Y044725D01*
Y043975D01*
X037475Y043700D01*
X038025D01*
X038300Y043975D01*
X038335Y043990D01*
X038525Y043800D01*
X038700D01*
Y044350D01*
Y044900D01*
X038525D01*
X038335Y044710D01*
X038300Y044725D01*
X038025Y045000D01*
D02*
G37*
G36*
X049963Y043675D02*
X049950D01*
Y043250D01*
X050375D01*
Y043263D01*
X050343Y043383D01*
X050280Y043492D01*
X050192Y043580D01*
X050083Y043643D01*
X049963Y043675D01*
D02*
G37*
G36*
X049850D02*
X049837D01*
X049717Y043643D01*
X049608Y043580D01*
X049520Y043492D01*
X049457Y043383D01*
X049425Y043263D01*
Y043250D01*
X049850D01*
Y043675D01*
D02*
G37*
G36*
X043122Y044250D02*
X042978D01*
X042838Y044213D01*
X042712Y044140D01*
X042610Y044038D01*
X042537Y043912D01*
X042500Y043772D01*
Y043628D01*
X042537Y043488D01*
X042610Y043362D01*
X042712Y043260D01*
X042838Y043187D01*
X042978Y043150D01*
X043122D01*
X043262Y043187D01*
X043388Y043260D01*
X043490Y043362D01*
X043563Y043488D01*
X043600Y043628D01*
Y043772D01*
X043563Y043912D01*
X043490Y044038D01*
X043388Y044140D01*
X043262Y044213D01*
X043122Y044250D01*
D02*
G37*
G36*
X026000Y043800D02*
X025450D01*
Y042950D01*
X026000D01*
Y043800D01*
D02*
G37*
G36*
X025350D02*
X024800D01*
Y042950D01*
X025350D01*
Y043800D01*
D02*
G37*
G36*
X050375Y043150D02*
X049950D01*
Y042725D01*
X049963D01*
X050083Y042757D01*
X050192Y042820D01*
X050280Y042908D01*
X050343Y043017D01*
X050375Y043137D01*
Y043150D01*
D02*
G37*
G36*
X049850D02*
X049425D01*
Y043137D01*
X049457Y043017D01*
X049520Y042908D01*
X049608Y042820D01*
X049717Y042757D01*
X049837Y042725D01*
X049850D01*
Y043150D01*
D02*
G37*
G36*
X047976Y043775D02*
X047824D01*
X047678Y043736D01*
X047547Y043660D01*
X047440Y043553D01*
X047364Y043422D01*
X047325Y043276D01*
Y043124D01*
X047364Y042978D01*
X047440Y042847D01*
X047547Y042740D01*
X047678Y042664D01*
X047824Y042625D01*
X047976D01*
X048122Y042664D01*
X048253Y042740D01*
X048360Y042847D01*
X048436Y042978D01*
X048475Y043124D01*
Y043276D01*
X048436Y043422D01*
X048360Y043553D01*
X048253Y043660D01*
X048122Y043736D01*
X047976Y043775D01*
D02*
G37*
G36*
X030519Y044000D02*
X030381D01*
X030246Y043973D01*
X030118Y043920D01*
X030004Y043844D01*
X029906Y043746D01*
X029830Y043632D01*
X029777Y043504D01*
X029750Y043369D01*
Y043231D01*
X029777Y043096D01*
X029830Y042968D01*
X029906Y042854D01*
X030004Y042756D01*
X030118Y042680D01*
X030246Y042627D01*
X030381Y042600D01*
X030519D01*
X030654Y042627D01*
X030782Y042680D01*
X030896Y042756D01*
X030994Y042854D01*
X031070Y042968D01*
X031123Y043096D01*
X031150Y043231D01*
Y043369D01*
X031123Y043504D01*
X031070Y043632D01*
X030994Y043746D01*
X030896Y043844D01*
X030782Y043920D01*
X030654Y043973D01*
X030519Y044000D01*
D02*
G37*
G36*
X053850Y043550D02*
X052450D01*
Y042450D01*
X053850D01*
Y043550D01*
D02*
G37*
G36*
X028400D02*
X026400D01*
Y042150D01*
X028400D01*
Y043550D01*
D02*
G37*
G36*
X057100Y044100D02*
X056000D01*
Y043000D01*
X056151D01*
X056172Y042950D01*
X056110Y042888D01*
X056037Y042762D01*
X056000Y042622D01*
Y042478D01*
X056037Y042338D01*
X056110Y042212D01*
X056212Y042110D01*
X056338Y042037D01*
X056478Y042000D01*
X056622D01*
X056762Y042037D01*
X056888Y042110D01*
X056990Y042212D01*
X057063Y042338D01*
X057100Y042478D01*
Y042622D01*
X057063Y042762D01*
X056990Y042888D01*
X056928Y042950D01*
X056949Y043000D01*
X057100D01*
Y044100D01*
D02*
G37*
G36*
X049959Y042350D02*
X049950D01*
Y041950D01*
X050350D01*
Y041959D01*
X050319Y042074D01*
X050260Y042176D01*
X050176Y042260D01*
X050074Y042319D01*
X049959Y042350D01*
D02*
G37*
G36*
X022250Y042254D02*
X022240D01*
Y041850D01*
X022644D01*
Y041860D01*
X022613Y041975D01*
X022554Y042079D01*
X022469Y042164D01*
X022365Y042223D01*
X022250Y042254D01*
D02*
G37*
G36*
X022140D02*
X022130D01*
X022015Y042223D01*
X021911Y042164D01*
X021826Y042079D01*
X021767Y041975D01*
X021736Y041860D01*
Y041850D01*
X022140D01*
Y042254D01*
D02*
G37*
G36*
X050350Y041850D02*
X049950D01*
Y041450D01*
X049959D01*
X050074Y041481D01*
X050176Y041540D01*
X050260Y041624D01*
X050319Y041726D01*
X050350Y041841D01*
Y041850D01*
D02*
G37*
G36*
X048972Y042450D02*
X048828D01*
X048688Y042413D01*
X048562Y042340D01*
X048460Y042238D01*
X048387Y042112D01*
X048350Y041972D01*
Y041828D01*
X048387Y041688D01*
X048460Y041562D01*
X048562Y041460D01*
X048688Y041387D01*
X048828Y041350D01*
X048972D01*
X049112Y041387D01*
X049238Y041460D01*
X049340Y041562D01*
X049413Y041688D01*
X049426Y041738D01*
X049478D01*
X049481Y041726D01*
X049540Y041624D01*
X049624Y041540D01*
X049726Y041481D01*
X049841Y041450D01*
X049850D01*
Y041900D01*
Y042350D01*
X049841D01*
X049726Y042319D01*
X049624Y042260D01*
X049540Y042176D01*
X049481Y042074D01*
X049478Y042062D01*
X049426D01*
X049413Y042112D01*
X049340Y042238D01*
X049238Y042340D01*
X049112Y042413D01*
X048972Y042450D01*
D02*
G37*
G36*
X022644Y041750D02*
X022240D01*
Y041346D01*
X022250D01*
X022365Y041377D01*
X022469Y041436D01*
X022554Y041521D01*
X022613Y041625D01*
X022644Y041740D01*
Y041750D01*
D02*
G37*
G36*
X022140D02*
X021736D01*
Y041740D01*
X021767Y041625D01*
X021826Y041521D01*
X021911Y041436D01*
X022015Y041377D01*
X022130Y041346D01*
X022140D01*
Y041750D01*
D02*
G37*
G36*
X024823Y042354D02*
X024677D01*
X024536Y042317D01*
X024410Y042244D01*
X024306Y042140D01*
X024233Y042014D01*
X024196Y041873D01*
Y041727D01*
X024233Y041586D01*
X024306Y041460D01*
X024410Y041356D01*
X024536Y041283D01*
X024677Y041246D01*
X024823D01*
X024964Y041283D01*
X025090Y041356D01*
X025194Y041460D01*
X025267Y041586D01*
X025304Y041727D01*
Y041873D01*
X025267Y042014D01*
X025194Y042140D01*
X025090Y042244D01*
X024964Y042317D01*
X024823Y042354D01*
D02*
G37*
G36*
X024810Y040494D02*
X024800D01*
Y040090D01*
X025204D01*
Y040100D01*
X025173Y040215D01*
X025114Y040319D01*
X025029Y040404D01*
X024925Y040463D01*
X024810Y040494D01*
D02*
G37*
G36*
X024700D02*
X024690D01*
X024575Y040463D01*
X024471Y040404D01*
X024386Y040319D01*
X024327Y040215D01*
X024296Y040100D01*
Y040090D01*
X024700D01*
Y040494D01*
D02*
G37*
G36*
X025204Y039990D02*
X024800D01*
Y039586D01*
X024810D01*
X024925Y039617D01*
X025029Y039676D01*
X025114Y039761D01*
X025173Y039865D01*
X025204Y039980D01*
Y039990D01*
D02*
G37*
G36*
X024700D02*
X024296D01*
Y039980D01*
X024327Y039865D01*
X024386Y039761D01*
X024471Y039676D01*
X024575Y039617D01*
X024690Y039586D01*
X024700D01*
Y039990D01*
D02*
G37*
G36*
X022273Y040584D02*
X022127D01*
X021986Y040547D01*
X021860Y040474D01*
X021756Y040370D01*
X021683Y040244D01*
X021646Y040103D01*
Y039957D01*
X021683Y039816D01*
X021756Y039690D01*
X021860Y039586D01*
X021986Y039513D01*
X022127Y039476D01*
X022273D01*
X022414Y039513D01*
X022540Y039586D01*
X022644Y039690D01*
X022717Y039816D01*
X022754Y039957D01*
Y040103D01*
X022717Y040244D01*
X022644Y040370D01*
X022540Y040474D01*
X022414Y040547D01*
X022273Y040584D01*
D02*
G37*
G36*
X022250Y038564D02*
X022240D01*
Y038160D01*
X022644D01*
Y038170D01*
X022613Y038285D01*
X022554Y038389D01*
X022469Y038474D01*
X022365Y038533D01*
X022250Y038564D01*
D02*
G37*
G36*
X022140D02*
X022130D01*
X022015Y038533D01*
X021911Y038474D01*
X021826Y038389D01*
X021767Y038285D01*
X021736Y038170D01*
Y038160D01*
X022140D01*
Y038564D01*
D02*
G37*
G36*
X022644Y038060D02*
X022240D01*
Y037656D01*
X022250D01*
X022365Y037687D01*
X022469Y037746D01*
X022554Y037831D01*
X022613Y037935D01*
X022644Y038050D01*
Y038060D01*
D02*
G37*
G36*
X022140D02*
X021736D01*
Y038050D01*
X021767Y037935D01*
X021826Y037831D01*
X021911Y037746D01*
X022015Y037687D01*
X022130Y037656D01*
X022140D01*
Y038060D01*
D02*
G37*
G36*
X024813Y038674D02*
X024667D01*
X024526Y038637D01*
X024400Y038564D01*
X024296Y038460D01*
X024223Y038334D01*
X024186Y038193D01*
Y038047D01*
X024223Y037906D01*
X024296Y037780D01*
X024400Y037676D01*
X024526Y037603D01*
X024667Y037566D01*
X024813D01*
X024954Y037603D01*
X025080Y037676D01*
X025184Y037780D01*
X025257Y037906D01*
X025294Y038047D01*
Y038193D01*
X025257Y038334D01*
X025184Y038460D01*
X025080Y038564D01*
X024954Y038637D01*
X024813Y038674D01*
D02*
G37*
G36*
X024810Y036804D02*
X024800D01*
Y036400D01*
X025204D01*
Y036410D01*
X025173Y036525D01*
X025114Y036629D01*
X025029Y036714D01*
X024925Y036773D01*
X024810Y036804D01*
D02*
G37*
G36*
X024700D02*
X024690D01*
X024575Y036773D01*
X024471Y036714D01*
X024386Y036629D01*
X024327Y036525D01*
X024296Y036410D01*
Y036400D01*
X024700D01*
Y036804D01*
D02*
G37*
G36*
X025204Y036300D02*
X024800D01*
Y035896D01*
X024810D01*
X024925Y035927D01*
X025029Y035986D01*
X025114Y036071D01*
X025173Y036175D01*
X025204Y036290D01*
Y036300D01*
D02*
G37*
G36*
X024700D02*
X024296D01*
Y036290D01*
X024327Y036175D01*
X024386Y036071D01*
X024471Y035986D01*
X024575Y035927D01*
X024690Y035896D01*
X024700D01*
Y036300D01*
D02*
G37*
G36*
X022263Y036904D02*
X022117D01*
X021976Y036867D01*
X021850Y036794D01*
X021746Y036690D01*
X021673Y036564D01*
X021636Y036423D01*
Y036277D01*
X021673Y036136D01*
X021746Y036010D01*
X021850Y035906D01*
X021976Y035833D01*
X022117Y035796D01*
X022263D01*
X022404Y035833D01*
X022530Y035906D01*
X022634Y036010D01*
X022707Y036136D01*
X022744Y036277D01*
Y036423D01*
X022707Y036564D01*
X022634Y036690D01*
X022530Y036794D01*
X022404Y036867D01*
X022263Y036904D01*
D02*
G37*
G36*
X022200Y034964D02*
X022190D01*
Y034560D01*
X022594D01*
Y034570D01*
X022563Y034685D01*
X022504Y034789D01*
X022419Y034874D01*
X022315Y034933D01*
X022200Y034964D01*
D02*
G37*
G36*
X022090D02*
X022080D01*
X021965Y034933D01*
X021861Y034874D01*
X021776Y034789D01*
X021717Y034685D01*
X021686Y034570D01*
Y034560D01*
X022090D01*
Y034964D01*
D02*
G37*
G36*
X022594Y034460D02*
X022190D01*
Y034056D01*
X022200D01*
X022315Y034087D01*
X022419Y034146D01*
X022504Y034231D01*
X022563Y034335D01*
X022594Y034450D01*
Y034460D01*
D02*
G37*
G36*
X022090D02*
X021686D01*
Y034450D01*
X021717Y034335D01*
X021776Y034231D01*
X021861Y034146D01*
X021965Y034087D01*
X022080Y034056D01*
X022090D01*
Y034460D01*
D02*
G37*
G36*
X024763Y035074D02*
X024617D01*
X024476Y035037D01*
X024350Y034964D01*
X024246Y034860D01*
X024173Y034734D01*
X024136Y034593D01*
Y034447D01*
X024173Y034306D01*
X024246Y034180D01*
X024350Y034076D01*
X024476Y034003D01*
X024617Y033966D01*
X024763D01*
X024904Y034003D01*
X025030Y034076D01*
X025134Y034180D01*
X025207Y034306D01*
X025244Y034447D01*
Y034593D01*
X025207Y034734D01*
X025134Y034860D01*
X025030Y034964D01*
X024904Y035037D01*
X024763Y035074D01*
D02*
G37*
G36*
X030809Y034450D02*
X030800D01*
Y033900D01*
X031350D01*
Y033909D01*
X031327Y034025D01*
X031282Y034134D01*
X031216Y034232D01*
X031132Y034316D01*
X031034Y034382D01*
X030925Y034427D01*
X030809Y034450D01*
D02*
G37*
G36*
X030700D02*
X030691D01*
X030575Y034427D01*
X030466Y034382D01*
X030368Y034316D01*
X030284Y034232D01*
X030218Y034134D01*
X030173Y034025D01*
X030150Y033909D01*
Y033900D01*
X030700D01*
Y034450D01*
D02*
G37*
G36*
X027450Y034199D02*
X027402D01*
X027298Y034185D01*
X027202Y034145D01*
X027120Y034082D01*
X027056Y033999D01*
X027016Y033903D01*
X027009Y033850D01*
X027450D01*
Y034199D01*
D02*
G37*
G36*
X054015Y034695D02*
X053885D01*
X053759Y034662D01*
X053646Y034596D01*
X053554Y034504D01*
X053488Y034391D01*
X053455Y034265D01*
Y034135D01*
X053488Y034009D01*
X053554Y033896D01*
X053646Y033804D01*
X053759Y033738D01*
X053885Y033705D01*
X054015D01*
X054141Y033738D01*
X054254Y033804D01*
X054346Y033896D01*
X054412Y034009D01*
X054445Y034135D01*
Y034265D01*
X054412Y034391D01*
X054346Y034504D01*
X054254Y034596D01*
X054141Y034662D01*
X054015Y034695D01*
D02*
G37*
G36*
X057215Y034645D02*
X057085D01*
X056959Y034612D01*
X056846Y034546D01*
X056754Y034454D01*
X056688Y034341D01*
X056655Y034215D01*
Y034085D01*
X056688Y033959D01*
X056754Y033846D01*
X056846Y033754D01*
X056959Y033688D01*
X057085Y033655D01*
X057215D01*
X057341Y033688D01*
X057454Y033754D01*
X057546Y033846D01*
X057612Y033959D01*
X057645Y034085D01*
Y034215D01*
X057612Y034341D01*
X057546Y034454D01*
X057454Y034546D01*
X057341Y034612D01*
X057215Y034645D01*
D02*
G37*
G36*
X056165D02*
X056035D01*
X055909Y034612D01*
X055796Y034546D01*
X055704Y034454D01*
X055638Y034341D01*
X055605Y034215D01*
Y034085D01*
X055638Y033959D01*
X055704Y033846D01*
X055796Y033754D01*
X055909Y033688D01*
X056035Y033655D01*
X056165D01*
X056291Y033688D01*
X056404Y033754D01*
X056496Y033846D01*
X056562Y033959D01*
X056595Y034085D01*
Y034215D01*
X056562Y034341D01*
X056496Y034454D01*
X056404Y034546D01*
X056291Y034612D01*
X056165Y034645D01*
D02*
G37*
G36*
X055115D02*
X054985D01*
X054859Y034612D01*
X054746Y034546D01*
X054654Y034454D01*
X054588Y034341D01*
X054555Y034215D01*
Y034085D01*
X054588Y033959D01*
X054654Y033846D01*
X054746Y033754D01*
X054859Y033688D01*
X054985Y033655D01*
X055115D01*
X055241Y033688D01*
X055354Y033754D01*
X055446Y033846D01*
X055512Y033959D01*
X055545Y034085D01*
Y034215D01*
X055512Y034341D01*
X055446Y034454D01*
X055354Y034546D01*
X055241Y034612D01*
X055115Y034645D01*
D02*
G37*
G36*
X027450Y033750D02*
X027009D01*
X027016Y033697D01*
X027056Y033601D01*
X027120Y033518D01*
X027202Y033455D01*
X027298Y033415D01*
X027402Y033401D01*
X027450D01*
Y033750D01*
D02*
G37*
G36*
X031350Y033800D02*
X030800D01*
Y033250D01*
X030809D01*
X030925Y033273D01*
X031034Y033318D01*
X031132Y033384D01*
X031216Y033468D01*
X031282Y033566D01*
X031327Y033675D01*
X031350Y033791D01*
Y033800D01*
D02*
G37*
G36*
X030700D02*
X030150D01*
Y033791D01*
X030173Y033675D01*
X030218Y033566D01*
X030284Y033468D01*
X030368Y033384D01*
X030466Y033318D01*
X030575Y033273D01*
X030691Y033250D01*
X030700D01*
Y033800D01*
D02*
G37*
G36*
X046450Y041200D02*
X045350D01*
Y040100D01*
X045501D01*
X045522Y040050D01*
X045460Y039988D01*
X045387Y039862D01*
X045350Y039722D01*
Y039578D01*
X045387Y039438D01*
X045460Y039312D01*
X045562Y039210D01*
X045623Y039175D01*
Y039125D01*
X045562Y039090D01*
X045460Y038988D01*
X045387Y038862D01*
X045350Y038722D01*
Y038578D01*
X045387Y038438D01*
X045460Y038312D01*
X045562Y038210D01*
X045623Y038175D01*
Y038125D01*
X045562Y038090D01*
X045460Y037988D01*
X045387Y037862D01*
X045350Y037722D01*
Y037578D01*
X045387Y037438D01*
X045460Y037312D01*
X045562Y037210D01*
X045623Y037175D01*
Y037125D01*
X045562Y037090D01*
X045460Y036988D01*
X045387Y036862D01*
X045350Y036722D01*
Y036578D01*
X045387Y036438D01*
X045460Y036312D01*
X045562Y036210D01*
X045623Y036175D01*
Y036125D01*
X045562Y036090D01*
X045460Y035988D01*
X045387Y035862D01*
X045350Y035722D01*
Y035578D01*
X045387Y035438D01*
X045460Y035312D01*
X045562Y035210D01*
X045623Y035175D01*
Y035125D01*
X045562Y035090D01*
X045460Y034988D01*
X045387Y034862D01*
X045350Y034722D01*
Y034578D01*
X045387Y034438D01*
X045460Y034312D01*
X045562Y034210D01*
X045623Y034175D01*
Y034125D01*
X045562Y034090D01*
X045460Y033988D01*
X045387Y033862D01*
X045350Y033722D01*
Y033578D01*
X045387Y033438D01*
X045460Y033312D01*
X045562Y033210D01*
X045688Y033137D01*
X045828Y033100D01*
X045972D01*
X046112Y033137D01*
X046238Y033210D01*
X046340Y033312D01*
X046413Y033438D01*
X046450Y033578D01*
Y033722D01*
X046413Y033862D01*
X046340Y033988D01*
X046238Y034090D01*
X046177Y034125D01*
Y034175D01*
X046238Y034210D01*
X046340Y034312D01*
X046413Y034438D01*
X046450Y034578D01*
Y034722D01*
X046413Y034862D01*
X046340Y034988D01*
X046238Y035090D01*
X046177Y035125D01*
Y035175D01*
X046238Y035210D01*
X046340Y035312D01*
X046413Y035438D01*
X046450Y035578D01*
Y035722D01*
X046413Y035862D01*
X046340Y035988D01*
X046238Y036090D01*
X046177Y036125D01*
Y036175D01*
X046238Y036210D01*
X046340Y036312D01*
X046413Y036438D01*
X046450Y036578D01*
Y036722D01*
X046413Y036862D01*
X046340Y036988D01*
X046238Y037090D01*
X046177Y037125D01*
Y037175D01*
X046238Y037210D01*
X046340Y037312D01*
X046413Y037438D01*
X046450Y037578D01*
Y037722D01*
X046413Y037862D01*
X046340Y037988D01*
X046238Y038090D01*
X046177Y038125D01*
Y038175D01*
X046238Y038210D01*
X046340Y038312D01*
X046413Y038438D01*
X046450Y038578D01*
Y038722D01*
X046413Y038862D01*
X046340Y038988D01*
X046238Y039090D01*
X046177Y039125D01*
Y039175D01*
X046238Y039210D01*
X046340Y039312D01*
X046413Y039438D01*
X046447Y039568D01*
X046495Y039592D01*
X049572Y036514D01*
Y032908D01*
X049522Y032901D01*
X049512Y032941D01*
X049446Y033054D01*
X049354Y033146D01*
X049241Y033212D01*
X049115Y033245D01*
X048985D01*
X048859Y033212D01*
X048746Y033146D01*
X048654Y033054D01*
X048588Y032941D01*
X048555Y032815D01*
Y032685D01*
X048588Y032559D01*
X048654Y032446D01*
X048746Y032354D01*
X048859Y032288D01*
X048906Y032276D01*
Y032224D01*
X048859Y032212D01*
X048746Y032146D01*
X048654Y032054D01*
X048588Y031941D01*
X048555Y031815D01*
Y031685D01*
X048588Y031559D01*
X048654Y031446D01*
X048746Y031354D01*
X048859Y031288D01*
X048906Y031276D01*
Y031224D01*
X048859Y031212D01*
X048746Y031146D01*
X048654Y031054D01*
X048588Y030941D01*
X048555Y030815D01*
Y030685D01*
X048588Y030559D01*
X048654Y030446D01*
X048746Y030354D01*
X048859Y030288D01*
X048906Y030276D01*
Y030224D01*
X048859Y030212D01*
X048746Y030146D01*
X048654Y030054D01*
X048588Y029941D01*
X048555Y029815D01*
Y029685D01*
X048588Y029559D01*
X048654Y029446D01*
X048746Y029354D01*
X048859Y029288D01*
X048906Y029276D01*
Y029224D01*
X048859Y029212D01*
X048746Y029146D01*
X048654Y029054D01*
X048588Y028941D01*
X048555Y028815D01*
Y028685D01*
X048588Y028559D01*
X048654Y028446D01*
X048746Y028354D01*
X048859Y028288D01*
X048906Y028276D01*
Y028224D01*
X048859Y028212D01*
X048746Y028146D01*
X048654Y028054D01*
X048588Y027941D01*
X048555Y027815D01*
Y027685D01*
X048588Y027559D01*
X048654Y027446D01*
X048746Y027354D01*
X048859Y027288D01*
X048906Y027276D01*
Y027224D01*
X048859Y027212D01*
X048746Y027146D01*
X048654Y027054D01*
X048588Y026941D01*
X048555Y026815D01*
Y026685D01*
X048588Y026559D01*
X048654Y026446D01*
X048746Y026354D01*
X048859Y026288D01*
X048906Y026276D01*
Y026224D01*
X048859Y026212D01*
X048746Y026146D01*
X048654Y026054D01*
X048588Y025941D01*
X048555Y025815D01*
Y025685D01*
X048588Y025559D01*
X048654Y025446D01*
X048746Y025354D01*
X048859Y025288D01*
X048906Y025276D01*
Y025224D01*
X048859Y025212D01*
X048746Y025146D01*
X048654Y025054D01*
X048588Y024941D01*
X048555Y024815D01*
Y024685D01*
X048588Y024559D01*
X048654Y024446D01*
X048746Y024354D01*
X048859Y024288D01*
X048906Y024276D01*
Y024224D01*
X048859Y024212D01*
X048746Y024146D01*
X048654Y024054D01*
X048588Y023941D01*
X048555Y023815D01*
Y023685D01*
X048588Y023559D01*
X048654Y023446D01*
X048746Y023354D01*
X048859Y023288D01*
X048906Y023276D01*
Y023224D01*
X048859Y023212D01*
X048746Y023146D01*
X048654Y023054D01*
X048588Y022941D01*
X048555Y022815D01*
Y022685D01*
X048588Y022559D01*
X048654Y022446D01*
X048746Y022354D01*
X048859Y022288D01*
X048906Y022276D01*
Y022224D01*
X048859Y022212D01*
X048746Y022146D01*
X048654Y022054D01*
X048588Y021941D01*
X048555Y021815D01*
Y021685D01*
X048588Y021559D01*
X048654Y021446D01*
X048746Y021354D01*
X048859Y021288D01*
X048906Y021276D01*
Y021224D01*
X048859Y021212D01*
X048746Y021146D01*
X048654Y021054D01*
X048588Y020941D01*
X048555Y020815D01*
Y020685D01*
X048588Y020559D01*
X048654Y020446D01*
X048746Y020354D01*
X048859Y020288D01*
X048906Y020276D01*
Y020224D01*
X048859Y020212D01*
X048746Y020146D01*
X048654Y020054D01*
X048588Y019941D01*
X048555Y019815D01*
Y019685D01*
X048588Y019559D01*
X048654Y019446D01*
X048746Y019354D01*
X048859Y019288D01*
X048906Y019276D01*
Y019224D01*
X048859Y019212D01*
X048746Y019146D01*
X048654Y019054D01*
X048588Y018941D01*
X048555Y018815D01*
Y018685D01*
X048588Y018559D01*
X048654Y018446D01*
X048746Y018354D01*
X048859Y018288D01*
X048985Y018255D01*
X049115D01*
X049241Y018288D01*
X049354Y018354D01*
X049446Y018446D01*
X049512Y018559D01*
X049522Y018599D01*
X049572Y018592D01*
Y017686D01*
X049491Y017605D01*
X049445Y017624D01*
Y017700D01*
X049100D01*
Y017355D01*
X049176D01*
X049195Y017309D01*
X048579Y016692D01*
X048578Y016692D01*
X047814Y015928D01*
X042234D01*
X042149Y015917D01*
X042070Y015884D01*
X042002Y015832D01*
X041418Y015247D01*
X041407Y015250D01*
X041262D01*
X041122Y015213D01*
X040997Y015140D01*
X040894Y015038D01*
X040867Y014991D01*
X040817D01*
X040790Y015038D01*
X040688Y015140D01*
X040562Y015213D01*
X040422Y015250D01*
X040278D01*
X040138Y015213D01*
X040012Y015140D01*
X039910Y015038D01*
X039883Y014991D01*
X039833D01*
X039806Y015038D01*
X039703Y015140D01*
X039578Y015213D01*
X039438Y015250D01*
X039293D01*
X039153Y015213D01*
X039028Y015140D01*
X038978Y015090D01*
X038932Y015109D01*
Y015250D01*
X037831D01*
Y014150D01*
X038932D01*
Y014291D01*
X038978Y014310D01*
X039028Y014260D01*
X039153Y014187D01*
X039293Y014150D01*
X039438D01*
X039578Y014187D01*
X039703Y014260D01*
X039806Y014362D01*
X039833Y014409D01*
X039883D01*
X039910Y014362D01*
X040012Y014260D01*
X040138Y014187D01*
X040278Y014150D01*
X040422D01*
X040562Y014187D01*
X040688Y014260D01*
X040790Y014362D01*
X040817Y014409D01*
X040867D01*
X040894Y014362D01*
X040997Y014260D01*
X041122Y014187D01*
X041262Y014150D01*
X041407D01*
X041547Y014187D01*
X041672Y014260D01*
X041774Y014362D01*
X041801Y014409D01*
X041851D01*
X041878Y014362D01*
X041981Y014260D01*
X042106Y014187D01*
X042246Y014150D01*
X042391D01*
X042531Y014187D01*
X042656Y014260D01*
X042759Y014362D01*
X042831Y014488D01*
X042838Y014515D01*
X042890Y014515D01*
X042943Y014424D01*
X043026Y014340D01*
X043129Y014281D01*
X043244Y014250D01*
X043253D01*
Y014700D01*
Y015150D01*
X043244D01*
X043129Y015119D01*
X043026Y015060D01*
X042943Y014976D01*
X042890Y014885D01*
X042838Y014885D01*
X042831Y014912D01*
X042759Y015038D01*
X042656Y015140D01*
X042531Y015213D01*
X042495Y015222D01*
X042501Y015272D01*
X047604D01*
X047618Y015222D01*
X047607Y015216D01*
X047534Y015143D01*
X047482Y015053D01*
X047455Y014952D01*
Y014950D01*
X047850D01*
X048245D01*
Y014952D01*
X048218Y015053D01*
X048166Y015143D01*
X048093Y015216D01*
X048055Y015238D01*
X048059Y015293D01*
X048114Y015316D01*
X048182Y015368D01*
X049041Y016228D01*
X049042Y016228D01*
X050132Y017318D01*
X050184Y017386D01*
X050217Y017465D01*
X050222Y017507D01*
X050228Y017550D01*
Y036650D01*
X050217Y036735D01*
X050184Y036814D01*
X050132Y036882D01*
X046450Y040564D01*
Y041200D01*
D02*
G37*
G36*
X027450Y033199D02*
X027402D01*
X027298Y033185D01*
X027202Y033145D01*
X027120Y033082D01*
X027056Y032999D01*
X027016Y032903D01*
X027009Y032850D01*
X027450D01*
Y033199D01*
D02*
G37*
G36*
X024760Y033204D02*
X024750D01*
Y032800D01*
X025154D01*
Y032810D01*
X025123Y032925D01*
X025064Y033029D01*
X024979Y033114D01*
X024875Y033173D01*
X024760Y033204D01*
D02*
G37*
G36*
X024650D02*
X024640D01*
X024525Y033173D01*
X024421Y033114D01*
X024336Y033029D01*
X024277Y032925D01*
X024246Y032810D01*
Y032800D01*
X024650D01*
Y033204D01*
D02*
G37*
G36*
X037650Y041000D02*
X036350D01*
Y040000D01*
X036620D01*
X036630Y039950D01*
X036598Y039937D01*
X036493Y039857D01*
X036413Y039752D01*
X036363Y039631D01*
X036346Y039500D01*
X036363Y039369D01*
X036413Y039248D01*
X036493Y039143D01*
X036598Y039063D01*
X036685Y039027D01*
Y038973D01*
X036598Y038937D01*
X036493Y038857D01*
X036413Y038752D01*
X036363Y038631D01*
X036346Y038500D01*
X036363Y038369D01*
X036413Y038248D01*
X036493Y038143D01*
X036598Y038063D01*
X036685Y038027D01*
Y037973D01*
X036598Y037937D01*
X036493Y037857D01*
X036413Y037752D01*
X036363Y037631D01*
X036346Y037500D01*
X036363Y037369D01*
X036413Y037248D01*
X036493Y037143D01*
X036598Y037063D01*
X036685Y037027D01*
Y036973D01*
X036598Y036937D01*
X036493Y036857D01*
X036413Y036752D01*
X036363Y036631D01*
X036346Y036500D01*
X036363Y036369D01*
X036413Y036248D01*
X036493Y036143D01*
X036598Y036063D01*
X036685Y036027D01*
Y035973D01*
X036598Y035937D01*
X036493Y035857D01*
X036413Y035752D01*
X036363Y035631D01*
X036346Y035500D01*
X036363Y035369D01*
X036413Y035248D01*
X036493Y035143D01*
X036598Y035063D01*
X036685Y035027D01*
Y034973D01*
X036598Y034937D01*
X036493Y034857D01*
X036413Y034752D01*
X036363Y034631D01*
X036346Y034500D01*
X036363Y034369D01*
X036413Y034248D01*
X036493Y034143D01*
X036598Y034063D01*
X036685Y034027D01*
Y033973D01*
X036598Y033937D01*
X036493Y033857D01*
X036413Y033752D01*
X036363Y033631D01*
X036346Y033500D01*
X036363Y033369D01*
X036413Y033248D01*
X036493Y033143D01*
X036598Y033063D01*
X036685Y033027D01*
Y032973D01*
X036598Y032937D01*
X036493Y032857D01*
X036413Y032752D01*
X036363Y032631D01*
X036350Y032534D01*
X036297Y032516D01*
X036153Y032661D01*
Y034525D01*
X036142Y034610D01*
X036109Y034689D01*
X036057Y034757D01*
X035300Y035514D01*
X035304Y035550D01*
X035287Y035681D01*
X035237Y035802D01*
X035157Y035907D01*
X035052Y035987D01*
X034965Y036023D01*
Y036077D01*
X035052Y036113D01*
X035157Y036193D01*
X035237Y036298D01*
X035287Y036419D01*
X035304Y036550D01*
X035287Y036681D01*
X035237Y036802D01*
X035157Y036907D01*
X035052Y036987D01*
X034965Y037023D01*
Y037077D01*
X035052Y037113D01*
X035157Y037193D01*
X035237Y037298D01*
X035287Y037419D01*
X035304Y037550D01*
X035287Y037681D01*
X035237Y037802D01*
X035157Y037907D01*
X035052Y037987D01*
X034965Y038023D01*
Y038077D01*
X035052Y038113D01*
X035157Y038193D01*
X035237Y038298D01*
X035287Y038419D01*
X035304Y038550D01*
X035287Y038681D01*
X035237Y038802D01*
X035157Y038907D01*
X035052Y038987D01*
X034965Y039023D01*
Y039077D01*
X035052Y039113D01*
X035157Y039193D01*
X035237Y039298D01*
X035287Y039419D01*
X035304Y039550D01*
X035287Y039681D01*
X035237Y039802D01*
X035157Y039907D01*
X035052Y039987D01*
X034931Y040037D01*
X034800Y040054D01*
X034400D01*
X034269Y040037D01*
X034148Y039987D01*
X034043Y039907D01*
X033963Y039802D01*
X033913Y039681D01*
X033896Y039550D01*
X033913Y039419D01*
X033963Y039298D01*
X034043Y039193D01*
X034148Y039113D01*
X034235Y039077D01*
Y039023D01*
X034148Y038987D01*
X034043Y038907D01*
X033963Y038802D01*
X033913Y038681D01*
X033896Y038550D01*
X033913Y038419D01*
X033963Y038298D01*
X034043Y038193D01*
X034148Y038113D01*
X034235Y038077D01*
Y038023D01*
X034148Y037987D01*
X034043Y037907D01*
X033963Y037802D01*
X033913Y037681D01*
X033896Y037550D01*
X033913Y037419D01*
X033963Y037298D01*
X034043Y037193D01*
X034148Y037113D01*
X034235Y037077D01*
Y037023D01*
X034148Y036987D01*
X034043Y036907D01*
X033963Y036802D01*
X033913Y036681D01*
X033896Y036550D01*
X033913Y036419D01*
X033963Y036298D01*
X034043Y036193D01*
X034148Y036113D01*
X034235Y036077D01*
Y036023D01*
X034148Y035987D01*
X034043Y035907D01*
X033963Y035802D01*
X033913Y035681D01*
X033896Y035550D01*
X033913Y035419D01*
X033963Y035298D01*
X034043Y035193D01*
X034148Y035113D01*
X034235Y035077D01*
Y035023D01*
X034148Y034987D01*
X034043Y034907D01*
X033963Y034802D01*
X033913Y034681D01*
X033896Y034550D01*
X033913Y034419D01*
X033963Y034298D01*
X034043Y034193D01*
X034148Y034113D01*
X034235Y034077D01*
Y034023D01*
X034148Y033987D01*
X034043Y033907D01*
X033963Y033802D01*
X033913Y033681D01*
X033896Y033550D01*
X033900Y033514D01*
X033168Y032782D01*
X033116Y032714D01*
X033083Y032635D01*
X033078Y032592D01*
X033072Y032550D01*
Y031709D01*
X033040Y031676D01*
X032981Y031574D01*
X032950Y031459D01*
Y031341D01*
X032981Y031226D01*
X032998Y031196D01*
X032973Y031153D01*
X031122D01*
X031101Y031203D01*
X031166Y031268D01*
X031232Y031366D01*
X031277Y031475D01*
X031300Y031591D01*
Y031600D01*
X030700D01*
X030100D01*
Y031591D01*
X030123Y031475D01*
X030168Y031366D01*
X030234Y031268D01*
X030299Y031203D01*
X030278Y031153D01*
X029559D01*
X029534Y031214D01*
X029482Y031282D01*
X029082Y031681D01*
X029098Y031800D01*
X029081Y031929D01*
X029031Y032050D01*
X028952Y032153D01*
X028848Y032233D01*
X028751Y032273D01*
Y032327D01*
X028848Y032367D01*
X028952Y032447D01*
X029031Y032550D01*
X029081Y032671D01*
X029098Y032800D01*
X029081Y032929D01*
X029031Y033050D01*
X028952Y033153D01*
X028848Y033233D01*
X028751Y033273D01*
Y033327D01*
X028848Y033367D01*
X028952Y033447D01*
X029031Y033550D01*
X029081Y033671D01*
X029098Y033800D01*
X029081Y033929D01*
X029031Y034050D01*
X028952Y034153D01*
X028848Y034233D01*
X028728Y034283D01*
X028598Y034300D01*
X028402D01*
X028272Y034283D01*
X028152Y034233D01*
X028048Y034153D01*
X027969Y034050D01*
X027969Y034049D01*
X027911Y034041D01*
X027880Y034082D01*
X027798Y034145D01*
X027702Y034185D01*
X027598Y034199D01*
X027550D01*
Y033800D01*
Y033401D01*
X027598D01*
X027702Y033415D01*
X027798Y033455D01*
X027880Y033518D01*
X027911Y033559D01*
X027969Y033551D01*
X027969Y033550D01*
X028048Y033447D01*
X028152Y033367D01*
X028249Y033327D01*
Y033273D01*
X028152Y033233D01*
X028048Y033153D01*
X027969Y033050D01*
X027969Y033049D01*
X027911Y033041D01*
X027880Y033082D01*
X027798Y033145D01*
X027702Y033185D01*
X027598Y033199D01*
X027550D01*
Y032800D01*
Y032401D01*
X027598D01*
X027702Y032415D01*
X027798Y032455D01*
X027880Y032518D01*
X027911Y032559D01*
X027969Y032551D01*
X027969Y032550D01*
X028048Y032447D01*
X028152Y032367D01*
X028249Y032327D01*
Y032273D01*
X028152Y032233D01*
X028048Y032153D01*
X027969Y032050D01*
X027969Y032049D01*
X027911Y032041D01*
X027880Y032082D01*
X027798Y032145D01*
X027702Y032185D01*
X027598Y032199D01*
X027550D01*
Y031800D01*
Y031401D01*
X027598D01*
X027702Y031415D01*
X027798Y031455D01*
X027880Y031518D01*
X027911Y031559D01*
X027969Y031551D01*
X027969Y031550D01*
X028048Y031447D01*
X028152Y031367D01*
X028249Y031327D01*
Y031273D01*
X028152Y031233D01*
X028048Y031153D01*
X027969Y031050D01*
X027969Y031049D01*
X027911Y031041D01*
X027880Y031082D01*
X027798Y031145D01*
X027702Y031185D01*
X027598Y031199D01*
X027550D01*
Y030800D01*
Y030401D01*
X027598D01*
X027702Y030415D01*
X027798Y030455D01*
X027880Y030518D01*
X027911Y030559D01*
X027969Y030551D01*
X027969Y030550D01*
X028048Y030447D01*
X028152Y030367D01*
X028205Y030345D01*
X028195Y030295D01*
X027906D01*
Y030245D01*
X027861Y030222D01*
X027848Y030233D01*
X027728Y030283D01*
X027598Y030300D01*
X027402D01*
X027272Y030283D01*
X027152Y030233D01*
X027048Y030153D01*
X026969Y030050D01*
X026919Y029929D01*
X026902Y029800D01*
X026919Y029671D01*
X026969Y029550D01*
X027048Y029447D01*
X027152Y029367D01*
X027272Y029317D01*
X027402Y029300D01*
X027598D01*
X027728Y029317D01*
X027848Y029367D01*
X027861Y029378D01*
X027906Y029355D01*
Y029305D01*
X028922D01*
Y026496D01*
X028282Y025856D01*
X027755D01*
Y024944D01*
X028745D01*
Y025392D01*
X029482Y026129D01*
X029534Y026197D01*
X029567Y026276D01*
X029572Y026318D01*
X029578Y026361D01*
Y030547D01*
X034996D01*
X035015Y030501D01*
X034990Y030476D01*
X034931Y030374D01*
X034900Y030259D01*
Y030250D01*
X035350D01*
X035800D01*
Y030259D01*
X035769Y030374D01*
X035710Y030476D01*
X035626Y030560D01*
X035524Y030619D01*
X035448Y030640D01*
X035433Y030695D01*
X035639Y030901D01*
X035639Y030901D01*
X035671Y030943D01*
X035828Y031100D01*
X035909D01*
X036024Y031131D01*
X036126Y031190D01*
X036210Y031274D01*
X036269Y031376D01*
X036300Y031491D01*
X036348Y031485D01*
X036363Y031369D01*
X036413Y031248D01*
X036493Y031143D01*
X036598Y031063D01*
X036719Y031013D01*
X036850Y030996D01*
X037150D01*
X037281Y031013D01*
X037402Y031063D01*
X037507Y031143D01*
X037587Y031248D01*
X037637Y031369D01*
X037654Y031500D01*
X037637Y031631D01*
X037587Y031752D01*
X037507Y031857D01*
X037402Y031937D01*
X037315Y031973D01*
Y032027D01*
X037402Y032063D01*
X037507Y032143D01*
X037587Y032248D01*
X037637Y032369D01*
X037654Y032500D01*
X037637Y032631D01*
X037587Y032752D01*
X037507Y032857D01*
X037402Y032937D01*
X037315Y032973D01*
Y033027D01*
X037402Y033063D01*
X037507Y033143D01*
X037587Y033248D01*
X037637Y033369D01*
X037654Y033500D01*
X037637Y033631D01*
X037587Y033752D01*
X037507Y033857D01*
X037402Y033937D01*
X037315Y033973D01*
Y034027D01*
X037402Y034063D01*
X037507Y034143D01*
X037587Y034248D01*
X037637Y034369D01*
X037654Y034500D01*
X037637Y034631D01*
X037587Y034752D01*
X037507Y034857D01*
X037402Y034937D01*
X037315Y034973D01*
Y035027D01*
X037402Y035063D01*
X037507Y035143D01*
X037587Y035248D01*
X037637Y035369D01*
X037654Y035500D01*
X037637Y035631D01*
X037587Y035752D01*
X037507Y035857D01*
X037402Y035937D01*
X037315Y035973D01*
Y036027D01*
X037402Y036063D01*
X037507Y036143D01*
X037587Y036248D01*
X037637Y036369D01*
X037654Y036500D01*
X037637Y036631D01*
X037587Y036752D01*
X037507Y036857D01*
X037402Y036937D01*
X037315Y036973D01*
Y037027D01*
X037402Y037063D01*
X037507Y037143D01*
X037587Y037248D01*
X037637Y037369D01*
X037654Y037500D01*
X037637Y037631D01*
X037587Y037752D01*
X037507Y037857D01*
X037402Y037937D01*
X037315Y037973D01*
Y038027D01*
X037402Y038063D01*
X037507Y038143D01*
X037587Y038248D01*
X037637Y038369D01*
X037654Y038500D01*
X037637Y038631D01*
X037587Y038752D01*
X037507Y038857D01*
X037402Y038937D01*
X037315Y038973D01*
Y039027D01*
X037402Y039063D01*
X037507Y039143D01*
X037587Y039248D01*
X037637Y039369D01*
X037654Y039500D01*
X037637Y039631D01*
X037587Y039752D01*
X037507Y039857D01*
X037402Y039937D01*
X037370Y039950D01*
X037380Y040000D01*
X037650D01*
Y041000D01*
D02*
G37*
G36*
X027450Y032750D02*
X027009D01*
X027016Y032697D01*
X027056Y032601D01*
X027120Y032518D01*
X027202Y032455D01*
X027298Y032415D01*
X027402Y032401D01*
X027450D01*
Y032750D01*
D02*
G37*
G36*
X025154Y032700D02*
X024750D01*
Y032296D01*
X024760D01*
X024875Y032327D01*
X024979Y032386D01*
X025064Y032471D01*
X025123Y032575D01*
X025154Y032690D01*
Y032700D01*
D02*
G37*
G36*
X024650D02*
X024246D01*
Y032690D01*
X024277Y032575D01*
X024336Y032471D01*
X024421Y032386D01*
X024525Y032327D01*
X024640Y032296D01*
X024650D01*
Y032700D01*
D02*
G37*
G36*
X022213Y033304D02*
X022067D01*
X021926Y033267D01*
X021800Y033194D01*
X021696Y033090D01*
X021623Y032964D01*
X021586Y032823D01*
Y032677D01*
X021623Y032536D01*
X021696Y032410D01*
X021800Y032306D01*
X021926Y032233D01*
X022067Y032196D01*
X022213D01*
X022354Y032233D01*
X022480Y032306D01*
X022584Y032410D01*
X022657Y032536D01*
X022694Y032677D01*
Y032823D01*
X022657Y032964D01*
X022584Y033090D01*
X022480Y033194D01*
X022354Y033267D01*
X022213Y033304D01*
D02*
G37*
G36*
X043150Y041004D02*
X042850D01*
X042719Y040987D01*
X042598Y040937D01*
X042493Y040857D01*
X042413Y040752D01*
X042363Y040631D01*
X042346Y040500D01*
X042363Y040369D01*
X042413Y040248D01*
X042493Y040143D01*
X042598Y040063D01*
X042685Y040027D01*
Y039973D01*
X042598Y039937D01*
X042493Y039857D01*
X042413Y039752D01*
X042363Y039631D01*
X042346Y039500D01*
X042363Y039369D01*
X042413Y039248D01*
X042493Y039143D01*
X042598Y039063D01*
X042685Y039027D01*
Y038973D01*
X042598Y038937D01*
X042493Y038857D01*
X042413Y038752D01*
X042363Y038631D01*
X042346Y038500D01*
X042363Y038369D01*
X042413Y038248D01*
X042493Y038143D01*
X042598Y038063D01*
X042685Y038027D01*
Y037973D01*
X042598Y037937D01*
X042493Y037857D01*
X042413Y037752D01*
X042363Y037631D01*
X042346Y037500D01*
X042363Y037369D01*
X042413Y037248D01*
X042493Y037143D01*
X042598Y037063D01*
X042685Y037027D01*
Y036973D01*
X042598Y036937D01*
X042493Y036857D01*
X042413Y036752D01*
X042363Y036631D01*
X042346Y036500D01*
X042363Y036369D01*
X042413Y036248D01*
X042493Y036143D01*
X042598Y036063D01*
X042685Y036027D01*
Y035973D01*
X042598Y035937D01*
X042493Y035857D01*
X042413Y035752D01*
X042363Y035631D01*
X042346Y035500D01*
X042363Y035369D01*
X042413Y035248D01*
X042493Y035143D01*
X042598Y035063D01*
X042685Y035027D01*
Y034973D01*
X042598Y034937D01*
X042493Y034857D01*
X042413Y034752D01*
X042363Y034631D01*
X042346Y034500D01*
X042363Y034369D01*
X042413Y034248D01*
X042493Y034143D01*
X042598Y034063D01*
X042685Y034027D01*
Y033973D01*
X042598Y033937D01*
X042493Y033857D01*
X042413Y033752D01*
X042363Y033631D01*
X042346Y033500D01*
X042363Y033369D01*
X042413Y033248D01*
X042493Y033143D01*
X042598Y033063D01*
X042685Y033027D01*
Y032973D01*
X042598Y032937D01*
X042493Y032857D01*
X042413Y032752D01*
X042363Y032631D01*
X042346Y032500D01*
X042363Y032369D01*
X042413Y032248D01*
X042493Y032143D01*
X042598Y032063D01*
X042719Y032013D01*
X042850Y031996D01*
X043150D01*
X043281Y032013D01*
X043402Y032063D01*
X043507Y032143D01*
X043587Y032248D01*
X043637Y032369D01*
X043654Y032500D01*
X043637Y032631D01*
X043587Y032752D01*
X043507Y032857D01*
X043402Y032937D01*
X043315Y032973D01*
Y033027D01*
X043402Y033063D01*
X043507Y033143D01*
X043587Y033248D01*
X043637Y033369D01*
X043654Y033500D01*
X043637Y033631D01*
X043587Y033752D01*
X043507Y033857D01*
X043402Y033937D01*
X043315Y033973D01*
Y034027D01*
X043402Y034063D01*
X043507Y034143D01*
X043587Y034248D01*
X043637Y034369D01*
X043654Y034500D01*
X043637Y034631D01*
X043587Y034752D01*
X043507Y034857D01*
X043402Y034937D01*
X043315Y034973D01*
Y035027D01*
X043402Y035063D01*
X043507Y035143D01*
X043587Y035248D01*
X043637Y035369D01*
X043654Y035500D01*
X043637Y035631D01*
X043587Y035752D01*
X043507Y035857D01*
X043402Y035937D01*
X043315Y035973D01*
Y036027D01*
X043402Y036063D01*
X043507Y036143D01*
X043587Y036248D01*
X043637Y036369D01*
X043654Y036500D01*
X043637Y036631D01*
X043587Y036752D01*
X043507Y036857D01*
X043402Y036937D01*
X043315Y036973D01*
Y037027D01*
X043402Y037063D01*
X043507Y037143D01*
X043587Y037248D01*
X043637Y037369D01*
X043654Y037500D01*
X043637Y037631D01*
X043587Y037752D01*
X043507Y037857D01*
X043402Y037937D01*
X043315Y037973D01*
Y038027D01*
X043402Y038063D01*
X043507Y038143D01*
X043587Y038248D01*
X043637Y038369D01*
X043654Y038500D01*
X043637Y038631D01*
X043587Y038752D01*
X043507Y038857D01*
X043402Y038937D01*
X043315Y038973D01*
Y039027D01*
X043402Y039063D01*
X043507Y039143D01*
X043587Y039248D01*
X043637Y039369D01*
X043654Y039500D01*
X043637Y039631D01*
X043587Y039752D01*
X043507Y039857D01*
X043402Y039937D01*
X043315Y039973D01*
Y040027D01*
X043402Y040063D01*
X043507Y040143D01*
X043587Y040248D01*
X043637Y040369D01*
X043654Y040500D01*
X043637Y040631D01*
X043587Y040752D01*
X043507Y040857D01*
X043402Y040937D01*
X043281Y040987D01*
X043150Y041004D01*
D02*
G37*
G36*
X027450Y032199D02*
X027402D01*
X027298Y032185D01*
X027202Y032145D01*
X027120Y032082D01*
X027056Y031999D01*
X027016Y031903D01*
X027009Y031850D01*
X027450D01*
Y032199D01*
D02*
G37*
G36*
X030759Y032250D02*
X030750D01*
Y031700D01*
X031300D01*
Y031709D01*
X031277Y031825D01*
X031232Y031934D01*
X031166Y032032D01*
X031082Y032116D01*
X030984Y032182D01*
X030875Y032227D01*
X030759Y032250D01*
D02*
G37*
G36*
X030650D02*
X030641D01*
X030525Y032227D01*
X030416Y032182D01*
X030318Y032116D01*
X030234Y032032D01*
X030168Y031934D01*
X030123Y031825D01*
X030100Y031709D01*
Y031700D01*
X030650D01*
Y032250D01*
D02*
G37*
G36*
X041172Y032000D02*
X041028D01*
X040888Y031963D01*
X040762Y031890D01*
X040660Y031788D01*
X040587Y031662D01*
X040575Y031616D01*
X040525D01*
X040513Y031662D01*
X040440Y031788D01*
X040338Y031890D01*
X040212Y031963D01*
X040072Y032000D01*
X039928D01*
X039788Y031963D01*
X039662Y031890D01*
X039560Y031788D01*
X039487Y031662D01*
X039450Y031522D01*
Y031378D01*
X039487Y031238D01*
X039560Y031112D01*
X039662Y031010D01*
X039788Y030937D01*
X039838Y030924D01*
Y030872D01*
X039826Y030869D01*
X039724Y030810D01*
X039640Y030726D01*
X039581Y030624D01*
X039550Y030509D01*
Y030500D01*
X040000D01*
X040450D01*
Y030509D01*
X040419Y030624D01*
X040360Y030726D01*
X040276Y030810D01*
X040174Y030869D01*
X040162Y030872D01*
Y030924D01*
X040212Y030937D01*
X040338Y031010D01*
X040440Y031112D01*
X040513Y031238D01*
X040525Y031284D01*
X040575D01*
X040587Y031238D01*
X040660Y031112D01*
X040762Y031010D01*
X040888Y030937D01*
X040938Y030924D01*
Y030872D01*
X040926Y030869D01*
X040824Y030810D01*
X040740Y030726D01*
X040681Y030624D01*
X040650Y030509D01*
Y030500D01*
X041100D01*
X041550D01*
Y030509D01*
X041519Y030624D01*
X041460Y030726D01*
X041376Y030810D01*
X041274Y030869D01*
X041262Y030872D01*
Y030924D01*
X041312Y030937D01*
X041438Y031010D01*
X041540Y031112D01*
X041613Y031238D01*
X041650Y031378D01*
Y031522D01*
X041613Y031662D01*
X041540Y031788D01*
X041438Y031890D01*
X041312Y031963D01*
X041172Y032000D01*
D02*
G37*
G36*
X043150Y031903D02*
X043050D01*
Y031550D01*
X043547D01*
X043540Y031604D01*
X043499Y031702D01*
X043435Y031785D01*
X043352Y031849D01*
X043254Y031890D01*
X043150Y031903D01*
D02*
G37*
G36*
X042950D02*
X042850D01*
X042746Y031890D01*
X042648Y031849D01*
X042565Y031785D01*
X042501Y031702D01*
X042460Y031604D01*
X042453Y031550D01*
X042950D01*
Y031903D01*
D02*
G37*
G36*
X032800Y039650D02*
X031700D01*
Y038550D01*
X031851D01*
X031872Y038500D01*
X031810Y038438D01*
X031737Y038312D01*
X031700Y038172D01*
Y038028D01*
X031737Y037888D01*
X031810Y037762D01*
X031912Y037660D01*
X031973Y037625D01*
Y037575D01*
X031912Y037540D01*
X031810Y037438D01*
X031737Y037312D01*
X031700Y037172D01*
Y037028D01*
X031737Y036888D01*
X031810Y036762D01*
X031912Y036660D01*
X031973Y036625D01*
Y036575D01*
X031912Y036540D01*
X031810Y036438D01*
X031737Y036312D01*
X031700Y036172D01*
Y036028D01*
X031737Y035888D01*
X031810Y035762D01*
X031912Y035660D01*
X031973Y035625D01*
Y035575D01*
X031912Y035540D01*
X031810Y035438D01*
X031737Y035312D01*
X031700Y035172D01*
Y035028D01*
X031737Y034888D01*
X031810Y034762D01*
X031912Y034660D01*
X031973Y034625D01*
Y034575D01*
X031912Y034540D01*
X031810Y034438D01*
X031737Y034312D01*
X031700Y034172D01*
Y034028D01*
X031737Y033888D01*
X031810Y033762D01*
X031912Y033660D01*
X031973Y033625D01*
Y033575D01*
X031912Y033540D01*
X031810Y033438D01*
X031737Y033312D01*
X031700Y033172D01*
Y033028D01*
X031737Y032888D01*
X031810Y032762D01*
X031912Y032660D01*
X031973Y032625D01*
Y032575D01*
X031912Y032540D01*
X031810Y032438D01*
X031737Y032312D01*
X031700Y032172D01*
Y032028D01*
X031737Y031888D01*
X031810Y031762D01*
X031912Y031660D01*
X032038Y031587D01*
X032178Y031550D01*
X032322D01*
X032462Y031587D01*
X032588Y031660D01*
X032690Y031762D01*
X032763Y031888D01*
X032800Y032028D01*
Y032172D01*
X032763Y032312D01*
X032690Y032438D01*
X032588Y032540D01*
X032527Y032575D01*
Y032625D01*
X032588Y032660D01*
X032690Y032762D01*
X032763Y032888D01*
X032800Y033028D01*
Y033172D01*
X032763Y033312D01*
X032690Y033438D01*
X032588Y033540D01*
X032527Y033575D01*
Y033625D01*
X032588Y033660D01*
X032690Y033762D01*
X032763Y033888D01*
X032800Y034028D01*
Y034172D01*
X032763Y034312D01*
X032690Y034438D01*
X032588Y034540D01*
X032527Y034575D01*
Y034625D01*
X032588Y034660D01*
X032690Y034762D01*
X032763Y034888D01*
X032800Y035028D01*
Y035172D01*
X032763Y035312D01*
X032690Y035438D01*
X032588Y035540D01*
X032527Y035575D01*
Y035625D01*
X032588Y035660D01*
X032690Y035762D01*
X032763Y035888D01*
X032800Y036028D01*
Y036172D01*
X032763Y036312D01*
X032690Y036438D01*
X032588Y036540D01*
X032527Y036575D01*
Y036625D01*
X032588Y036660D01*
X032690Y036762D01*
X032763Y036888D01*
X032800Y037028D01*
Y037172D01*
X032763Y037312D01*
X032690Y037438D01*
X032588Y037540D01*
X032527Y037575D01*
Y037625D01*
X032588Y037660D01*
X032690Y037762D01*
X032763Y037888D01*
X032800Y038028D01*
Y038172D01*
X032763Y038312D01*
X032690Y038438D01*
X032628Y038500D01*
X032649Y038550D01*
X032800D01*
Y039650D01*
D02*
G37*
G36*
X027450Y031750D02*
X027009D01*
X027016Y031697D01*
X027056Y031601D01*
X027120Y031518D01*
X027202Y031455D01*
X027298Y031415D01*
X027402Y031401D01*
X027450D01*
Y031750D01*
D02*
G37*
G36*
X043547Y031450D02*
X043050D01*
Y031097D01*
X043150D01*
X043254Y031110D01*
X043352Y031151D01*
X043435Y031215D01*
X043499Y031298D01*
X043540Y031396D01*
X043547Y031450D01*
D02*
G37*
G36*
X042950D02*
X042453D01*
X042460Y031396D01*
X042501Y031298D01*
X042565Y031215D01*
X042648Y031151D01*
X042746Y031110D01*
X042850Y031097D01*
X042950D01*
Y031450D01*
D02*
G37*
G36*
X022260Y031304D02*
X022250D01*
Y030900D01*
X022654D01*
Y030910D01*
X022623Y031025D01*
X022564Y031129D01*
X022479Y031214D01*
X022375Y031273D01*
X022260Y031304D01*
D02*
G37*
G36*
X022150D02*
X022140D01*
X022025Y031273D01*
X021921Y031214D01*
X021836Y031129D01*
X021777Y031025D01*
X021746Y030910D01*
Y030900D01*
X022150D01*
Y031304D01*
D02*
G37*
G36*
X027450Y031199D02*
X027402D01*
X027298Y031185D01*
X027202Y031145D01*
X027120Y031082D01*
X027056Y030999D01*
X027016Y030903D01*
X027009Y030850D01*
X027450D01*
Y031199D01*
D02*
G37*
G36*
X037150Y030903D02*
X037050D01*
Y030550D01*
X037547D01*
X037540Y030604D01*
X037499Y030702D01*
X037435Y030785D01*
X037352Y030849D01*
X037254Y030890D01*
X037150Y030903D01*
D02*
G37*
G36*
X036950D02*
X036850D01*
X036746Y030890D01*
X036648Y030849D01*
X036565Y030785D01*
X036501Y030702D01*
X036460Y030604D01*
X036453Y030550D01*
X036950D01*
Y030903D01*
D02*
G37*
G36*
X038872Y032000D02*
X038728D01*
X038588Y031963D01*
X038462Y031890D01*
X038360Y031788D01*
X038287Y031662D01*
X038250Y031522D01*
Y031378D01*
X038287Y031238D01*
X038360Y031112D01*
X038462Y031010D01*
X038588Y030937D01*
X038638Y030924D01*
Y030872D01*
X038626Y030869D01*
X038524Y030810D01*
X038440Y030726D01*
X038381Y030624D01*
X038350Y030509D01*
Y030500D01*
X038800D01*
X039250D01*
Y030509D01*
X039219Y030624D01*
X039160Y030726D01*
X039076Y030810D01*
X038974Y030869D01*
X038962Y030872D01*
Y030924D01*
X039012Y030937D01*
X039138Y031010D01*
X039240Y031112D01*
X039313Y031238D01*
X039350Y031378D01*
Y031522D01*
X039313Y031662D01*
X039240Y031788D01*
X039138Y031890D01*
X039012Y031963D01*
X038872Y032000D01*
D02*
G37*
G36*
X027450Y030750D02*
X027009D01*
X027016Y030697D01*
X027056Y030601D01*
X027120Y030518D01*
X027202Y030455D01*
X027298Y030415D01*
X027402Y030401D01*
X027450D01*
Y030750D01*
D02*
G37*
G36*
X022654Y030800D02*
X022250D01*
Y030396D01*
X022260D01*
X022375Y030427D01*
X022479Y030486D01*
X022564Y030571D01*
X022623Y030675D01*
X022654Y030790D01*
Y030800D01*
D02*
G37*
G36*
X022150D02*
X021746D01*
Y030790D01*
X021777Y030675D01*
X021836Y030571D01*
X021921Y030486D01*
X022025Y030427D01*
X022140Y030396D01*
X022150D01*
Y030800D01*
D02*
G37*
G36*
X024823Y031414D02*
X024677D01*
X024536Y031377D01*
X024410Y031304D01*
X024306Y031200D01*
X024233Y031074D01*
X024196Y030933D01*
Y030787D01*
X024233Y030646D01*
X024306Y030520D01*
X024410Y030416D01*
X024536Y030343D01*
X024677Y030306D01*
X024823D01*
X024964Y030343D01*
X025090Y030416D01*
X025194Y030520D01*
X025267Y030646D01*
X025304Y030787D01*
Y030933D01*
X025267Y031074D01*
X025194Y031200D01*
X025090Y031304D01*
X024964Y031377D01*
X024823Y031414D01*
D02*
G37*
G36*
X054015Y031195D02*
X053885D01*
X053759Y031162D01*
X053646Y031096D01*
X053554Y031004D01*
X053488Y030891D01*
X053455Y030765D01*
Y030635D01*
X053488Y030509D01*
X053554Y030396D01*
X053646Y030304D01*
X053759Y030238D01*
X053885Y030205D01*
X054015D01*
X054141Y030238D01*
X054254Y030304D01*
X054346Y030396D01*
X054412Y030509D01*
X054445Y030635D01*
Y030765D01*
X054412Y030891D01*
X054346Y031004D01*
X054254Y031096D01*
X054141Y031162D01*
X054015Y031195D01*
D02*
G37*
G36*
X057215Y031145D02*
X057085D01*
X056959Y031112D01*
X056846Y031046D01*
X056754Y030954D01*
X056688Y030841D01*
X056655Y030715D01*
Y030585D01*
X056688Y030459D01*
X056754Y030346D01*
X056846Y030254D01*
X056959Y030188D01*
X057085Y030155D01*
X057215D01*
X057341Y030188D01*
X057454Y030254D01*
X057546Y030346D01*
X057612Y030459D01*
X057645Y030585D01*
Y030715D01*
X057612Y030841D01*
X057546Y030954D01*
X057454Y031046D01*
X057341Y031112D01*
X057215Y031145D01*
D02*
G37*
G36*
X056165D02*
X056035D01*
X055909Y031112D01*
X055796Y031046D01*
X055704Y030954D01*
X055638Y030841D01*
X055605Y030715D01*
Y030585D01*
X055638Y030459D01*
X055704Y030346D01*
X055796Y030254D01*
X055909Y030188D01*
X056035Y030155D01*
X056165D01*
X056291Y030188D01*
X056404Y030254D01*
X056496Y030346D01*
X056562Y030459D01*
X056595Y030585D01*
Y030715D01*
X056562Y030841D01*
X056496Y030954D01*
X056404Y031046D01*
X056291Y031112D01*
X056165Y031145D01*
D02*
G37*
G36*
X055115D02*
X054985D01*
X054859Y031112D01*
X054746Y031046D01*
X054654Y030954D01*
X054588Y030841D01*
X054555Y030715D01*
Y030585D01*
X054588Y030459D01*
X054654Y030346D01*
X054746Y030254D01*
X054859Y030188D01*
X054985Y030155D01*
X055115D01*
X055241Y030188D01*
X055354Y030254D01*
X055446Y030346D01*
X055512Y030459D01*
X055545Y030585D01*
Y030715D01*
X055512Y030841D01*
X055446Y030954D01*
X055354Y031046D01*
X055241Y031112D01*
X055115Y031145D01*
D02*
G37*
G36*
X037547Y030450D02*
X037050D01*
Y030097D01*
X037150D01*
X037254Y030110D01*
X037352Y030151D01*
X037435Y030215D01*
X037499Y030298D01*
X037540Y030396D01*
X037547Y030450D01*
D02*
G37*
G36*
X036950D02*
X036453D01*
X036460Y030396D01*
X036501Y030298D01*
X036565Y030215D01*
X036648Y030151D01*
X036746Y030110D01*
X036850Y030097D01*
X036950D01*
Y030450D01*
D02*
G37*
G36*
X041550Y030400D02*
X041150D01*
Y030000D01*
X041159D01*
X041274Y030031D01*
X041376Y030090D01*
X041460Y030174D01*
X041519Y030276D01*
X041550Y030391D01*
Y030400D01*
D02*
G37*
G36*
X041050D02*
X040650D01*
Y030391D01*
X040681Y030276D01*
X040740Y030174D01*
X040824Y030090D01*
X040926Y030031D01*
X041041Y030000D01*
X041050D01*
Y030400D01*
D02*
G37*
G36*
X040450D02*
X040050D01*
Y030000D01*
X040059D01*
X040174Y030031D01*
X040276Y030090D01*
X040360Y030174D01*
X040419Y030276D01*
X040450Y030391D01*
Y030400D01*
D02*
G37*
G36*
X039950D02*
X039550D01*
Y030391D01*
X039581Y030276D01*
X039640Y030174D01*
X039724Y030090D01*
X039826Y030031D01*
X039941Y030000D01*
X039950D01*
Y030400D01*
D02*
G37*
G36*
X039250D02*
X038850D01*
Y030000D01*
X038859D01*
X038974Y030031D01*
X039076Y030090D01*
X039160Y030174D01*
X039219Y030276D01*
X039250Y030391D01*
Y030400D01*
D02*
G37*
G36*
X038750D02*
X038350D01*
Y030391D01*
X038381Y030276D01*
X038440Y030174D01*
X038524Y030090D01*
X038626Y030031D01*
X038741Y030000D01*
X038750D01*
Y030400D01*
D02*
G37*
G36*
X056965Y029495D02*
X056915Y029495D01*
X056005D01*
X055965Y029495D01*
X055915Y029495D01*
X055005D01*
X054965Y029495D01*
X054915Y029495D01*
X054005D01*
X053965Y029495D01*
X053915Y029495D01*
X052965D01*
Y028505D01*
X053915D01*
X053955Y028505D01*
X054005Y028505D01*
X054915D01*
X054955Y028505D01*
X055005Y028505D01*
X055915D01*
X055955Y028505D01*
X056005Y028505D01*
X056915D01*
X056955Y028505D01*
X057005Y028505D01*
X057955D01*
Y029495D01*
X057005D01*
X056965Y029495D01*
D02*
G37*
G36*
X035800Y030150D02*
X035350D01*
X034900D01*
Y030141D01*
X034931Y030026D01*
X034990Y029924D01*
X035074Y029840D01*
X035176Y029781D01*
X035188Y029778D01*
Y029726D01*
X035138Y029713D01*
X035012Y029640D01*
X034910Y029538D01*
X034837Y029412D01*
X034800Y029272D01*
Y029221D01*
X034750Y029207D01*
X034710Y029276D01*
X034626Y029360D01*
X034524Y029419D01*
X034409Y029450D01*
X034400D01*
Y029000D01*
X034350D01*
Y028950D01*
X033900D01*
Y028941D01*
X033931Y028826D01*
X033990Y028724D01*
X034074Y028640D01*
X034176Y028581D01*
X034188Y028578D01*
Y028526D01*
X034138Y028513D01*
X034012Y028440D01*
X033910Y028338D01*
X033837Y028212D01*
X033800Y028072D01*
Y027928D01*
X033837Y027788D01*
X033910Y027662D01*
X034012Y027560D01*
X034138Y027487D01*
X034278Y027450D01*
X034422D01*
X034562Y027487D01*
X034688Y027560D01*
X034790Y027662D01*
X034863Y027788D01*
X034900Y027928D01*
Y028072D01*
X034863Y028212D01*
X034790Y028338D01*
X034688Y028440D01*
X034562Y028513D01*
X034512Y028526D01*
Y028578D01*
X034524Y028581D01*
X034626Y028640D01*
X034710Y028724D01*
X034769Y028826D01*
X034800Y028941D01*
Y028953D01*
X034850Y028966D01*
X034910Y028862D01*
X035012Y028760D01*
X035138Y028687D01*
X035278Y028650D01*
X035422D01*
X035562Y028687D01*
X035688Y028760D01*
X035790Y028862D01*
X035863Y028988D01*
X035900Y029128D01*
Y029272D01*
X035863Y029412D01*
X035790Y029538D01*
X035688Y029640D01*
X035562Y029713D01*
X035512Y029726D01*
Y029778D01*
X035524Y029781D01*
X035626Y029840D01*
X035710Y029924D01*
X035769Y030026D01*
X035800Y030141D01*
Y030150D01*
D02*
G37*
G36*
X024820Y029544D02*
X024810D01*
Y029140D01*
X025214D01*
Y029150D01*
X025183Y029265D01*
X025124Y029369D01*
X025039Y029454D01*
X024935Y029513D01*
X024820Y029544D01*
D02*
G37*
G36*
X024710D02*
X024700D01*
X024585Y029513D01*
X024481Y029454D01*
X024396Y029369D01*
X024337Y029265D01*
X024306Y029150D01*
Y029140D01*
X024710D01*
Y029544D01*
D02*
G37*
G36*
X034300Y029450D02*
X034291D01*
X034176Y029419D01*
X034074Y029360D01*
X033990Y029276D01*
X033931Y029174D01*
X033900Y029059D01*
Y029050D01*
X034300D01*
Y029450D01*
D02*
G37*
G36*
X025214Y029040D02*
X024810D01*
Y028636D01*
X024820D01*
X024935Y028667D01*
X025039Y028726D01*
X025124Y028811D01*
X025183Y028915D01*
X025214Y029030D01*
Y029040D01*
D02*
G37*
G36*
X024710D02*
X024306D01*
Y029030D01*
X024337Y028915D01*
X024396Y028811D01*
X024481Y028726D01*
X024585Y028667D01*
X024700Y028636D01*
X024710D01*
Y029040D01*
D02*
G37*
G36*
X030809Y029150D02*
X030800D01*
Y028600D01*
X031350D01*
Y028609D01*
X031327Y028725D01*
X031282Y028834D01*
X031216Y028932D01*
X031132Y029016D01*
X031034Y029082D01*
X030925Y029127D01*
X030809Y029150D01*
D02*
G37*
G36*
X030700D02*
X030691D01*
X030575Y029127D01*
X030466Y029082D01*
X030368Y029016D01*
X030284Y028932D01*
X030218Y028834D01*
X030173Y028725D01*
X030150Y028609D01*
Y028600D01*
X030700D01*
Y029150D01*
D02*
G37*
G36*
X022273Y029644D02*
X022127D01*
X021986Y029607D01*
X021860Y029534D01*
X021756Y029430D01*
X021683Y029304D01*
X021646Y029163D01*
Y029017D01*
X021683Y028876D01*
X021756Y028750D01*
X021860Y028646D01*
X021986Y028573D01*
X022127Y028536D01*
X022273D01*
X022414Y028573D01*
X022540Y028646D01*
X022644Y028750D01*
X022717Y028876D01*
X022754Y029017D01*
Y029163D01*
X022717Y029304D01*
X022644Y029430D01*
X022540Y029534D01*
X022414Y029607D01*
X022273Y029644D01*
D02*
G37*
G36*
X031350Y028500D02*
X030800D01*
Y027950D01*
X030809D01*
X030925Y027973D01*
X031034Y028018D01*
X031132Y028084D01*
X031216Y028168D01*
X031282Y028266D01*
X031327Y028375D01*
X031350Y028491D01*
Y028500D01*
D02*
G37*
G36*
X030700D02*
X030150D01*
Y028491D01*
X030173Y028375D01*
X030218Y028266D01*
X030284Y028168D01*
X030368Y028084D01*
X030466Y028018D01*
X030575Y027973D01*
X030691Y027950D01*
X030700D01*
Y028500D01*
D02*
G37*
G36*
X030819Y027550D02*
X030681D01*
X030546Y027523D01*
X030418Y027470D01*
X030304Y027394D01*
X030206Y027296D01*
X030130Y027182D01*
X030077Y027054D01*
X030050Y026919D01*
Y026781D01*
X030077Y026646D01*
X030130Y026518D01*
X030206Y026404D01*
X030304Y026306D01*
X030418Y026230D01*
X030546Y026177D01*
X030681Y026150D01*
X030819D01*
X030954Y026177D01*
X031082Y026230D01*
X031196Y026306D01*
X031294Y026404D01*
X031370Y026518D01*
X031423Y026646D01*
X031450Y026781D01*
Y026919D01*
X031423Y027054D01*
X031370Y027182D01*
X031294Y027296D01*
X031196Y027394D01*
X031082Y027470D01*
X030954Y027523D01*
X030819Y027550D01*
D02*
G37*
G36*
X039926Y028775D02*
X039774D01*
X039628Y028736D01*
X039497Y028660D01*
X039390Y028553D01*
X039314Y028422D01*
X039275Y028276D01*
Y028124D01*
X039314Y027978D01*
X039390Y027847D01*
X039497Y027740D01*
X039591Y027686D01*
Y027628D01*
X039543Y027600D01*
X039450Y027507D01*
X039384Y027393D01*
X039350Y027266D01*
Y027134D01*
X039384Y027007D01*
X039450Y026893D01*
X039543Y026800D01*
X039591Y026772D01*
Y026714D01*
X039497Y026660D01*
X039390Y026553D01*
X039314Y026422D01*
X039275Y026276D01*
Y026124D01*
X039314Y025978D01*
X039390Y025847D01*
X039497Y025740D01*
X039628Y025664D01*
X039774Y025625D01*
X039926D01*
X040072Y025664D01*
X040203Y025740D01*
X040310Y025847D01*
X040386Y025978D01*
X040425Y026124D01*
Y026276D01*
X040386Y026422D01*
X040310Y026553D01*
X040203Y026660D01*
X040109Y026714D01*
Y026772D01*
X040157Y026800D01*
X040250Y026893D01*
X040316Y027007D01*
X040350Y027134D01*
Y027266D01*
X040316Y027393D01*
X040250Y027507D01*
X040157Y027600D01*
X040109Y027628D01*
Y027686D01*
X040203Y027740D01*
X040310Y027847D01*
X040386Y027978D01*
X040425Y028124D01*
Y028276D01*
X040386Y028422D01*
X040310Y028553D01*
X040203Y028660D01*
X040072Y028736D01*
X039926Y028775D01*
D02*
G37*
G36*
X025622Y026300D02*
X025478D01*
X025338Y026263D01*
X025212Y026190D01*
X025110Y026088D01*
X025037Y025962D01*
X025000Y025822D01*
Y025678D01*
X025037Y025538D01*
X025110Y025412D01*
X025212Y025310D01*
X025338Y025237D01*
X025478Y025200D01*
X025622D01*
X025762Y025237D01*
X025888Y025310D01*
X025990Y025412D01*
X026063Y025538D01*
X026100Y025678D01*
Y025822D01*
X026063Y025962D01*
X025990Y026088D01*
X025888Y026190D01*
X025762Y026263D01*
X025622Y026300D01*
D02*
G37*
G36*
X022122D02*
X021978D01*
X021838Y026263D01*
X021712Y026190D01*
X021610Y026088D01*
X021537Y025962D01*
X021500Y025822D01*
Y025678D01*
X021537Y025538D01*
X021610Y025412D01*
X021712Y025310D01*
X021838Y025237D01*
X021978Y025200D01*
X022122D01*
X022262Y025237D01*
X022388Y025310D01*
X022490Y025412D01*
X022563Y025538D01*
X022600Y025678D01*
Y025822D01*
X022563Y025962D01*
X022490Y026088D01*
X022388Y026190D01*
X022262Y026263D01*
X022122Y026300D01*
D02*
G37*
G36*
X028300Y024758D02*
Y024450D01*
X028642D01*
X028636Y024493D01*
X028600Y024579D01*
X028543Y024654D01*
X028469Y024711D01*
X028382Y024747D01*
X028300Y024758D01*
D02*
G37*
G36*
X028200D02*
X028118Y024747D01*
X028031Y024711D01*
X027957Y024654D01*
X027900Y024579D01*
X027864Y024493D01*
X027858Y024450D01*
X028200D01*
Y024758D01*
D02*
G37*
G36*
X022160Y024694D02*
X022150D01*
Y024290D01*
X022554D01*
Y024300D01*
X022523Y024415D01*
X022464Y024519D01*
X022379Y024604D01*
X022275Y024663D01*
X022160Y024694D01*
D02*
G37*
G36*
X022050D02*
X022040D01*
X021925Y024663D01*
X021821Y024604D01*
X021736Y024519D01*
X021677Y024415D01*
X021646Y024300D01*
Y024290D01*
X022050D01*
Y024694D01*
D02*
G37*
G36*
X028642Y024350D02*
X028300D01*
Y024042D01*
X028382Y024053D01*
X028469Y024089D01*
X028543Y024146D01*
X028600Y024221D01*
X028636Y024307D01*
X028642Y024350D01*
D02*
G37*
G36*
X028200D02*
X027858D01*
X027864Y024307D01*
X027900Y024221D01*
X027957Y024146D01*
X028031Y024089D01*
X028118Y024053D01*
X028200Y024042D01*
Y024350D01*
D02*
G37*
G36*
X022554Y024190D02*
X022150D01*
Y023786D01*
X022160D01*
X022275Y023817D01*
X022379Y023876D01*
X022464Y023961D01*
X022523Y024065D01*
X022554Y024180D01*
Y024190D01*
D02*
G37*
G36*
X022050D02*
X021646D01*
Y024180D01*
X021677Y024065D01*
X021736Y023961D01*
X021821Y023876D01*
X021925Y023817D01*
X022040Y023786D01*
X022050D01*
Y024190D01*
D02*
G37*
G36*
X024723Y024804D02*
X024577D01*
X024436Y024767D01*
X024310Y024694D01*
X024206Y024590D01*
X024133Y024464D01*
X024096Y024323D01*
Y024177D01*
X024133Y024036D01*
X024206Y023910D01*
X024310Y023806D01*
X024436Y023733D01*
X024577Y023696D01*
X024723D01*
X024864Y023733D01*
X024990Y023806D01*
X025094Y023910D01*
X025167Y024036D01*
X025204Y024177D01*
Y024323D01*
X025167Y024464D01*
X025094Y024590D01*
X024990Y024694D01*
X024864Y024767D01*
X024723Y024804D01*
D02*
G37*
G36*
X056965Y023495D02*
X056915Y023495D01*
X056005D01*
X055965Y023495D01*
X055915Y023495D01*
X055005D01*
X054965Y023495D01*
X054915Y023495D01*
X054005D01*
X053965Y023495D01*
X053915Y023495D01*
X052965D01*
Y022505D01*
X053915D01*
X053955Y022505D01*
X054005Y022505D01*
X054915D01*
X054955Y022505D01*
X055005Y022505D01*
X055915D01*
X055955Y022505D01*
X056005Y022505D01*
X056915D01*
X056955Y022505D01*
X057005Y022505D01*
X057955D01*
Y023495D01*
X057005D01*
X056965Y023495D01*
D02*
G37*
G36*
X046600Y030950D02*
X045500D01*
Y029850D01*
X045651D01*
X045672Y029800D01*
X045610Y029738D01*
X045537Y029612D01*
X045500Y029472D01*
Y029328D01*
X045537Y029188D01*
X045610Y029062D01*
X045712Y028960D01*
X045773Y028925D01*
Y028875D01*
X045712Y028840D01*
X045610Y028738D01*
X045537Y028612D01*
X045500Y028472D01*
Y028328D01*
X045537Y028188D01*
X045610Y028062D01*
X045712Y027960D01*
X045773Y027925D01*
Y027875D01*
X045712Y027840D01*
X045610Y027738D01*
X045537Y027612D01*
X045500Y027472D01*
Y027328D01*
X045537Y027188D01*
X045610Y027062D01*
X045712Y026960D01*
X045773Y026925D01*
Y026875D01*
X045712Y026840D01*
X045610Y026738D01*
X045537Y026612D01*
X045500Y026472D01*
Y026328D01*
X045537Y026188D01*
X045610Y026062D01*
X045712Y025960D01*
X045773Y025925D01*
Y025875D01*
X045712Y025840D01*
X045610Y025738D01*
X045537Y025612D01*
X045500Y025472D01*
Y025328D01*
X045537Y025188D01*
X045610Y025062D01*
X045712Y024960D01*
X045773Y024925D01*
Y024875D01*
X045712Y024840D01*
X045610Y024738D01*
X045537Y024612D01*
X045500Y024472D01*
Y024328D01*
X045537Y024188D01*
X045610Y024062D01*
X045712Y023960D01*
X045773Y023925D01*
Y023875D01*
X045712Y023840D01*
X045610Y023738D01*
X045537Y023612D01*
X045500Y023472D01*
Y023328D01*
X045537Y023188D01*
X045610Y023062D01*
X045712Y022960D01*
X045838Y022887D01*
X045978Y022850D01*
X046122D01*
X046262Y022887D01*
X046388Y022960D01*
X046490Y023062D01*
X046563Y023188D01*
X046600Y023328D01*
Y023472D01*
X046563Y023612D01*
X046490Y023738D01*
X046388Y023840D01*
X046327Y023875D01*
Y023925D01*
X046388Y023960D01*
X046490Y024062D01*
X046563Y024188D01*
X046600Y024328D01*
Y024472D01*
X046563Y024612D01*
X046490Y024738D01*
X046388Y024840D01*
X046327Y024875D01*
Y024925D01*
X046388Y024960D01*
X046490Y025062D01*
X046563Y025188D01*
X046600Y025328D01*
Y025472D01*
X046563Y025612D01*
X046490Y025738D01*
X046388Y025840D01*
X046327Y025875D01*
Y025925D01*
X046388Y025960D01*
X046490Y026062D01*
X046563Y026188D01*
X046600Y026328D01*
Y026472D01*
X046563Y026612D01*
X046490Y026738D01*
X046388Y026840D01*
X046327Y026875D01*
Y026925D01*
X046388Y026960D01*
X046490Y027062D01*
X046563Y027188D01*
X046600Y027328D01*
Y027472D01*
X046563Y027612D01*
X046490Y027738D01*
X046388Y027840D01*
X046327Y027875D01*
Y027925D01*
X046388Y027960D01*
X046490Y028062D01*
X046563Y028188D01*
X046600Y028328D01*
Y028472D01*
X046563Y028612D01*
X046490Y028738D01*
X046388Y028840D01*
X046327Y028875D01*
Y028925D01*
X046388Y028960D01*
X046490Y029062D01*
X046563Y029188D01*
X046600Y029328D01*
Y029472D01*
X046563Y029612D01*
X046490Y029738D01*
X046428Y029800D01*
X046449Y029850D01*
X046600D01*
Y030950D01*
D02*
G37*
G36*
X024720Y022934D02*
X024710D01*
Y022530D01*
X025114D01*
Y022540D01*
X025083Y022655D01*
X025024Y022759D01*
X024939Y022844D01*
X024835Y022903D01*
X024720Y022934D01*
D02*
G37*
G36*
X024610D02*
X024600D01*
X024485Y022903D01*
X024381Y022844D01*
X024296Y022759D01*
X024237Y022655D01*
X024206Y022540D01*
Y022530D01*
X024610D01*
Y022934D01*
D02*
G37*
G36*
X025114Y022430D02*
X024710D01*
Y022026D01*
X024720D01*
X024835Y022057D01*
X024939Y022116D01*
X025024Y022201D01*
X025083Y022305D01*
X025114Y022420D01*
Y022430D01*
D02*
G37*
G36*
X024610D02*
X024206D01*
Y022420D01*
X024237Y022305D01*
X024296Y022201D01*
X024381Y022116D01*
X024485Y022057D01*
X024600Y022026D01*
X024610D01*
Y022430D01*
D02*
G37*
G36*
X022173Y023034D02*
X022027D01*
X021886Y022997D01*
X021760Y022924D01*
X021656Y022820D01*
X021583Y022694D01*
X021546Y022553D01*
Y022407D01*
X021583Y022266D01*
X021656Y022140D01*
X021760Y022036D01*
X021886Y021963D01*
X022027Y021926D01*
X022173D01*
X022314Y021963D01*
X022440Y022036D01*
X022544Y022140D01*
X022617Y022266D01*
X022654Y022407D01*
Y022553D01*
X022617Y022694D01*
X022544Y022820D01*
X022440Y022924D01*
X022314Y022997D01*
X022173Y023034D01*
D02*
G37*
G36*
X056115Y021995D02*
X055985D01*
X055859Y021962D01*
X055746Y021896D01*
X055654Y021804D01*
X055588Y021691D01*
X055576Y021644D01*
X055524D01*
X055512Y021691D01*
X055446Y021804D01*
X055354Y021896D01*
X055241Y021962D01*
X055115Y021995D01*
X054985D01*
X054859Y021962D01*
X054746Y021896D01*
X054654Y021804D01*
X054588Y021691D01*
X054555Y021565D01*
Y021435D01*
X054588Y021309D01*
X054654Y021196D01*
X054746Y021104D01*
X054859Y021038D01*
X054985Y021005D01*
X055115D01*
X055241Y021038D01*
X055354Y021104D01*
X055446Y021196D01*
X055512Y021309D01*
X055524Y021356D01*
X055576D01*
X055588Y021309D01*
X055654Y021196D01*
X055746Y021104D01*
X055859Y021038D01*
X055985Y021005D01*
X056115D01*
X056241Y021038D01*
X056354Y021104D01*
X056446Y021196D01*
X056512Y021309D01*
X056545Y021435D01*
Y021565D01*
X056512Y021691D01*
X056446Y021804D01*
X056354Y021896D01*
X056241Y021962D01*
X056115Y021995D01*
D02*
G37*
G36*
X057165D02*
X057035D01*
X056909Y021962D01*
X056796Y021896D01*
X056704Y021804D01*
X056638Y021691D01*
X056605Y021565D01*
Y021435D01*
X056638Y021309D01*
X056704Y021196D01*
X056796Y021104D01*
X056909Y021038D01*
X057035Y021005D01*
X057165D01*
X057291Y021038D01*
X057404Y021104D01*
X057496Y021196D01*
X057562Y021309D01*
X057595Y021435D01*
Y021565D01*
X057562Y021691D01*
X057496Y021804D01*
X057404Y021896D01*
X057291Y021962D01*
X057165Y021995D01*
D02*
G37*
G36*
X054015D02*
X053885D01*
X053759Y021962D01*
X053646Y021896D01*
X053554Y021804D01*
X053488Y021691D01*
X053455Y021565D01*
Y021435D01*
X053488Y021309D01*
X053554Y021196D01*
X053646Y021104D01*
X053759Y021038D01*
X053885Y021005D01*
X054015D01*
X054141Y021038D01*
X054254Y021104D01*
X054346Y021196D01*
X054412Y021309D01*
X054445Y021435D01*
Y021565D01*
X054412Y021691D01*
X054346Y021804D01*
X054254Y021896D01*
X054141Y021962D01*
X054015Y021995D01*
D02*
G37*
G36*
X045659Y020150D02*
X045650D01*
Y019600D01*
X046200D01*
Y019609D01*
X046177Y019725D01*
X046132Y019834D01*
X046066Y019932D01*
X045982Y020016D01*
X045884Y020082D01*
X045775Y020127D01*
X045659Y020150D01*
D02*
G37*
G36*
X045550D02*
X045541D01*
X045425Y020127D01*
X045316Y020082D01*
X045218Y020016D01*
X045134Y019932D01*
X045068Y019834D01*
X045023Y019725D01*
X045000Y019609D01*
Y019600D01*
X045550D01*
Y020150D01*
D02*
G37*
G36*
X043150Y031004D02*
X042850D01*
X042719Y030987D01*
X042598Y030937D01*
X042493Y030857D01*
X042413Y030752D01*
X042363Y030631D01*
X042346Y030500D01*
X042363Y030369D01*
X042413Y030248D01*
X042493Y030143D01*
X042598Y030063D01*
X042685Y030027D01*
Y029973D01*
X042598Y029937D01*
X042493Y029857D01*
X042413Y029752D01*
X042363Y029631D01*
X042346Y029500D01*
X042363Y029369D01*
X042413Y029248D01*
X042493Y029143D01*
X042598Y029063D01*
X042685Y029027D01*
Y028973D01*
X042598Y028937D01*
X042493Y028857D01*
X042413Y028752D01*
X042363Y028631D01*
X042346Y028500D01*
X042363Y028369D01*
X042413Y028248D01*
X042493Y028143D01*
X042598Y028063D01*
X042685Y028027D01*
Y027973D01*
X042598Y027937D01*
X042493Y027857D01*
X042413Y027752D01*
X042363Y027631D01*
X042346Y027500D01*
X042363Y027369D01*
X042413Y027248D01*
X042493Y027143D01*
X042598Y027063D01*
X042685Y027027D01*
Y026973D01*
X042598Y026937D01*
X042493Y026857D01*
X042413Y026752D01*
X042363Y026631D01*
X042346Y026500D01*
X042363Y026369D01*
X042413Y026248D01*
X042493Y026143D01*
X042598Y026063D01*
X042685Y026027D01*
Y025973D01*
X042598Y025937D01*
X042493Y025857D01*
X042413Y025752D01*
X042363Y025631D01*
X042346Y025500D01*
X042363Y025369D01*
X042413Y025248D01*
X042493Y025143D01*
X042598Y025063D01*
X042685Y025027D01*
Y024973D01*
X042598Y024937D01*
X042493Y024857D01*
X042413Y024752D01*
X042363Y024631D01*
X042346Y024500D01*
X042363Y024369D01*
X042413Y024248D01*
X042493Y024143D01*
X042598Y024063D01*
X042685Y024027D01*
Y023973D01*
X042598Y023937D01*
X042493Y023857D01*
X042413Y023752D01*
X042363Y023631D01*
X042346Y023500D01*
X042363Y023369D01*
X042413Y023248D01*
X042493Y023143D01*
X042598Y023063D01*
X042685Y023027D01*
Y022973D01*
X042598Y022937D01*
X042493Y022857D01*
X042413Y022752D01*
X042363Y022631D01*
X042346Y022500D01*
X042363Y022369D01*
X042413Y022248D01*
X042493Y022143D01*
X042598Y022063D01*
X042685Y022027D01*
Y021973D01*
X042598Y021937D01*
X042493Y021857D01*
X042413Y021752D01*
X042363Y021631D01*
X042346Y021500D01*
X042363Y021369D01*
X042413Y021248D01*
X042493Y021143D01*
X042598Y021063D01*
X042672Y021032D01*
Y019836D01*
X042089Y019253D01*
X040774D01*
X040745Y019303D01*
X040794Y019388D01*
X040831Y019528D01*
Y019672D01*
X040794Y019812D01*
X040722Y019938D01*
X040619Y020040D01*
X040609Y020046D01*
Y023368D01*
X040604Y023411D01*
X040598Y023453D01*
X040565Y023532D01*
X040513Y023600D01*
X037650Y026464D01*
X037654Y026500D01*
X037637Y026631D01*
X037587Y026752D01*
X037507Y026857D01*
X037402Y026937D01*
X037315Y026973D01*
Y027027D01*
X037402Y027063D01*
X037507Y027143D01*
X037587Y027248D01*
X037637Y027369D01*
X037654Y027500D01*
X037637Y027631D01*
X037587Y027752D01*
X037507Y027857D01*
X037402Y027937D01*
X037315Y027973D01*
Y028027D01*
X037402Y028063D01*
X037507Y028143D01*
X037587Y028248D01*
X037637Y028369D01*
X037654Y028500D01*
X037637Y028631D01*
X037587Y028752D01*
X037507Y028857D01*
X037402Y028937D01*
X037315Y028973D01*
Y029027D01*
X037402Y029063D01*
X037507Y029143D01*
X037587Y029248D01*
X037637Y029369D01*
X037654Y029500D01*
X037637Y029631D01*
X037587Y029752D01*
X037507Y029857D01*
X037402Y029937D01*
X037281Y029987D01*
X037150Y030004D01*
X036850D01*
X036719Y029987D01*
X036598Y029937D01*
X036493Y029857D01*
X036413Y029752D01*
X036363Y029631D01*
X036346Y029500D01*
X036363Y029369D01*
X036413Y029248D01*
X036493Y029143D01*
X036598Y029063D01*
X036685Y029027D01*
Y028973D01*
X036598Y028937D01*
X036493Y028857D01*
X036413Y028752D01*
X036363Y028631D01*
X036346Y028500D01*
X036363Y028369D01*
X036413Y028248D01*
X036493Y028143D01*
X036598Y028063D01*
X036685Y028027D01*
Y027973D01*
X036598Y027937D01*
X036493Y027857D01*
X036413Y027752D01*
X036363Y027631D01*
X036346Y027500D01*
X036363Y027369D01*
X036413Y027248D01*
X036493Y027143D01*
X036598Y027063D01*
X036685Y027027D01*
Y026973D01*
X036598Y026937D01*
X036493Y026857D01*
X036413Y026752D01*
X036363Y026631D01*
X036346Y026500D01*
X036363Y026369D01*
X036413Y026248D01*
X036493Y026143D01*
X036598Y026063D01*
X036685Y026027D01*
Y025973D01*
X036598Y025937D01*
X036493Y025857D01*
X036413Y025752D01*
X036363Y025631D01*
X036346Y025500D01*
X036363Y025369D01*
X036413Y025248D01*
X036493Y025143D01*
X036598Y025063D01*
X036685Y025027D01*
Y024973D01*
X036598Y024937D01*
X036493Y024857D01*
X036413Y024752D01*
X036363Y024631D01*
X036346Y024500D01*
X036363Y024369D01*
X036413Y024248D01*
X036493Y024143D01*
X036598Y024063D01*
X036685Y024027D01*
Y023973D01*
X036598Y023937D01*
X036493Y023857D01*
X036413Y023752D01*
X036363Y023631D01*
X036346Y023500D01*
X036363Y023369D01*
X036413Y023248D01*
X036493Y023143D01*
X036598Y023063D01*
X036685Y023027D01*
Y022973D01*
X036598Y022937D01*
X036493Y022857D01*
X036413Y022752D01*
X036363Y022631D01*
X036346Y022500D01*
X036363Y022369D01*
X036413Y022248D01*
X036493Y022143D01*
X036598Y022063D01*
X036685Y022027D01*
Y021973D01*
X036598Y021937D01*
X036493Y021857D01*
X036413Y021752D01*
X036365Y021635D01*
X036329Y021619D01*
X036315Y021614D01*
X035311Y022619D01*
Y024867D01*
X035305Y024909D01*
X035300Y024952D01*
X035267Y025031D01*
X035215Y025099D01*
X033700Y026614D01*
Y027250D01*
X032600D01*
Y026150D01*
X032751D01*
X032772Y026100D01*
X032710Y026038D01*
X032637Y025912D01*
X032600Y025772D01*
Y025628D01*
X032637Y025488D01*
X032710Y025362D01*
X032812Y025260D01*
X032873Y025225D01*
Y025175D01*
X032812Y025140D01*
X032710Y025038D01*
X032637Y024912D01*
X032600Y024772D01*
Y024628D01*
X032637Y024488D01*
X032710Y024362D01*
X032812Y024260D01*
X032873Y024225D01*
Y024175D01*
X032812Y024140D01*
X032710Y024038D01*
X032637Y023912D01*
X032600Y023772D01*
Y023628D01*
X032637Y023488D01*
X032710Y023362D01*
X032812Y023260D01*
X032873Y023225D01*
Y023175D01*
X032812Y023140D01*
X032710Y023038D01*
X032637Y022912D01*
X032600Y022772D01*
Y022628D01*
X032637Y022488D01*
X032710Y022362D01*
X032812Y022260D01*
X032873Y022225D01*
Y022175D01*
X032812Y022140D01*
X032710Y022038D01*
X032637Y021912D01*
X032600Y021772D01*
Y021628D01*
X032637Y021488D01*
X032710Y021362D01*
X032812Y021260D01*
X032873Y021225D01*
Y021175D01*
X032812Y021140D01*
X032710Y021038D01*
X032637Y020912D01*
X032600Y020772D01*
Y020628D01*
X032637Y020488D01*
X032710Y020362D01*
X032812Y020260D01*
X032873Y020225D01*
Y020175D01*
X032812Y020140D01*
X032710Y020038D01*
X032637Y019912D01*
X032600Y019772D01*
Y019628D01*
X032637Y019488D01*
X032710Y019362D01*
X032812Y019260D01*
X032938Y019187D01*
X033078Y019150D01*
X033222D01*
X033362Y019187D01*
X033488Y019260D01*
X033590Y019362D01*
X033596Y019372D01*
X036393D01*
X037072Y018693D01*
X037140Y018641D01*
X037219Y018608D01*
X037304Y018597D01*
X042225D01*
X042267Y018603D01*
X042310Y018608D01*
X042389Y018641D01*
X042457Y018693D01*
X043232Y019468D01*
X043284Y019536D01*
X043317Y019615D01*
X043328Y019700D01*
Y021032D01*
X043402Y021063D01*
X043507Y021143D01*
X043587Y021248D01*
X043637Y021369D01*
X043654Y021500D01*
X043637Y021631D01*
X043587Y021752D01*
X043507Y021857D01*
X043402Y021937D01*
X043315Y021973D01*
Y022027D01*
X043402Y022063D01*
X043507Y022143D01*
X043587Y022248D01*
X043637Y022369D01*
X043654Y022500D01*
X043637Y022631D01*
X043587Y022752D01*
X043507Y022857D01*
X043402Y022937D01*
X043315Y022973D01*
Y023027D01*
X043402Y023063D01*
X043507Y023143D01*
X043587Y023248D01*
X043637Y023369D01*
X043654Y023500D01*
X043637Y023631D01*
X043587Y023752D01*
X043507Y023857D01*
X043402Y023937D01*
X043315Y023973D01*
Y024027D01*
X043402Y024063D01*
X043507Y024143D01*
X043587Y024248D01*
X043637Y024369D01*
X043654Y024500D01*
X043637Y024631D01*
X043587Y024752D01*
X043507Y024857D01*
X043402Y024937D01*
X043315Y024973D01*
Y025027D01*
X043402Y025063D01*
X043507Y025143D01*
X043587Y025248D01*
X043637Y025369D01*
X043654Y025500D01*
X043637Y025631D01*
X043587Y025752D01*
X043507Y025857D01*
X043402Y025937D01*
X043315Y025973D01*
Y026027D01*
X043402Y026063D01*
X043507Y026143D01*
X043587Y026248D01*
X043637Y026369D01*
X043654Y026500D01*
X043637Y026631D01*
X043587Y026752D01*
X043507Y026857D01*
X043402Y026937D01*
X043315Y026973D01*
Y027027D01*
X043402Y027063D01*
X043507Y027143D01*
X043587Y027248D01*
X043637Y027369D01*
X043654Y027500D01*
X043637Y027631D01*
X043587Y027752D01*
X043507Y027857D01*
X043402Y027937D01*
X043315Y027973D01*
Y028027D01*
X043402Y028063D01*
X043507Y028143D01*
X043587Y028248D01*
X043637Y028369D01*
X043654Y028500D01*
X043637Y028631D01*
X043587Y028752D01*
X043507Y028857D01*
X043402Y028937D01*
X043315Y028973D01*
Y029027D01*
X043402Y029063D01*
X043507Y029143D01*
X043587Y029248D01*
X043637Y029369D01*
X043654Y029500D01*
X043637Y029631D01*
X043587Y029752D01*
X043507Y029857D01*
X043402Y029937D01*
X043315Y029973D01*
Y030027D01*
X043402Y030063D01*
X043507Y030143D01*
X043587Y030248D01*
X043637Y030369D01*
X043654Y030500D01*
X043637Y030631D01*
X043587Y030752D01*
X043507Y030857D01*
X043402Y030937D01*
X043281Y030987D01*
X043150Y031004D01*
D02*
G37*
G36*
X031425Y019480D02*
X031075D01*
X030938Y019461D01*
X030810Y019409D01*
X030701Y019324D01*
X030630Y019233D01*
X030621Y019229D01*
X030579D01*
X030570Y019233D01*
X030499Y019324D01*
X030390Y019409D01*
X030262Y019461D01*
X030125Y019480D01*
X029775D01*
X029638Y019461D01*
X029510Y019409D01*
X029401Y019324D01*
X029330Y019233D01*
X029321Y019229D01*
X029279D01*
X029270Y019233D01*
X029199Y019324D01*
X029090Y019409D01*
X028962Y019461D01*
X028825Y019480D01*
X028475D01*
X028338Y019461D01*
X028210Y019409D01*
X028101Y019324D01*
X028030Y019233D01*
X028021Y019229D01*
X027979D01*
X027970Y019233D01*
X027899Y019324D01*
X027790Y019409D01*
X027662Y019461D01*
X027525Y019480D01*
X027175D01*
X027038Y019461D01*
X026910Y019409D01*
X026801Y019324D01*
X026730Y019233D01*
X026721Y019229D01*
X026679D01*
X026670Y019233D01*
X026599Y019324D01*
X026490Y019409D01*
X026362Y019461D01*
X026225Y019480D01*
X025875D01*
X025738Y019461D01*
X025610Y019409D01*
X025501Y019324D01*
X025430Y019233D01*
X025421Y019229D01*
X025379D01*
X025370Y019233D01*
X025299Y019324D01*
X025190Y019409D01*
X025062Y019461D01*
X024925Y019480D01*
X024575D01*
X024438Y019461D01*
X024310Y019409D01*
X024201Y019324D01*
X024130Y019233D01*
X024121Y019229D01*
X024079D01*
X024070Y019233D01*
X023999Y019324D01*
X023890Y019409D01*
X023762Y019461D01*
X023625Y019480D01*
X023275D01*
X023138Y019461D01*
X023010Y019409D01*
X022901Y019324D01*
X022830Y019233D01*
X022821Y019229D01*
X022779D01*
X022770Y019233D01*
X022699Y019324D01*
X022590Y019409D01*
X022462Y019461D01*
X022325Y019480D01*
X021975D01*
X021838Y019461D01*
X021710Y019409D01*
X021601Y019324D01*
X021516Y019215D01*
X021464Y019087D01*
X021445Y018950D01*
X021464Y018813D01*
X021516Y018685D01*
X021601Y018576D01*
X021666Y018525D01*
X021649Y018475D01*
X021450D01*
Y017425D01*
X031950D01*
Y018475D01*
X031751D01*
X031734Y018525D01*
X031799Y018576D01*
X031884Y018685D01*
X031936Y018813D01*
X031955Y018950D01*
X031936Y019087D01*
X031884Y019215D01*
X031799Y019324D01*
X031690Y019409D01*
X031562Y019461D01*
X031425Y019480D01*
D02*
G37*
G36*
X046200Y019500D02*
X045650D01*
Y018950D01*
X045659D01*
X045775Y018973D01*
X045884Y019018D01*
X045982Y019084D01*
X046066Y019168D01*
X046132Y019266D01*
X046177Y019375D01*
X046200Y019491D01*
Y019500D01*
D02*
G37*
G36*
X045550D02*
X045000D01*
Y019491D01*
X045023Y019375D01*
X045068Y019266D01*
X045134Y019168D01*
X045218Y019084D01*
X045316Y019018D01*
X045425Y018973D01*
X045541Y018950D01*
X045550D01*
Y019500D01*
D02*
G37*
G36*
X056115Y018495D02*
X055985D01*
X055859Y018462D01*
X055746Y018396D01*
X055654Y018304D01*
X055588Y018191D01*
X055576Y018144D01*
X055524D01*
X055512Y018191D01*
X055446Y018304D01*
X055354Y018396D01*
X055241Y018462D01*
X055115Y018495D01*
X054985D01*
X054859Y018462D01*
X054746Y018396D01*
X054654Y018304D01*
X054588Y018191D01*
X054555Y018065D01*
Y017935D01*
X054588Y017809D01*
X054654Y017696D01*
X054746Y017604D01*
X054859Y017538D01*
X054985Y017505D01*
X055115D01*
X055241Y017538D01*
X055354Y017604D01*
X055446Y017696D01*
X055512Y017809D01*
X055524Y017856D01*
X055576D01*
X055588Y017809D01*
X055654Y017696D01*
X055746Y017604D01*
X055859Y017538D01*
X055985Y017505D01*
X056115D01*
X056241Y017538D01*
X056354Y017604D01*
X056446Y017696D01*
X056512Y017809D01*
X056545Y017935D01*
Y018065D01*
X056512Y018191D01*
X056446Y018304D01*
X056354Y018396D01*
X056241Y018462D01*
X056115Y018495D01*
D02*
G37*
G36*
X047915Y018895D02*
X047785D01*
X047659Y018862D01*
X047546Y018796D01*
X047454Y018704D01*
X047388Y018591D01*
X047355Y018465D01*
Y018335D01*
X047388Y018209D01*
X047454Y018096D01*
X047546Y018004D01*
X047659Y017938D01*
X047785Y017905D01*
X047915D01*
X048041Y017938D01*
X048154Y018004D01*
X048246Y018096D01*
X048312Y018209D01*
X048345Y018335D01*
Y018465D01*
X048312Y018591D01*
X048246Y018704D01*
X048154Y018796D01*
X048041Y018862D01*
X047915Y018895D01*
D02*
G37*
G36*
X045659Y018450D02*
X045650D01*
Y017900D01*
X046200D01*
Y017909D01*
X046177Y018025D01*
X046132Y018134D01*
X046066Y018232D01*
X045982Y018316D01*
X045884Y018382D01*
X045775Y018427D01*
X045659Y018450D01*
D02*
G37*
G36*
X045550D02*
X045541D01*
X045425Y018427D01*
X045316Y018382D01*
X045218Y018316D01*
X045134Y018232D01*
X045068Y018134D01*
X045023Y018025D01*
X045000Y017909D01*
Y017900D01*
X045550D01*
Y018450D01*
D02*
G37*
G36*
X049445Y018145D02*
X049100D01*
Y017800D01*
X049445D01*
Y018145D01*
D02*
G37*
G36*
X049000D02*
X048655D01*
Y017800D01*
X049000D01*
Y018145D01*
D02*
G37*
G36*
X057165Y018495D02*
X057035D01*
X056909Y018462D01*
X056796Y018396D01*
X056704Y018304D01*
X056638Y018191D01*
X056605Y018065D01*
Y017935D01*
X056638Y017809D01*
X056704Y017696D01*
X056796Y017604D01*
X056909Y017538D01*
X057035Y017505D01*
X057165D01*
X057291Y017538D01*
X057404Y017604D01*
X057496Y017696D01*
X057562Y017809D01*
X057595Y017935D01*
Y018065D01*
X057562Y018191D01*
X057496Y018304D01*
X057404Y018396D01*
X057291Y018462D01*
X057165Y018495D01*
D02*
G37*
G36*
X054015D02*
X053885D01*
X053759Y018462D01*
X053646Y018396D01*
X053554Y018304D01*
X053488Y018191D01*
X053455Y018065D01*
Y017935D01*
X053488Y017809D01*
X053554Y017696D01*
X053646Y017604D01*
X053759Y017538D01*
X053885Y017505D01*
X054015D01*
X054141Y017538D01*
X054254Y017604D01*
X054346Y017696D01*
X054412Y017809D01*
X054445Y017935D01*
Y018065D01*
X054412Y018191D01*
X054346Y018304D01*
X054254Y018396D01*
X054141Y018462D01*
X054015Y018495D01*
D02*
G37*
G36*
X049000Y017700D02*
X048655D01*
Y017355D01*
X049000D01*
Y017700D01*
D02*
G37*
G36*
X046200Y017800D02*
X045650D01*
Y017250D01*
X045659D01*
X045775Y017273D01*
X045884Y017318D01*
X045982Y017384D01*
X046066Y017468D01*
X046132Y017566D01*
X046177Y017675D01*
X046200Y017791D01*
Y017800D01*
D02*
G37*
G36*
X045550D02*
X045000D01*
Y017791D01*
X045023Y017675D01*
X045068Y017566D01*
X045134Y017468D01*
X045218Y017384D01*
X045316Y017318D01*
X045425Y017273D01*
X045541Y017250D01*
X045550D01*
Y017800D01*
D02*
G37*
G36*
X040354Y016650D02*
X040209D01*
X040069Y016613D01*
X039944Y016540D01*
X039841Y016438D01*
X039769Y016312D01*
X039757Y016266D01*
X039706D01*
X039694Y016312D01*
X039622Y016438D01*
X039519Y016540D01*
X039394Y016613D01*
X039254Y016650D01*
X039109D01*
X038969Y016613D01*
X038844Y016540D01*
X038741Y016438D01*
X038669Y016312D01*
X038631Y016172D01*
Y016028D01*
X038669Y015888D01*
X038741Y015762D01*
X038844Y015660D01*
X038969Y015587D01*
X039109Y015550D01*
X039254D01*
X039394Y015587D01*
X039519Y015660D01*
X039622Y015762D01*
X039694Y015888D01*
X039706Y015934D01*
X039757D01*
X039769Y015888D01*
X039841Y015762D01*
X039944Y015660D01*
X040069Y015587D01*
X040209Y015550D01*
X040354D01*
X040494Y015587D01*
X040619Y015660D01*
X040722Y015762D01*
X040794Y015888D01*
X040831Y016028D01*
Y016172D01*
X040794Y016312D01*
X040722Y016438D01*
X040619Y016540D01*
X040494Y016613D01*
X040354Y016650D01*
D02*
G37*
G36*
X029650Y015404D02*
X029519Y015387D01*
X029398Y015337D01*
X029293Y015257D01*
X029213Y015152D01*
X029177Y015065D01*
X029123D01*
X029087Y015152D01*
X029007Y015257D01*
X028902Y015337D01*
X028781Y015387D01*
X028650Y015404D01*
X028519Y015387D01*
X028398Y015337D01*
X028293Y015257D01*
X028213Y015152D01*
X028177Y015065D01*
X028123D01*
X028087Y015152D01*
X028007Y015257D01*
X027902Y015337D01*
X027781Y015387D01*
X027650Y015404D01*
X027519Y015387D01*
X027398Y015337D01*
X027293Y015257D01*
X027213Y015152D01*
X027177Y015065D01*
X027123D01*
X027087Y015152D01*
X027007Y015257D01*
X026902Y015337D01*
X026781Y015387D01*
X026650Y015404D01*
X026519Y015387D01*
X026398Y015337D01*
X026293Y015257D01*
X026213Y015152D01*
X026177Y015065D01*
X026123D01*
X026087Y015152D01*
X026007Y015257D01*
X025902Y015337D01*
X025781Y015387D01*
X025650Y015404D01*
X025519Y015387D01*
X025398Y015337D01*
X025293Y015257D01*
X025213Y015152D01*
X025177Y015065D01*
X025123D01*
X025087Y015152D01*
X025007Y015257D01*
X024902Y015337D01*
X024781Y015387D01*
X024650Y015404D01*
X024519Y015387D01*
X024398Y015337D01*
X024293Y015257D01*
X024213Y015152D01*
X024177Y015065D01*
X024123D01*
X024087Y015152D01*
X024007Y015257D01*
X023902Y015337D01*
X023781Y015387D01*
X023650Y015404D01*
X023519Y015387D01*
X023398Y015337D01*
X023293Y015257D01*
X023213Y015152D01*
X023177Y015065D01*
X023123D01*
X023087Y015152D01*
X023007Y015257D01*
X022902Y015337D01*
X022781Y015387D01*
X022650Y015404D01*
X022519Y015387D01*
X022398Y015337D01*
X022293Y015257D01*
X022213Y015152D01*
X022163Y015031D01*
X022146Y014900D01*
Y014500D01*
X022163Y014369D01*
X022213Y014248D01*
X022293Y014143D01*
X022398Y014063D01*
X022519Y014013D01*
X022650Y013996D01*
X022781Y014013D01*
X022902Y014063D01*
X023007Y014143D01*
X023087Y014248D01*
X023123Y014335D01*
X023177D01*
X023213Y014248D01*
X023293Y014143D01*
X023398Y014063D01*
X023519Y014013D01*
X023650Y013996D01*
X023781Y014013D01*
X023902Y014063D01*
X024007Y014143D01*
X024087Y014248D01*
X024123Y014335D01*
X024177D01*
X024213Y014248D01*
X024293Y014143D01*
X024398Y014063D01*
X024519Y014013D01*
X024650Y013996D01*
X024781Y014013D01*
X024902Y014063D01*
X025007Y014143D01*
X025087Y014248D01*
X025123Y014335D01*
X025177D01*
X025213Y014248D01*
X025293Y014143D01*
X025398Y014063D01*
X025519Y014013D01*
X025650Y013996D01*
X025781Y014013D01*
X025902Y014063D01*
X026007Y014143D01*
X026087Y014248D01*
X026123Y014335D01*
X026177D01*
X026213Y014248D01*
X026293Y014143D01*
X026398Y014063D01*
X026519Y014013D01*
X026650Y013996D01*
X026781Y014013D01*
X026902Y014063D01*
X027007Y014143D01*
X027087Y014248D01*
X027123Y014335D01*
X027177D01*
X027213Y014248D01*
X027293Y014143D01*
X027398Y014063D01*
X027519Y014013D01*
X027650Y013996D01*
X027781Y014013D01*
X027902Y014063D01*
X028007Y014143D01*
X028087Y014248D01*
X028123Y014335D01*
X028177D01*
X028213Y014248D01*
X028293Y014143D01*
X028398Y014063D01*
X028519Y014013D01*
X028650Y013996D01*
X028781Y014013D01*
X028902Y014063D01*
X029007Y014143D01*
X029087Y014248D01*
X029123Y014335D01*
X029177D01*
X029213Y014248D01*
X029293Y014143D01*
X029398Y014063D01*
X029519Y014013D01*
X029650Y013996D01*
X029781Y014013D01*
X029902Y014063D01*
X030007Y014143D01*
X030087Y014248D01*
X030100Y014280D01*
X030150Y014270D01*
Y014000D01*
X031150D01*
Y015400D01*
X030150D01*
Y015130D01*
X030100Y015120D01*
X030087Y015152D01*
X030007Y015257D01*
X029902Y015337D01*
X029781Y015387D01*
X029650Y015404D01*
D02*
G37*
G36*
X034272Y015200D02*
X034128D01*
X033988Y015163D01*
X033862Y015090D01*
X033800Y015028D01*
X033750Y015049D01*
Y015200D01*
X032650D01*
Y014100D01*
X033750D01*
Y014251D01*
X033800Y014272D01*
X033862Y014210D01*
X033988Y014137D01*
X034128Y014100D01*
X034272D01*
X034412Y014137D01*
X034538Y014210D01*
X034640Y014312D01*
X034713Y014438D01*
X034750Y014578D01*
Y014722D01*
X034713Y014862D01*
X034640Y014988D01*
X034538Y015090D01*
X034412Y015163D01*
X034272Y015200D01*
D02*
G37*
G36*
X043362Y015150D02*
X043353D01*
Y014750D01*
X043753D01*
Y014759D01*
X043722Y014874D01*
X043663Y014976D01*
X043579Y015060D01*
X043476Y015119D01*
X043362Y015150D01*
D02*
G37*
G36*
X048245Y014850D02*
X047900D01*
Y014505D01*
X047902D01*
X048003Y014532D01*
X048093Y014584D01*
X048166Y014657D01*
X048218Y014747D01*
X048245Y014848D01*
Y014850D01*
D02*
G37*
G36*
X047800D02*
X047455D01*
Y014848D01*
X047482Y014747D01*
X047534Y014657D01*
X047607Y014584D01*
X047697Y014532D01*
X047798Y014505D01*
X047800D01*
Y014850D01*
D02*
G37*
G36*
X043753Y014650D02*
X043353D01*
Y014250D01*
X043362D01*
X043476Y014281D01*
X043579Y014340D01*
X043663Y014424D01*
X043722Y014526D01*
X043753Y014641D01*
Y014650D01*
D02*
G37*
%LPD*%
G36*
X035497Y034389D02*
Y032525D01*
X035503Y032483D01*
X035508Y032440D01*
X035541Y032361D01*
X035593Y032293D01*
X035840Y032046D01*
X035821Y032000D01*
X035791D01*
X035676Y031969D01*
X035574Y031910D01*
X035490Y031826D01*
X035431Y031724D01*
X035400Y031609D01*
Y031528D01*
X035346Y031474D01*
X035300Y031493D01*
Y032050D01*
X035030D01*
X035020Y032100D01*
X035052Y032113D01*
X035157Y032193D01*
X035237Y032298D01*
X035287Y032419D01*
X035304Y032550D01*
X035287Y032681D01*
X035237Y032802D01*
X035157Y032907D01*
X035052Y032987D01*
X034965Y033023D01*
Y033077D01*
X035052Y033113D01*
X035157Y033193D01*
X035237Y033298D01*
X035287Y033419D01*
X035304Y033550D01*
X035287Y033681D01*
X035237Y033802D01*
X035157Y033907D01*
X035052Y033987D01*
X034965Y034023D01*
Y034077D01*
X035052Y034113D01*
X035157Y034193D01*
X035237Y034298D01*
X035287Y034419D01*
X035300Y034516D01*
X035353Y034534D01*
X035497Y034389D01*
D02*
G37*
G36*
X039954Y023233D02*
Y020046D01*
X039944Y020040D01*
X039841Y019938D01*
X039769Y019812D01*
X039757Y019766D01*
X039706D01*
X039694Y019812D01*
X039622Y019938D01*
X039519Y020040D01*
X039394Y020113D01*
X039254Y020150D01*
X039109D01*
X038969Y020113D01*
X038844Y020040D01*
X038741Y019938D01*
X038736Y019928D01*
X038002D01*
X036980Y020949D01*
X036999Y020996D01*
X037150D01*
X037281Y021013D01*
X037402Y021063D01*
X037507Y021143D01*
X037587Y021248D01*
X037637Y021369D01*
X037654Y021500D01*
X037637Y021631D01*
X037587Y021752D01*
X037507Y021857D01*
X037402Y021937D01*
X037315Y021973D01*
Y022027D01*
X037402Y022063D01*
X037507Y022143D01*
X037587Y022248D01*
X037637Y022369D01*
X037654Y022500D01*
X037637Y022631D01*
X037587Y022752D01*
X037507Y022857D01*
X037402Y022937D01*
X037315Y022973D01*
Y023027D01*
X037402Y023063D01*
X037507Y023143D01*
X037587Y023248D01*
X037637Y023369D01*
X037654Y023500D01*
X037637Y023631D01*
X037587Y023752D01*
X037507Y023857D01*
X037402Y023937D01*
X037315Y023973D01*
Y024027D01*
X037402Y024063D01*
X037507Y024143D01*
X037587Y024248D01*
X037637Y024369D01*
X037654Y024500D01*
X037637Y024631D01*
X037587Y024752D01*
X037507Y024857D01*
X037402Y024937D01*
X037315Y024973D01*
Y025027D01*
X037402Y025063D01*
X037507Y025143D01*
X037587Y025248D01*
X037637Y025369D01*
X037650Y025466D01*
X037703Y025484D01*
X039954Y023233D01*
D02*
G37*
G36*
X034655Y024731D02*
Y022483D01*
X034661Y022441D01*
X034666Y022398D01*
X034699Y022319D01*
X034751Y022251D01*
X037634Y019368D01*
X037702Y019316D01*
X037734Y019303D01*
X037724Y019253D01*
X037440D01*
X036761Y019932D01*
X036693Y019984D01*
X036614Y020017D01*
X036571Y020022D01*
X036529Y020028D01*
X033596D01*
X033590Y020038D01*
X033488Y020140D01*
X033427Y020175D01*
Y020225D01*
X033488Y020260D01*
X033590Y020362D01*
X033663Y020488D01*
X033700Y020628D01*
Y020772D01*
X033663Y020912D01*
X033590Y021038D01*
X033488Y021140D01*
X033427Y021175D01*
Y021225D01*
X033488Y021260D01*
X033590Y021362D01*
X033663Y021488D01*
X033700Y021628D01*
Y021772D01*
X033663Y021912D01*
X033590Y022038D01*
X033488Y022140D01*
X033427Y022175D01*
Y022225D01*
X033488Y022260D01*
X033590Y022362D01*
X033663Y022488D01*
X033700Y022628D01*
Y022772D01*
X033663Y022912D01*
X033590Y023038D01*
X033488Y023140D01*
X033427Y023175D01*
Y023225D01*
X033488Y023260D01*
X033590Y023362D01*
X033663Y023488D01*
X033700Y023628D01*
Y023772D01*
X033663Y023912D01*
X033590Y024038D01*
X033488Y024140D01*
X033427Y024175D01*
Y024225D01*
X033488Y024260D01*
X033590Y024362D01*
X033663Y024488D01*
X033700Y024628D01*
Y024772D01*
X033663Y024912D01*
X033590Y025038D01*
X033488Y025140D01*
X033427Y025175D01*
Y025225D01*
X033488Y025260D01*
X033590Y025362D01*
X033663Y025488D01*
X033697Y025618D01*
X033745Y025642D01*
X034655Y024731D01*
D02*
G37*
D16*
X039850Y027200D02*
D03*
D50*
X030700Y031650D02*
X030725Y031675D01*
Y033825D02*
X030750Y033850D01*
X030725Y031675D02*
Y033825D01*
X033400Y031400D02*
Y032550D01*
X034400Y033550D02*
X034600D01*
X033400Y032550D02*
X034400Y033550D01*
X029250Y026361D02*
Y031050D01*
X028769Y031531D02*
X029250Y031050D01*
X028289Y025400D02*
X029250Y026361D01*
X028506Y031800D02*
X028769Y031538D01*
X028500Y031800D02*
X028506D01*
X028769Y031531D02*
Y031538D01*
X035825Y032525D02*
X036850Y031500D01*
X035825Y032525D02*
Y034525D01*
X036850Y031500D02*
X037000D01*
X045900Y040650D02*
X049900Y036650D01*
Y017550D02*
Y036650D01*
X048810Y016460D02*
X049900Y017550D01*
X047950Y015600D02*
X048810Y016460D01*
X048810D01*
X041334Y014700D02*
X042234Y015600D01*
X047950D01*
X044337Y020813D02*
X045600Y019550D01*
X044337Y020813D02*
Y030313D01*
X043150Y031500D02*
X044337Y030313D01*
X043000Y031500D02*
X043150D01*
X028250Y025400D02*
X028289D01*
X034800Y035550D02*
X035825Y034525D01*
X034600Y035550D02*
X034800D01*
X037025Y030475D02*
X038775D01*
X037000Y030500D02*
X037025Y030475D01*
X038775D02*
X038800Y030450D01*
X043000Y019700D02*
Y021500D01*
X042225Y018925D02*
X043000Y019700D01*
X034983Y022483D02*
X037866Y019600D01*
X037304Y018925D02*
X042225D01*
X036529Y019700D02*
X037304Y018925D01*
X033150Y019700D02*
X036529D01*
X037866Y019600D02*
X039181D01*
X034983Y022483D02*
Y024867D01*
X040282Y019600D02*
Y023368D01*
X037000Y026500D02*
X037150D01*
X040282Y023368D01*
X033150Y026700D02*
X034983Y024867D01*
D51*
X029219Y030850D02*
X035160D01*
X035425Y031115D01*
Y031125D01*
X035850Y031550D01*
D52*
X048900Y041900D02*
D03*
X049900D02*
D03*
X046050Y028400D02*
D03*
Y023400D02*
D03*
Y024400D02*
D03*
Y025400D02*
D03*
Y026400D02*
D03*
Y027400D02*
D03*
Y029400D02*
D03*
X056550Y042550D02*
D03*
X040282Y016100D02*
D03*
Y019600D02*
D03*
X039181Y016100D02*
D03*
Y019600D02*
D03*
X025550Y025750D02*
D03*
X022050D02*
D03*
X043050Y043700D02*
D03*
Y047200D02*
D03*
X039366Y014700D02*
D03*
X040350D02*
D03*
X041334D02*
D03*
X042319D02*
D03*
X043303D02*
D03*
X045900Y039650D02*
D03*
Y037650D02*
D03*
Y036650D02*
D03*
Y035650D02*
D03*
Y034650D02*
D03*
Y033650D02*
D03*
Y038650D02*
D03*
X034350Y029000D02*
D03*
Y028000D02*
D03*
X035350Y030200D02*
D03*
Y029200D02*
D03*
X041100Y030450D02*
D03*
Y031450D02*
D03*
X038800Y030450D02*
D03*
Y031450D02*
D03*
X040000Y030450D02*
D03*
Y031450D02*
D03*
X034200Y014650D02*
D03*
X033150Y025700D02*
D03*
Y023700D02*
D03*
Y022700D02*
D03*
Y021700D02*
D03*
Y020700D02*
D03*
Y019700D02*
D03*
Y024700D02*
D03*
X032250Y038100D02*
D03*
Y036100D02*
D03*
Y035100D02*
D03*
Y034100D02*
D03*
Y033100D02*
D03*
Y032100D02*
D03*
Y037100D02*
D03*
D53*
X043000Y021500D02*
D03*
Y022500D02*
D03*
Y023500D02*
D03*
Y024500D02*
D03*
Y025500D02*
D03*
Y026500D02*
D03*
Y027500D02*
D03*
Y028500D02*
D03*
Y029500D02*
D03*
Y030500D02*
D03*
Y031500D02*
D03*
Y032500D02*
D03*
Y033500D02*
D03*
Y034500D02*
D03*
Y035500D02*
D03*
Y036500D02*
D03*
Y037500D02*
D03*
Y038500D02*
D03*
Y039500D02*
D03*
Y040500D02*
D03*
X037000Y021500D02*
D03*
Y022500D02*
D03*
Y023500D02*
D03*
Y024500D02*
D03*
Y025500D02*
D03*
Y026500D02*
D03*
Y027500D02*
D03*
Y028500D02*
D03*
Y029500D02*
D03*
Y030500D02*
D03*
Y031500D02*
D03*
Y032500D02*
D03*
Y033500D02*
D03*
Y034500D02*
D03*
Y035500D02*
D03*
Y036500D02*
D03*
Y037500D02*
D03*
Y038500D02*
D03*
Y039500D02*
D03*
D54*
Y040500D02*
D03*
D55*
X030450Y043300D02*
D03*
X045600Y019550D02*
D03*
Y017850D02*
D03*
X030750Y026850D02*
D03*
Y028550D02*
D03*
X038750Y046350D02*
D03*
X030700Y031650D02*
D03*
X030750Y033850D02*
D03*
D56*
X030450Y047800D02*
D03*
D57*
X027400Y042850D02*
D03*
Y045350D02*
D03*
D58*
X025400Y043850D02*
D03*
D59*
X039850Y026200D02*
D03*
Y028200D02*
D03*
X049900Y043200D02*
D03*
X048900Y045200D02*
D03*
X047900Y043200D02*
D03*
D60*
X057150Y034150D02*
D03*
Y030650D02*
D03*
X056100Y034150D02*
D03*
Y030650D02*
D03*
X055050Y034150D02*
D03*
Y030650D02*
D03*
X053950Y034200D02*
D03*
Y030700D02*
D03*
X057100Y018000D02*
D03*
Y021500D02*
D03*
X056050Y018000D02*
D03*
Y021500D02*
D03*
X055050Y018000D02*
D03*
Y021500D02*
D03*
X053950Y018000D02*
D03*
Y021500D02*
D03*
X047850Y018400D02*
D03*
Y014900D02*
D03*
X049050Y032750D02*
D03*
Y031750D02*
D03*
Y030750D02*
D03*
Y029750D02*
D03*
Y028750D02*
D03*
Y027750D02*
D03*
Y026750D02*
D03*
Y025750D02*
D03*
Y024750D02*
D03*
Y023750D02*
D03*
Y022750D02*
D03*
Y021750D02*
D03*
Y020750D02*
D03*
Y019750D02*
D03*
Y018750D02*
D03*
D61*
X053460Y029000D02*
D03*
X054460D02*
D03*
X055460D02*
D03*
X056460D02*
D03*
X057460D02*
D03*
Y023000D02*
D03*
X056460D02*
D03*
X055460D02*
D03*
X054460D02*
D03*
X053460D02*
D03*
D62*
X024660Y022480D02*
D03*
X024650Y024250D02*
D03*
X022100Y024240D02*
D03*
Y022480D02*
D03*
X022200Y029090D02*
D03*
Y030850D02*
D03*
X024750Y030860D02*
D03*
X024760Y029090D02*
D03*
X022140Y032750D02*
D03*
Y034510D02*
D03*
X024690Y034520D02*
D03*
X024700Y032750D02*
D03*
X022190Y036350D02*
D03*
Y038110D02*
D03*
X024740Y038120D02*
D03*
X024750Y036350D02*
D03*
Y041800D02*
D03*
Y040040D02*
D03*
X022200Y040030D02*
D03*
X022190Y041800D02*
D03*
D63*
X046050Y030400D02*
D03*
X056550Y043550D02*
D03*
X045900Y040650D02*
D03*
X033150Y026700D02*
D03*
X032250Y039100D02*
D03*
D64*
X037750Y044350D02*
D03*
X038750D02*
D03*
X039750D02*
D03*
D65*
X034600Y038550D02*
D03*
Y036550D02*
D03*
Y034550D02*
D03*
Y033550D02*
D03*
Y032550D02*
D03*
Y035550D02*
D03*
Y037550D02*
D03*
Y039550D02*
D03*
D66*
Y031550D02*
D03*
D67*
X023650Y014700D02*
D03*
X025650D02*
D03*
X027650D02*
D03*
X028650D02*
D03*
X029650D02*
D03*
X026650D02*
D03*
X024650D02*
D03*
X022650D02*
D03*
D68*
X030650D02*
D03*
D69*
X049050Y017750D02*
D03*
D70*
X028500Y033800D02*
D03*
Y032800D02*
D03*
Y031800D02*
D03*
Y030800D02*
D03*
X027500Y029800D02*
D03*
Y030800D02*
D03*
Y031800D02*
D03*
Y032800D02*
D03*
Y033800D02*
D03*
D71*
X028500Y029800D02*
D03*
D72*
X031250Y018950D02*
D03*
X029950D02*
D03*
X028650D02*
D03*
X027350D02*
D03*
X026050D02*
D03*
X024750D02*
D03*
X023450D02*
D03*
X022150D02*
D03*
D73*
X031250Y017950D02*
D03*
X029950D02*
D03*
X028650D02*
D03*
X027350D02*
D03*
X026050D02*
D03*
X024750D02*
D03*
X023450D02*
D03*
X022150D02*
D03*
D74*
X045350Y045300D02*
D03*
Y044300D02*
D03*
D75*
X038382Y014700D02*
D03*
X033200Y014650D02*
D03*
D76*
X028250Y025400D02*
D03*
D77*
Y024400D02*
D03*
D78*
X053150Y043000D02*
D03*
X033350Y045950D02*
D03*
D79*
X053150Y044500D02*
D03*
X033350Y044450D02*
D03*
D80*
X033400Y031400D02*
D03*
X035850Y031550D02*
D03*
M02*
