M48
;Layer_Color=9474304
;FILE_FORMAT=2:4
INCH,LZ
;TYPE=PLATED
T1F00S00C0.0197
T2F00S00C0.0280
T3F00S00C0.0310
T4F00S00C0.0315
T5F00S00C0.0320
T6F00S00C0.0350
T7F00S00C0.0354
T8F00S00C0.0394
T9F00S00C0.0400
T10F00S00C0.0450
T12F00S00C0.0750
;TYPE=NON_PLATED
T13F00S00C0.0394
%
T01
X04785Y0149
Y0184
X05395Y018
X05505
X05605
X0571
Y0215
X05605
X05505
X05395
Y0307
X05505Y03065
X0561
X05715
Y03415
X0561
X05505
X05395Y0342
T02
X0334Y0314
X03585Y03155
T03
X039181Y0161
X040282
Y0196
X039181
X037Y0215
Y0225
Y0235
Y0245
Y0255
Y0265
Y0275
Y0285
Y0295
Y0305
X0388Y03045
X04
X0411
X043Y0305
Y0295
Y0285
Y0275
Y0265
Y0255
Y0245
Y0235
Y0225
Y0215
X03435Y028
Y029
X03535Y0292
Y0302
X02555Y02575
X02205
X037Y0315
Y0325
Y0335
Y0345
Y0355
Y0365
Y0375
Y0385
Y0395
Y0405
X043
Y0395
Y0385
Y0375
Y0365
Y0355
Y0345
Y0335
Y0325
Y0315
X0411Y03145
X04
X0388
X04305Y0437
X0489Y0419
X0499
X04305Y0472
T04
X02825Y0244
Y0254
X04535Y0443
Y0453
T05
X02265Y0147
X02365
X02465
X02565
X02665
X02765
X02865
X02965
X03065
X03125Y01795
Y01895
X02995
Y01795
X02865
Y01895
X02735
Y01795
X02605
Y01895
X02475
Y01795
X02345
Y01895
X02215
Y01795
X0346Y03155
Y03255
Y03355
Y03455
Y03555
Y03655
Y03755
Y03855
Y03955
X03335Y04445
Y04595
X05315Y0445
Y043
T06
X0479Y0432
X0499
X0489Y0452
T07
X04905Y01775
Y01875
Y01975
Y02075
Y02175
Y02275
Y02375
Y02475
Y02575
Y02675
Y02775
Y02875
Y02975
Y03075
Y03175
Y03275
T08
X05346Y023
X05446
X05546
X05646
X05746
Y029
X05646
X05546
X05446
X05346
X03985Y0282
Y0272
Y0262
X0456Y01955
Y01785
X03075Y02685
Y02855
X0285Y0298
Y0308
X0275
Y0298
X02476Y02909
X02475Y03086
X0222Y03085
Y02909
X0221Y02424
Y02248
X02466
X02465Y02425
X0247Y03275
X02469Y03452
X02475Y03635
X02474Y03812
X02475Y04004
Y0418
X02219
X0222Y04003
X02219Y03811
Y03635
X02214Y03451
Y03275
X0275Y0328
X0285
Y0338
X0275
Y0318
X0285
X0307Y03165
X03075Y03385
T09
X03775Y04435
X03875
X03975
T10
X03045Y0433
Y0478
T12
X03875Y04635
T13
X0332Y01465
X0342
X038382Y0147
X039366
X04035
X041334
X042319
X043303
X04605Y0234
Y0244
Y0254
Y0264
Y0274
Y0284
Y0294
Y0304
X03315Y0267
Y0257
Y0247
Y0237
Y0227
Y0217
Y0207
Y0197
X03225Y0321
Y0331
Y0341
Y0351
Y0361
Y0371
Y0381
Y0391
X0459Y03865
Y03965
Y04065
Y03765
Y03665
Y03565
Y03465
Y03365
X05655Y04255
Y04355
M30
